<svg id="kity_svg_6" xmlns="http://www.w3.org/2000/svg" xmlns:xlink="http://www.w3.org/1999/xlink" version="1.1" width="1740" height="1178" style="background: rgb(251, 251, 251); visibility: visible;" viewBox="0 0 1740 1178"><defs id="kity_defs_7"><linearGradient id="kity_linearGradient_17" x1="0" y1="0" x2="0" y2="1"><stop id="kity_stop_18" offset="0" stop-color="rgb(255, 255, 255)"></stop><stop id="kity_stop_19" offset="1" stop-color="rgb(204, 204, 204)"></stop></linearGradient><marker id="kity_marker_2" orient="auto" refX="6" refY="0" viewBox="-7 -7 14 14" markerWidth="7" markerHeight="7" markerUnits="userSpaceOnUse"><path id="kity_path_3" fill="rgb(115, 161, 191)" stroke="none" d="M6,0A6,6,0,1,1,-6,0A6,6,0,1,1,6,0"></path></marker></defs><g id="kity_g_8"><g id="minder1" text-rendering="optimize-speed"><g id="minder_connect_group1"><path id="kity_path_31" fill="none" stroke="rgb(115, 161, 191)" stroke-width="1" d="M937.0000107213855,434.0000068023801A198.5,324,0,0,1,1135.5000107213855,110.00000680238008"></path><path id="kity_path_33" fill="none" stroke="rgb(115, 161, 191)" stroke-width="1" d="M1302.5000107213855,110.00000680238008C1317.5000107213855,110.00000680238008,1317.5000107213855,69.50000680238008,1332.5000107213855,69.50000680238008L1499.5000107213855,69.50000680238008"></path><path id="kity_path_35" fill="none" stroke="rgb(115, 161, 191)" stroke-width="1" d="M1302.5000107213855,110.00000680238008C1317.5000107213855,110.00000680238008,1317.5000107213855,126.50000680238008,1332.5000107213855,126.50000680238008L1457.5000107213855,126.50000680238008"></path><path id="kity_path_37" fill="none" stroke="rgb(115, 161, 191)" stroke-width="1" d="M1302.5000107213855,110.00000680238008C1317.5000107213855,110.00000680238008,1317.5000107213855,183.50000680238008,1332.5000107213855,183.50000680238008L1535.5000107213855,183.50000680238008"></path><path id="kity_path_39" fill="none" stroke="rgb(115, 161, 191)" stroke-width="1" d="M937.0000107213855,434.0000068023801A198.5,325.5,0,0,0,1135.5000107213855,759.5000068023801"></path><path id="kity_path_41" fill="none" stroke="rgb(115, 161, 191)" stroke-width="1" d="M1281.5000107213855,759.5000068023801C1296.5000107213855,759.5000068023801,1296.5000107213855,388.5000068023801,1311.5000107213855,388.5000068023801L1391.5000107213855,388.5000068023801"></path><path id="kity_path_43" fill="none" stroke="rgb(115, 161, 191)" stroke-width="1" d="M1391.5000107213855,388.5000068023801C1406.5000107213855,388.5000068023801,1406.5000107213855,251.50000680238008,1421.5000107213855,251.50000680238008L1615.5000107213855,251.50000680238008"></path><path id="kity_path_45" fill="none" stroke="rgb(115, 161, 191)" stroke-width="1" d="M1391.5000107213855,388.5000068023801C1406.5000107213855,388.5000068023801,1406.5000107213855,308.5000068023801,1421.5000107213855,308.5000068023801L1626.5000107213855,308.5000068023801"></path><path id="kity_path_47" fill="none" stroke="rgb(115, 161, 191)" stroke-width="1" d="M1391.5000107213855,388.5000068023801C1406.5000107213855,388.5000068023801,1406.5000107213855,365.5000068023801,1421.5000107213855,365.5000068023801L1564.5000107213855,365.5000068023801"></path><path id="kity_path_49" fill="none" stroke="rgb(115, 161, 191)" stroke-width="1" d="M1391.5000107213855,388.5000068023801C1406.5000107213855,388.5000068023801,1406.5000107213855,422.5000068023801,1421.5000107213855,422.5000068023801L1574.5000107213855,422.5000068023801"></path><path id="kity_path_51" fill="none" stroke="rgb(115, 161, 191)" stroke-width="1" d="M1391.5000107213855,388.5000068023801C1406.5000107213855,388.5000068023801,1406.5000107213855,474.5000068023801,1421.5000107213855,474.5000068023801L1556.5000107213855,474.5000068023801"></path><path id="kity_path_53" fill="none" stroke="rgb(115, 161, 191)" stroke-width="1" d="M1391.5000107213855,388.5000068023801C1406.5000107213855,388.5000068023801,1406.5000107213855,531.5000068023801,1421.5000107213855,531.5000068023801L1538.5000107213855,531.5000068023801"></path><path id="kity_path_55" fill="none" stroke="rgb(115, 161, 191)" stroke-width="1" d="M1281.5000107213855,759.5000068023801C1296.5000107213855,759.5000068023801,1296.5000107213855,730.5000068023801,1311.5000107213855,730.5000068023801L1412.5000107213855,730.5000068023801"></path><path id="kity_path_57" fill="none" stroke="rgb(115, 161, 191)" stroke-width="1" d="M1412.5000107213855,730.5000068023801C1427.5000107213855,730.5000068023801,1427.5000107213855,588.5000068023801,1442.5000107213855,588.5000068023801L1531.5000107213855,588.5000068023801"></path><path id="kity_path_59" fill="none" stroke="rgb(115, 161, 191)" stroke-width="1" d="M1412.5000107213855,730.5000068023801C1427.5000107213855,730.5000068023801,1427.5000107213855,645.5000068023801,1442.5000107213855,645.5000068023801L1602.5000107213855,645.5000068023801"></path><path id="kity_path_61" fill="none" stroke="rgb(115, 161, 191)" stroke-width="1" d="M1412.5000107213855,730.5000068023801C1427.5000107213855,730.5000068023801,1427.5000107213855,756.5000068023801,1442.5000107213855,756.5000068023801L1537.5000107213855,756.5000068023801"></path><path id="kity_path_63" fill="none" stroke="rgb(115, 161, 191)" stroke-width="1" d="M1537.5000107213855,756.5000068023801C1552.5000107213855,756.5000068023801,1552.5000107213855,702.5000068023801,1567.5000107213855,702.5000068023801L1683.5000107213855,702.5000068023801"></path><path id="kity_path_65" fill="none" stroke="rgb(115, 161, 191)" stroke-width="1" d="M1537.5000107213855,756.5000068023801C1552.5000107213855,756.5000068023801,1552.5000107213855,759.5000068023801,1567.5000107213855,759.5000068023801L1683.5000107213855,759.5000068023801"></path><path id="kity_path_67" fill="none" stroke="rgb(115, 161, 191)" stroke-width="1" d="M1537.5000107213855,756.5000068023801C1552.5000107213855,756.5000068023801,1552.5000107213855,816.5000068023801,1567.5000107213855,816.5000068023801L1719.5000107213855,816.5000068023801"></path><path id="kity_path_69" fill="none" stroke="rgb(115, 161, 191)" stroke-width="1" d="M1412.5000107213855,730.5000068023801C1427.5000107213855,730.5000068023801,1427.5000107213855,873.5000068023801,1442.5000107213855,873.5000068023801L1560.5000107213855,873.5000068023801"></path><path id="kity_path_71" fill="none" stroke="rgb(115, 161, 191)" stroke-width="1" d="M1281.5000107213855,759.5000068023801C1296.5000107213855,759.5000068023801,1296.5000107213855,971.5000068023801,1311.5000107213855,971.5000068023801L1412.5000107213855,971.5000068023801"></path><path id="kity_path_73" fill="none" stroke="rgb(115, 161, 191)" stroke-width="1" d="M1412.5000107213855,971.5000068023801C1427.5000107213855,971.5000068023801,1427.5000107213855,930.5000068023801,1442.5000107213855,930.5000068023801L1579.5000107213855,930.5000068023801"></path><path id="kity_path_75" fill="none" stroke="rgb(115, 161, 191)" stroke-width="1" d="M1412.5000107213855,971.5000068023801C1427.5000107213855,971.5000068023801,1427.5000107213855,1013.5000068023801,1442.5000107213855,1013.5000068023801L1522.5000107213855,1013.5000068023801"></path><path id="kity_path_77" fill="none" stroke="rgb(115, 161, 191)" stroke-width="1" d="M1522.5000107213855,1013.5000068023801C1537.5000107213855,1013.5000068023801,1537.5000107213855,987.5000068023801,1552.5000107213855,987.5000068023801L1676.5000107213855,987.5000068023801"></path><path id="kity_path_79" fill="none" stroke="rgb(115, 161, 191)" stroke-width="1" d="M1522.5000107213855,1013.5000068023801C1537.5000107213855,1013.5000068023801,1537.5000107213855,1044.50000680238,1552.5000107213855,1044.50000680238L1689.5000107213855,1044.50000680238"></path><path id="kity_path_81" fill="none" stroke="rgb(115, 161, 191)" stroke-width="1" d="M1281.5000107213855,759.5000068023801C1296.5000107213855,759.5000068023801,1296.5000107213855,1101.50000680238,1311.5000107213855,1101.50000680238L1411.5000107213855,1101.50000680238"></path><path id="kity_path_83" fill="none" stroke="rgb(115, 161, 191)" stroke-width="1" d="M1281.5000107213855,759.5000068023801C1296.5000107213855,759.5000068023801,1296.5000107213855,1158.50000680238,1311.5000107213855,1158.50000680238L1424.5000107213855,1158.50000680238"></path><path id="kity_path_85" fill="none" stroke="rgb(115, 161, 191)" stroke-width="1" d="M937.0000107213855,434.0000068023801A198.5,258,0,0,0,738.5000107213855,176.00000680238008"></path><path id="kity_path_87" fill="none" stroke="rgb(115, 161, 191)" stroke-width="1" d="M570.5000107213855,176.00000680238008C555.5000107213855,176.00000680238008,555.5000107213855,50.500006802380085,540.5000107213855,50.500006802380085L416.5000107213855,50.500006802380085"></path><path id="kity_path_89" fill="none" stroke="rgb(115, 161, 191)" stroke-width="1" d="M570.5000107213855,176.00000680238008C555.5000107213855,176.00000680238008,555.5000107213855,107.50000680238008,540.5000107213855,107.50000680238008L439.5000107213855,107.50000680238008"></path><path id="kity_path_91" fill="none" stroke="rgb(115, 161, 191)" stroke-width="1" d="M570.5000107213855,176.00000680238008C555.5000107213855,176.00000680238008,555.5000107213855,164.50000680238008,540.5000107213855,164.50000680238008L440.5000107213855,164.50000680238008"></path><path id="kity_path_93" fill="none" stroke="rgb(115, 161, 191)" stroke-width="1" d="M570.5000107213855,176.00000680238008C555.5000107213855,176.00000680238008,555.5000107213855,221.50000680238008,540.5000107213855,221.50000680238008L427.5000107213855,221.50000680238008"></path><path id="kity_path_95" fill="none" stroke="rgb(115, 161, 191)" stroke-width="1" d="M570.5000107213855,176.00000680238008C555.5000107213855,176.00000680238008,555.5000107213855,278.5000068023801,540.5000107213855,278.5000068023801L390.5000107213855,278.5000068023801"></path><path id="kity_path_97" fill="none" stroke="rgb(115, 161, 191)" stroke-width="1" d="M570.5000107213855,176.00000680238008C555.5000107213855,176.00000680238008,555.5000107213855,335.5000068023801,540.5000107213855,335.5000068023801L392.5000107213855,335.5000068023801"></path><path id="kity_path_393" fill="none" stroke="rgb(115, 161, 191)" stroke-width="1" d="M937.0000107213855,434.0000068023801A198.5,259.5,0,0,1,738.5000107213855,693.5000068023801"></path><path id="kity_path_577" fill="none" stroke="rgb(115, 161, 191)" stroke-width="1" d="M494.5000107213855,428.5000068023801C479.5000107213855,428.5000068023801,479.5000107213855,402.5000068023801,464.5000107213855,402.5000068023801L315.5000107213855,402.5000068023801"></path><path id="kity_path_578" fill="none" stroke="rgb(115, 161, 191)" stroke-width="1" d="M494.5000107213855,428.5000068023801C479.5000107213855,428.5000068023801,479.5000107213855,459.5000068023801,464.5000107213855,459.5000068023801L337.5000107213855,459.5000068023801"></path><path id="kity_path_579" fill="none" stroke="rgb(115, 161, 191)" stroke-width="1" d="M591.5000107213855,693.5000068023801C576.5000107213855,693.5000068023801,576.5000107213855,428.5000068023801,561.5000107213855,428.5000068023801L494.5000107213855,428.5000068023801"></path><path id="kity_path_580" fill="none" stroke="rgb(115, 161, 191)" stroke-width="1" d="M461.5000107213855,544.5000068023801C446.5000107213855,544.5000068023801,446.5000107213855,516.5000068023801,431.5000107213855,516.5000068023801L307.5000107213855,516.5000068023801"></path><path id="kity_path_581" fill="none" stroke="rgb(115, 161, 191)" stroke-width="1" d="M461.5000107213855,544.5000068023801C446.5000107213855,544.5000068023801,446.5000107213855,573.5000068023801,431.5000107213855,573.5000068023801L306.5000107213855,573.5000068023801"></path><path id="kity_path_582" fill="none" stroke="rgb(115, 161, 191)" stroke-width="1" d="M591.5000107213855,693.5000068023801C576.5000107213855,693.5000068023801,576.5000107213855,544.5000068023801,561.5000107213855,544.5000068023801L461.5000107213855,544.5000068023801"></path><path id="kity_path_583" fill="none" stroke="rgb(115, 161, 191)" stroke-width="1" d="M484.5000107213855,658.5000068023801C469.5000107213855,658.5000068023801,469.5000107213855,630.5000068023801,454.5000107213855,630.5000068023801L266.5000107213855,630.5000068023801"></path><path id="kity_path_584" fill="none" stroke="rgb(115, 161, 191)" stroke-width="1" d="M484.5000107213855,658.5000068023801C469.5000107213855,658.5000068023801,469.5000107213855,687.5000068023801,454.5000107213855,687.5000068023801L261.5000107213855,687.5000068023801"></path><path id="kity_path_585" fill="none" stroke="rgb(115, 161, 191)" stroke-width="1" d="M591.5000107213855,693.5000068023801C576.5000107213855,693.5000068023801,576.5000107213855,658.5000068023801,561.5000107213855,658.5000068023801L484.5000107213855,658.5000068023801"></path><path id="kity_path_586" fill="none" stroke="rgb(115, 161, 191)" stroke-width="1" d="M436.5000107213855,801.5000068023801C421.5000107213855,801.5000068023801,421.5000107213855,744.5000068023801,406.5000107213855,744.5000068023801L267.5000107213855,744.5000068023801"></path><path id="kity_path_587" fill="none" stroke="rgb(115, 161, 191)" stroke-width="1" d="M436.5000107213855,801.5000068023801C421.5000107213855,801.5000068023801,421.5000107213855,801.5000068023801,406.5000107213855,801.5000068023801L240.50001072138548,801.5000068023801"></path><path id="kity_path_588" fill="none" stroke="rgb(115, 161, 191)" stroke-width="1" d="M591.5000107213855,693.5000068023801C576.5000107213855,693.5000068023801,576.5000107213855,801.5000068023801,561.5000107213855,801.5000068023801L436.5000107213855,801.5000068023801"></path><path id="kity_path_590" fill="none" stroke="rgb(115, 161, 191)" stroke-width="1" d="M436.5000107213855,801.5000068023801C421.5000107213855,801.5000068023801,421.5000107213855,858.5000068023801,406.5000107213855,858.5000068023801L202.50001072138548,858.5000068023801"></path><path id="kity_path_601" fill="none" stroke="rgb(115, 161, 191)" stroke-width="1" d="M591.5000107213855,693.5000068023801C576.5000107213855,693.5000068023801,576.5000107213855,986.5000068023801,561.5000107213855,986.5000068023801L385.5000107213855,986.5000068023801"></path><path id="kity_path_612" fill="none" stroke="rgb(115, 161, 191)" stroke-width="1" d="M385.5000107213855,986.5000068023801C370.5000107213855,986.5000068023801,370.5000107213855,915.5000068023801,355.5000107213855,915.5000068023801L254.50001072138548,915.5000068023801"></path><path id="kity_path_623" fill="none" stroke="rgb(115, 161, 191)" stroke-width="1" d="M385.5000107213855,986.5000068023801C370.5000107213855,986.5000068023801,370.5000107213855,972.5000068023801,355.5000107213855,972.5000068023801L279.5000107213855,972.5000068023801"></path><path id="kity_path_634" fill="none" stroke="rgb(115, 161, 191)" stroke-width="1" d="M279.5000107213855,972.5000068023801C264.5000107213855,972.5000068023801,264.5000107213855,972.5000068023801,249.50001072138548,972.5000068023801L138.50001072138548,972.5000068023801"></path><path id="kity_path_645" fill="none" stroke="rgb(115, 161, 191)" stroke-width="1" d="M385.5000107213855,986.5000068023801C370.5000107213855,986.5000068023801,370.5000107213855,1057.50000680238,355.5000107213855,1057.50000680238L254.50001072138548,1057.50000680238"></path><path id="kity_path_664" fill="none" stroke="rgb(115, 161, 191)" stroke-width="1" d="M254.50001072138548,1057.50000680238C239.50001072138548,1057.50000680238,239.50001072138548,1029.50000680238,224.50001072138548,1029.50000680238L19.50001072138548,1029.50000680238"></path><path id="kity_path_675" fill="none" stroke="rgb(115, 161, 191)" stroke-width="1" d="M254.50001072138548,1057.50000680238C239.50001072138548,1057.50000680238,239.50001072138548,1086.50000680238,224.50001072138548,1086.50000680238L43.50001072138548,1086.50000680238"></path></g><g id="minder_node1"><path id="node_outline1" fill="rgb(115, 161, 191)" stroke="rgb(115, 161, 191)" d="M861.5000107213855,413.5000068023801h151a5,5,0,0,1,5,5v31a5,5,0,0,1,-5,5h-151a5,5,0,0,1,-5,-5v-31a5,5,0,0,1,5,-5z" stroke-width="3"></path><g id="node_text1" fill="white"><text id="kity_text_22" text-rendering="inherit" font-size="16" dy=".8em" y="423.1000067666173" x="880.5000107213855">SpringBoot</text></g><g id="kity_g_253" style="cursor: pointer;"><path id="kity_path_254" fill="none" stroke="none" d="M980.0000121667981,425.0000068023801h12a2,2,0,0,1,2,2v13a2,2,0,0,1,-2,2h-12a2,2,0,0,1,-2,-2v-13a2,2,0,0,1,2,-2z"></path><path id="kity_path_255" fill="white" stroke="none" d="M989.000012204051,436.00000670552254H983.000012204051V435.00000670552254h6L989.000012204051,436.00000670552254L989.000012204051,436.00000670552254zM989.000012204051,434.00000670552254H983.000012204051V433.00000670552254h6V434.00000670552254zM989.000012204051,432.00000670552254H983.000012204051V431.00000670552254h6V432.00000670552254zM988.500012204051,438.00000670552254H982.000012204051V429.00000670552254h8v7.5M989.000012204051,439.00000670552254l2,-2V428.00000670552254H981.000012204051v11"></path></g></g><g id="kity_g_14" display="none"><path id="kity_path_15" fill="none" stroke="none" d="M880.5000107213855,433.5000068023801h0v0h0z"></path><path id="kity_path_16" fill="none" stroke="none"></path></g><g id="minder_node2"><g id="node_expander4" style="cursor: pointer;"><path id="kity_path_300" fill="white" stroke="gray" d="M1136.5000144466758,110.00000198185444A6,6,0,1,1,1124.5000144466758,110.00000198185444A6,6,0,1,1,1136.5000144466758,110.00000198185444"></path><path id="kity_path_301" fill="none" stroke="gray" d="M1126.0000144466758,110.00000198185444L1135.0000144466758,110.00000198185444"></path></g><path id="node_outline5" fill="rgb(238, 243, 246)" stroke="rgb(115, 161, 191)" d="M1140.5000148490071,95.50000197440386h159a3,3,0,0,1,3,3v23a3,3,0,0,1,-3,3h-159a3,3,0,0,1,-3,-3v-23a3,3,0,0,1,3,-3z" stroke-width="1"></path><g id="node_text5" fill="black"><text id="kity_text_105" text-rendering="inherit" font-size="14" dy=".8em" y="100.40000194311142" x="1157.5000148490071">SpringBoot简介</text></g><g id="kity_g_175" style="cursor: pointer;"><path id="kity_path_176" fill="none" stroke="none" d="M1269.0000164732337,101.00000197440386h12a2,2,0,0,1,2,2v13a2,2,0,0,1,-2,2h-12a2,2,0,0,1,-2,-2v-13a2,2,0,0,1,2,-2z"></path><path id="kity_path_177" fill="black" stroke="none" d="M1278.0000165104866,112.00000187754631H1272.0000165104866V111.00000187754631h6L1278.0000165104866,112.00000187754631L1278.0000165104866,112.00000187754631zM1278.0000165104866,110.00000187754631H1272.0000165104866V109.00000187754631h6V110.00000187754631zM1278.0000165104866,108.00000187754631H1272.0000165104866V107.00000187754631h6V108.00000187754631zM1277.5000165104866,114.00000187754631H1271.0000165104866V105.00000187754631h8v7.5M1278.0000165104866,115.00000187754631l2,-2V104.00000187754631H1270.0000165104866v11"></path></g></g><g id="minder_node3"><g id="node_expander1" style="cursor: pointer;" display="none"><path id="kity_path_291" fill="white" stroke="gray" d="M1342.500017516315,53.00000113248825A6,6,0,1,1,1330.500017516315,53.00000113248825A6,6,0,1,1,1342.500017516315,53.00000113248825"></path><path id="kity_path_292" fill="none" stroke="gray"></path></g><path id="node_outline2" fill="none" stroke="none" d="M1347.5000177547336,39.50000112503767h147a5,5,0,0,1,5,5v17a5,5,0,0,1,-5,5h-147a5,5,0,0,1,-5,-5v-17a5,5,0,0,1,5,-5z" stroke-width="3"></path><g id="node_text2" fill="black"><text id="kity_text_99" text-rendering="inherit" font-size="12" dy=".8em" y="44.70000109821558" x="1352.5000177547336">&#xa0;SpringBoot出现原因</text></g><g id="kity_g_166" style="cursor: pointer;"><path id="kity_path_167" fill="none" stroke="none" d="M1476.000019557774,44.00000112503767h12a2,2,0,0,1,2,2v13a2,2,0,0,1,-2,2h-12a2,2,0,0,1,-2,-2v-13a2,2,0,0,1,2,-2z"></path><path id="kity_path_168" fill="black" stroke="none" d="M1485.000019595027,55.00000102818012H1479.000019595027V54.00000102818012h6L1485.000019595027,55.00000102818012L1485.000019595027,55.00000102818012zM1485.000019595027,53.00000102818012H1479.000019595027V52.00000102818012h6V53.00000102818012zM1485.000019595027,51.00000102818012H1479.000019595027V50.00000102818012h6V51.00000102818012zM1484.500019595027,57.00000102818012H1478.000019595027V48.00000102818012h8v7.5M1485.000019595027,58.00000102818012l2,-2V47.00000102818012H1477.000019595027v11"></path></g></g><g id="minder_node4"><g id="node_expander2" style="cursor: pointer;" display="none"><path id="kity_path_294" fill="white" stroke="gray" d="M1342.500017516315,110.00000198185444A6,6,0,1,1,1330.500017516315,110.00000198185444A6,6,0,1,1,1342.500017516315,110.00000198185444"></path><path id="kity_path_295" fill="none" stroke="gray"></path></g><path id="node_outline3" fill="none" stroke="none" d="M1347.5000177547336,96.50000197440386h105a5,5,0,0,1,5,5v17a5,5,0,0,1,-5,5h-105a5,5,0,0,1,-5,-5v-17a5,5,0,0,1,5,-5z" stroke-width="3"></path><g id="node_text3" fill="black"><text id="kity_text_101" text-rendering="inherit" font-size="12" dy=".8em" y="101.70000194758177" x="1352.5000177547336">Spring的优势</text></g><g id="kity_g_169" style="cursor: pointer;"><path id="kity_path_170" fill="none" stroke="none" d="M1434.0000189319253,101.00000197440386h12a2,2,0,0,1,2,2v13a2,2,0,0,1,-2,2h-12a2,2,0,0,1,-2,-2v-13a2,2,0,0,1,2,-2z"></path><path id="kity_path_171" fill="black" stroke="none" d="M1443.0000189691782,112.00000187754631H1437.0000189691782V111.00000187754631h6L1443.0000189691782,112.00000187754631L1443.0000189691782,112.00000187754631zM1443.0000189691782,110.00000187754631H1437.0000189691782V109.00000187754631h6V110.00000187754631zM1443.0000189691782,108.00000187754631H1437.0000189691782V107.00000187754631h6V108.00000187754631zM1442.5000189691782,114.00000187754631H1436.0000189691782V105.00000187754631h8v7.5M1443.0000189691782,115.00000187754631l2,-2V104.00000187754631H1435.0000189691782v11"></path></g></g><g id="minder_node5"><g id="node_expander3" style="cursor: pointer;" display="none"><path id="kity_path_297" fill="white" stroke="gray" d="M1342.500017516315,167.00000283122063A6,6,0,1,1,1330.500017516315,167.00000283122063A6,6,0,1,1,1342.500017516315,167.00000283122063"></path><path id="kity_path_298" fill="none" stroke="gray"></path></g><path id="node_outline4" fill="none" stroke="none" d="M1347.5000177547336,153.50000282377005h183a5,5,0,0,1,5,5v17a5,5,0,0,1,-5,5h-183a5,5,0,0,1,-5,-5v-17a5,5,0,0,1,5,-5z"></path><g id="node_text4" fill="black"><text id="kity_text_103" text-rendering="inherit" font-size="12" dy=".8em" y="158.70000279694796" x="1352.5000177547336">为什么SpringBoot 这么简洁</text></g><g id="kity_g_172" style="cursor: pointer;"><path id="kity_path_173" fill="none" stroke="none" d="M1512.0000200942159,158.00000282377005h12a2,2,0,0,1,2,2v13a2,2,0,0,1,-2,2h-12a2,2,0,0,1,-2,-2v-13a2,2,0,0,1,2,-2z"></path><path id="kity_path_174" fill="black" stroke="none" d="M1521.0000201314688,169.0000027269125H1515.0000201314688V168.0000027269125h6L1521.0000201314688,169.0000027269125L1521.0000201314688,169.0000027269125zM1521.0000201314688,167.0000027269125H1515.0000201314688V166.0000027269125h6V167.0000027269125zM1521.0000201314688,165.0000027269125H1515.0000201314688V164.0000027269125h6V165.0000027269125zM1520.5000201314688,171.0000027269125H1514.0000201314688V162.0000027269125h8v7.5M1521.0000201314688,172.0000027269125l2,-2V161.0000027269125H1513.0000201314688v11"></path></g></g><g id="minder_node6"><g id="node_expander27" style="cursor: pointer;"><path id="kity_path_369" fill="white" stroke="gray" d="M1136.5000144466758,759.5000116601586A6,6,0,1,1,1124.5000144466758,759.5000116601586A6,6,0,1,1,1136.5000144466758,759.5000116601586"></path><path id="kity_path_370" fill="none" stroke="gray" d="M1126.0000144466758,759.5000116601586L1135.0000144466758,759.5000116601586"></path></g><path id="node_outline28" fill="rgb(238, 243, 246)" stroke="rgb(115, 161, 191)" d="M1140.5000148490071,746.5000116601586h138a3,3,0,0,1,3,3v20a3,3,0,0,1,-3,3h-138a3,3,0,0,1,-3,-3v-20a3,3,0,0,1,3,-3z" stroke-width="1"></path><g id="node_text28" fill="black"><text id="kity_text_151" text-rendering="inherit" font-size="14" dy=".8em" y="750.4000116288662" x="1157.5000148490071">SpringBoot基础</text></g></g><g id="minder_node7"><g id="node_expander11" style="cursor: pointer;"><path id="kity_path_321" fill="white" stroke="gray" d="M1321.5000172033906,374.5000059232116A6,6,0,1,1,1309.5000172033906,374.5000059232116A6,6,0,1,1,1321.5000172033906,374.5000059232116"></path><path id="kity_path_322" fill="none" stroke="gray" d="M1311.0000172033906,374.5000059232116L1320.0000172033906,374.5000059232116"></path></g><path id="node_outline12" fill="none" stroke="none" d="M1326.5000174418092,363.5000059232116h60a5,5,0,0,1,5,5v12a5,5,0,0,1,-5,5h-60a5,5,0,0,1,-5,-5v-12a5,5,0,0,1,5,-5z"></path><g id="node_text12" fill="black"><text id="kity_text_119" text-rendering="inherit" font-size="12" dy=".8em" y="366.7000058963895" x="1331.5000174418092">核心注解</text></g></g><g id="minder_node8"><g id="node_expander5" style="cursor: pointer;" display="none"><path id="kity_path_303" fill="white" stroke="gray" d="M1431.5000188425183,235.0000038444996A6,6,0,1,1,1419.5000188425183,235.0000038444996A6,6,0,1,1,1431.5000188425183,235.0000038444996"></path><path id="kity_path_304" fill="none" stroke="gray"></path></g><path id="node_outline6" fill="none" stroke="none" d="M1436.500019080937,221.500003837049h174a5,5,0,0,1,5,5v17a5,5,0,0,1,-5,5h-174a5,5,0,0,1,-5,-5v-17a5,5,0,0,1,5,-5z" stroke-width="3"></path><g id="node_text6" fill="black"><text id="kity_text_107" text-rendering="inherit" font-size="12" dy=".8em" y="226.70000381022692" x="1441.500019080937">@SpringBootApplication</text></g><g id="kity_g_178" style="cursor: pointer;"><path id="kity_path_179" fill="none" stroke="none" d="M1592.0000212863088,226.000003837049h12a2,2,0,0,1,2,2v13a2,2,0,0,1,-2,2h-12a2,2,0,0,1,-2,-2v-13a2,2,0,0,1,2,-2z"></path><path id="kity_path_180" fill="black" stroke="none" d="M1601.0000213235617,237.00000374019146H1595.0000213235617V236.00000374019146h6L1601.0000213235617,237.00000374019146L1601.0000213235617,237.00000374019146zM1601.0000213235617,235.00000374019146H1595.0000213235617V234.00000374019146h6V235.00000374019146zM1601.0000213235617,233.00000374019146H1595.0000213235617V232.00000374019146h6V233.00000374019146zM1600.5000213235617,239.00000374019146H1594.0000213235617V230.00000374019146h8v7.5M1601.0000213235617,240.00000374019146l2,-2V229.00000374019146H1593.0000213235617v11"></path></g></g><g id="minder_node9"><g id="node_expander6" style="cursor: pointer;" display="none"><path id="kity_path_306" fill="white" stroke="gray" d="M1431.5000188425183,292.0000046938658A6,6,0,1,1,1419.5000188425183,292.0000046938658A6,6,0,1,1,1431.5000188425183,292.0000046938658"></path><path id="kity_path_307" fill="none" stroke="gray"></path></g><path id="node_outline7" fill="none" stroke="none" d="M1436.500019080937,278.5000046864152h185a5,5,0,0,1,5,5v17a5,5,0,0,1,-5,5h-185a5,5,0,0,1,-5,-5v-17a5,5,0,0,1,5,-5z" stroke-width="3"></path><g id="node_text7" fill="black"><text id="kity_text_109" text-rendering="inherit" font-size="12" dy=".8em" y="283.7000046595931" x="1441.500019080937">&#xa0;@EableAutoConfiguration</text></g><g id="kity_g_181" style="cursor: pointer;"><path id="kity_path_182" fill="none" stroke="none" d="M1603.0000214502215,283.0000046864152h12a2,2,0,0,1,2,2v13a2,2,0,0,1,-2,2h-12a2,2,0,0,1,-2,-2v-13a2,2,0,0,1,2,-2z"></path><path id="kity_path_183" fill="black" stroke="none" d="M1612.0000214874744,294.00000458955765H1606.0000214874744V293.00000458955765h6L1612.0000214874744,294.00000458955765L1612.0000214874744,294.00000458955765zM1612.0000214874744,292.00000458955765H1606.0000214874744V291.00000458955765h6V292.00000458955765zM1612.0000214874744,290.00000458955765H1606.0000214874744V289.00000458955765h6V290.00000458955765zM1611.5000214874744,296.00000458955765H1605.0000214874744V287.00000458955765h8v7.5M1612.0000214874744,297.00000458955765l2,-2V286.00000458955765H1604.0000214874744v11"></path></g></g><g id="minder_node10"><g id="node_expander7" style="cursor: pointer;" display="none"><path id="kity_path_309" fill="white" stroke="gray" d="M1431.5000188425183,349.00000554323196A6,6,0,1,1,1419.5000188425183,349.00000554323196A6,6,0,1,1,1431.5000188425183,349.00000554323196"></path><path id="kity_path_310" fill="none" stroke="gray"></path></g><path id="node_outline8" fill="none" stroke="none" d="M1436.500019080937,335.5000055357814h123a5,5,0,0,1,5,5v17a5,5,0,0,1,-5,5h-123a5,5,0,0,1,-5,-5v-17a5,5,0,0,1,5,-5z" stroke-width="3"></path><g id="node_text8" fill="black"><text id="kity_text_111" text-rendering="inherit" font-size="12" dy=".8em" y="340.7000055089593" x="1441.500019080937">@Configuration</text></g><g id="kity_g_184" style="cursor: pointer;"><path id="kity_path_185" fill="none" stroke="none" d="M1541.0000205263495,340.0000055357814h12a2,2,0,0,1,2,2v13a2,2,0,0,1,-2,2h-12a2,2,0,0,1,-2,-2v-13a2,2,0,0,1,2,-2z"></path><path id="kity_path_186" fill="black" stroke="none" d="M1550.0000205636024,351.00000543892384H1544.0000205636024V350.00000543892384h6L1550.0000205636024,351.00000543892384L1550.0000205636024,351.00000543892384zM1550.0000205636024,349.00000543892384H1544.0000205636024V348.00000543892384h6V349.00000543892384zM1550.0000205636024,347.00000543892384H1544.0000205636024V346.00000543892384h6V347.00000543892384zM1549.5000205636024,353.00000543892384H1543.0000205636024V344.00000543892384h8v7.5M1550.0000205636024,354.00000543892384l2,-2V343.00000543892384H1542.0000205636024v11"></path></g></g><g id="minder_node11"><g id="node_expander8" style="cursor: pointer;" display="none"><path id="kity_path_312" fill="white" stroke="gray" d="M1431.5000188425183,406.00000639259815A6,6,0,1,1,1419.5000188425183,406.00000639259815A6,6,0,1,1,1431.5000188425183,406.00000639259815"></path><path id="kity_path_313" fill="none" stroke="gray"></path></g><path id="node_outline9" fill="none" stroke="none" d="M1436.500019080937,392.50000638514757h133a5,5,0,0,1,5,5v17a5,5,0,0,1,-5,5h-133a5,5,0,0,1,-5,-5v-17a5,5,0,0,1,5,-5z" stroke-width="3"></path><g id="node_text9" fill="black"><text id="kity_text_113" text-rendering="inherit" font-size="12" dy=".8em" y="397.7000063583255" x="1441.500019080937">@PropertySource</text></g><g id="kity_g_187" style="cursor: pointer;"><path id="kity_path_188" fill="none" stroke="none" d="M1551.0000206753612,397.00000638514757h12a2,2,0,0,1,2,2v13a2,2,0,0,1,-2,2h-12a2,2,0,0,1,-2,-2v-13a2,2,0,0,1,2,-2z"></path><path id="kity_path_189" fill="black" stroke="none" d="M1560.000020712614,408.00000628829H1554.000020712614V407.00000628829h6L1560.000020712614,408.00000628829L1560.000020712614,408.00000628829zM1560.000020712614,406.00000628829H1554.000020712614V405.00000628829h6V406.00000628829zM1560.000020712614,404.00000628829H1554.000020712614V403.00000628829h6V404.00000628829zM1559.500020712614,410.00000628829H1553.000020712614V401.00000628829h8v7.5M1560.000020712614,411.00000628829l2,-2V400.00000628829H1552.000020712614v11"></path></g></g><g id="minder_node12"><g id="node_expander9" style="cursor: pointer;" display="none"><path id="kity_path_315" fill="white" stroke="gray" d="M1431.5000188425183,460.50000720471144A6,6,0,1,1,1419.5000188425183,460.50000720471144A6,6,0,1,1,1431.5000188425183,460.50000720471144"></path><path id="kity_path_316" fill="none" stroke="gray"></path></g><path id="node_outline10" fill="none" stroke="none" d="M1436.500019080937,449.50000720471144h115a5,5,0,0,1,5,5v12a5,5,0,0,1,-5,5h-115a5,5,0,0,1,-5,-5v-12a5,5,0,0,1,5,-5z" stroke-width="3"></path><g id="node_text10" fill="black"><text id="kity_text_115" text-rendering="inherit" font-size="12" dy=".8em" y="452.70000717788935" x="1441.500019080937">@ImportResource</text></g></g><g id="minder_node13"><g id="node_expander10" style="cursor: pointer;" display="none"><path id="kity_path_318" fill="white" stroke="gray" d="M1431.5000188425183,515.0000080168247A6,6,0,1,1,1419.5000188425183,515.0000080168247A6,6,0,1,1,1431.5000188425183,515.0000080168247"></path><path id="kity_path_319" fill="none" stroke="gray"></path></g><path id="node_outline11" fill="none" stroke="none" d="M1436.500019080937,501.50000800937414h97a5,5,0,0,1,5,5v17a5,5,0,0,1,-5,5h-97a5,5,0,0,1,-5,-5v-17a5,5,0,0,1,5,-5z" stroke-width="3"></path><g id="node_text11" fill="black"><text id="kity_text_117" text-rendering="inherit" font-size="12" dy=".8em" y="506.70000798255205" x="1441.500019080937">Enviorment</text></g><g id="kity_g_190" style="cursor: pointer;"><path id="kity_path_191" fill="none" stroke="none" d="M1515.0000201389194,506.00000800937414h12a2,2,0,0,1,2,2v13a2,2,0,0,1,-2,2h-12a2,2,0,0,1,-2,-2v-13a2,2,0,0,1,2,-2z"></path><path id="kity_path_192" fill="black" stroke="none" d="M1524.0000201761723,517.0000079125166H1518.0000201761723V516.0000079125166h6L1524.0000201761723,517.0000079125166L1524.0000201761723,517.0000079125166zM1524.0000201761723,515.0000079125166H1518.0000201761723V514.0000079125166h6V515.0000079125166zM1524.0000201761723,513.0000079125166H1518.0000201761723V512.0000079125166h6V513.0000079125166zM1523.5000201761723,519.0000079125166H1517.0000201761723V510.0000079125166h8v7.5M1524.0000201761723,520.0000079125166l2,-2V509.0000079125166H1516.0000201761723v11"></path></g></g><g id="minder_node14"><g id="node_expander19" style="cursor: pointer;"><path id="kity_path_345" fill="white" stroke="gray" d="M1321.5000172033906,714.0000109821558A6,6,0,1,1,1309.5000172033906,714.0000109821558A6,6,0,1,1,1321.5000172033906,714.0000109821558"></path><path id="kity_path_346" fill="none" stroke="gray" d="M1311.0000172033906,714.0000109821558L1320.0000172033906,714.0000109821558"></path></g><path id="node_outline20" fill="none" stroke="none" d="M1326.5000174418092,700.5000109747052h81a5,5,0,0,1,5,5v17a5,5,0,0,1,-5,5h-81a5,5,0,0,1,-5,-5v-17a5,5,0,0,1,5,-5z"></path><g id="node_text20" fill="black"><text id="kity_text_135" text-rendering="inherit" font-size="12" dy=".8em" y="705.7000109478831" x="1331.5000174418092">基本配置</text></g><g id="kity_g_211" style="cursor: pointer;"><path id="kity_path_212" fill="none" stroke="none" d="M1389.000018261373,705.0000109747052h12a2,2,0,0,1,2,2v13a2,2,0,0,1,-2,2h-12a2,2,0,0,1,-2,-2v-13a2,2,0,0,1,2,-2z"></path><path id="kity_path_213" fill="black" stroke="none" d="M1398.000018298626,716.0000108778477H1392.000018298626V715.0000108778477h6L1398.000018298626,716.0000108778477L1398.000018298626,716.0000108778477zM1398.000018298626,714.0000108778477H1392.000018298626V713.0000108778477h6V714.0000108778477zM1398.000018298626,712.0000108778477H1392.000018298626V711.0000108778477h6V712.0000108778477zM1397.500018298626,718.0000108778477H1391.000018298626V709.0000108778477h8v7.5M1398.000018298626,719.0000108778477l2,-2V708.0000108778477H1390.000018298626v11"></path></g></g><g id="minder_node15"><g id="node_expander12" style="cursor: pointer;" display="none"><path id="kity_path_324" fill="white" stroke="gray" d="M1452.5000191554427,572.0000088661909A6,6,0,1,1,1440.5000191554427,572.0000088661909A6,6,0,1,1,1452.5000191554427,572.0000088661909"></path><path id="kity_path_325" fill="none" stroke="gray"></path></g><path id="node_outline13" fill="none" stroke="none" d="M1457.5000193938613,558.5000088587403h69a5,5,0,0,1,5,5v17a5,5,0,0,1,-5,5h-69a5,5,0,0,1,-5,-5v-17a5,5,0,0,1,5,-5z" stroke-width="3"></path><g id="node_text13" fill="black"><text id="kity_text_121" text-rendering="inherit" font-size="12" dy=".8em" y="563.7000088319182" x="1462.5000193938613">入口类</text></g><g id="kity_g_193" style="cursor: pointer;"><path id="kity_path_194" fill="none" stroke="none" d="M1508.0000200346112,563.0000088587403h12a2,2,0,0,1,2,2v13a2,2,0,0,1,-2,2h-12a2,2,0,0,1,-2,-2v-13a2,2,0,0,1,2,-2z"></path><path id="kity_path_195" fill="black" stroke="none" d="M1517.0000200718641,574.0000087618828H1511.0000200718641V573.0000087618828h6L1517.0000200718641,574.0000087618828L1517.0000200718641,574.0000087618828zM1517.0000200718641,572.0000087618828H1511.0000200718641V571.0000087618828h6V572.0000087618828zM1517.0000200718641,570.0000087618828H1511.0000200718641V569.0000087618828h6V570.0000087618828zM1516.5000200718641,576.0000087618828H1510.0000200718641V567.0000087618828h8v7.5M1517.0000200718641,577.0000087618828l2,-2V566.0000087618828H1509.0000200718641v11"></path></g></g><g id="minder_node16"><g id="node_expander13" style="cursor: pointer;" display="none"><path id="kity_path_327" fill="white" stroke="gray" d="M1452.5000191554427,629.0000097155571A6,6,0,1,1,1440.5000191554427,629.0000097155571A6,6,0,1,1,1452.5000191554427,629.0000097155571"></path><path id="kity_path_328" fill="none" stroke="gray"></path></g><path id="node_outline14" fill="none" stroke="none" d="M1457.5000193938613,615.5000097081065h140a5,5,0,0,1,5,5v17a5,5,0,0,1,-5,5h-140a5,5,0,0,1,-5,-5v-17a5,5,0,0,1,5,-5z" stroke-width="3"></path><g id="node_text14" fill="black"><text id="kity_text_123" text-rendering="inherit" font-size="12" dy=".8em" y="620.7000096812844" x="1462.5000193938613">关闭特定的自动配置</text></g><g id="kity_g_196" style="cursor: pointer;"><path id="kity_path_197" fill="none" stroke="none" d="M1579.0000210925937,620.0000097081065h12a2,2,0,0,1,2,2v13a2,2,0,0,1,-2,2h-12a2,2,0,0,1,-2,-2v-13a2,2,0,0,1,2,-2z"></path><path id="kity_path_198" fill="black" stroke="none" d="M1588.0000211298466,631.000009611249H1582.0000211298466V630.000009611249h6L1588.0000211298466,631.000009611249L1588.0000211298466,631.000009611249zM1588.0000211298466,629.000009611249H1582.0000211298466V628.000009611249h6V629.000009611249zM1588.0000211298466,627.000009611249H1582.0000211298466V626.000009611249h6V627.000009611249zM1587.5000211298466,633.000009611249H1581.0000211298466V624.000009611249h8v7.5M1588.0000211298466,634.000009611249l2,-2V623.000009611249H1580.0000211298466v11"></path></g></g><g id="minder_node17"><g id="node_expander17" style="cursor: pointer;"><path id="kity_path_339" fill="white" stroke="gray" d="M1452.5000191554427,742.5000114068389A6,6,0,1,1,1440.5000191554427,742.5000114068389A6,6,0,1,1,1452.5000191554427,742.5000114068389"></path><path id="kity_path_340" fill="none" stroke="gray" d="M1442.0000191554427,742.5000114068389L1451.0000191554427,742.5000114068389"></path></g><path id="node_outline18" fill="none" stroke="none" d="M1457.5000193938613,731.5000114068389h75a5,5,0,0,1,5,5v12a5,5,0,0,1,-5,5h-75a5,5,0,0,1,-5,-5v-12a5,5,0,0,1,5,-5z"></path><g id="node_text18" fill="black"><text id="kity_text_131" text-rendering="inherit" font-size="12" dy=".8em" y="734.7000113800168" x="1462.5000193938613">定制Banner</text></g></g><g id="minder_node18"><g id="node_expander14" style="cursor: pointer;" display="none"><path id="kity_path_330" fill="white" stroke="gray" d="M1577.5000210180879,686.0000105649233A6,6,0,1,1,1565.5000210180879,686.0000105649233A6,6,0,1,1,1577.5000210180879,686.0000105649233"></path><path id="kity_path_331" fill="none" stroke="gray"></path></g><path id="node_outline15" fill="none" stroke="none" d="M1582.5000212565064,672.5000105574727h96a5,5,0,0,1,5,5v17a5,5,0,0,1,-5,5h-96a5,5,0,0,1,-5,-5v-17a5,5,0,0,1,5,-5z" stroke-width="3"></path><g id="node_text15" fill="black"><text id="kity_text_125" text-rendering="inherit" font-size="12" dy=".8em" y="677.7000105306506" x="1587.5000212565064">修改Banner</text></g><g id="kity_g_199" style="cursor: pointer;"><path id="kity_path_200" fill="none" stroke="none" d="M1660.0000222995877,677.0000105574727h12a2,2,0,0,1,2,2v13a2,2,0,0,1,-2,2h-12a2,2,0,0,1,-2,-2v-13a2,2,0,0,1,2,-2z"></path><path id="kity_path_201" fill="black" stroke="none" d="M1669.0000223368406,688.0000104606152H1663.0000223368406V687.0000104606152h6L1669.0000223368406,688.0000104606152L1669.0000223368406,688.0000104606152zM1669.0000223368406,686.0000104606152H1663.0000223368406V685.0000104606152h6V686.0000104606152zM1669.0000223368406,684.0000104606152H1663.0000223368406V683.0000104606152h6V684.0000104606152zM1668.5000223368406,690.0000104606152H1662.0000223368406V681.0000104606152h8v7.5M1669.0000223368406,691.0000104606152l2,-2V680.0000104606152H1661.0000223368406v11"></path></g></g><g id="minder_node19"><g id="node_expander15" style="cursor: pointer;" display="none"><path id="kity_path_333" fill="white" stroke="gray" d="M1577.5000210180879,743.0000114142895A6,6,0,1,1,1565.5000210180879,743.0000114142895A6,6,0,1,1,1577.5000210180879,743.0000114142895"></path><path id="kity_path_334" fill="none" stroke="gray"></path></g><path id="node_outline16" fill="none" stroke="none" d="M1582.5000212565064,729.5000114068389h96a5,5,0,0,1,5,5v17a5,5,0,0,1,-5,5h-96a5,5,0,0,1,-5,-5v-17a5,5,0,0,1,5,-5z" stroke-width="3"></path><g id="node_text16" fill="black"><text id="kity_text_127" text-rendering="inherit" font-size="12" dy=".8em" y="734.7000113800168" x="1587.5000212565064">关闭Banner</text></g><g id="kity_g_202" style="cursor: pointer;"><path id="kity_path_203" fill="none" stroke="none" d="M1660.0000222995877,734.0000114068389h12a2,2,0,0,1,2,2v13a2,2,0,0,1,-2,2h-12a2,2,0,0,1,-2,-2v-13a2,2,0,0,1,2,-2z"></path><path id="kity_path_204" fill="black" stroke="none" d="M1669.0000223368406,745.0000113099813H1663.0000223368406V744.0000113099813h6L1669.0000223368406,745.0000113099813L1669.0000223368406,745.0000113099813zM1669.0000223368406,743.0000113099813H1663.0000223368406V742.0000113099813h6V743.0000113099813zM1669.0000223368406,741.0000113099813H1663.0000223368406V740.0000113099813h6V741.0000113099813zM1668.5000223368406,747.0000113099813H1662.0000223368406V738.0000113099813h8v7.5M1669.0000223368406,748.0000113099813l2,-2V737.0000113099813H1661.0000223368406v11"></path></g></g><g id="minder_node20"><g id="node_expander16" style="cursor: pointer;" display="none"><path id="kity_path_336" fill="white" stroke="gray" d="M1577.5000210180879,800.0000122636557A6,6,0,1,1,1565.5000210180879,800.0000122636557A6,6,0,1,1,1577.5000210180879,800.0000122636557"></path><path id="kity_path_337" fill="none" stroke="gray"></path></g><path id="node_outline17" fill="none" stroke="none" d="M1582.5000212565064,786.5000122562051h132a5,5,0,0,1,5,5v17a5,5,0,0,1,-5,5h-132a5,5,0,0,1,-5,-5v-17a5,5,0,0,1,5,-5z" stroke-width="3"></path><g id="node_text17" fill="black"><text id="kity_text_129" text-rendering="inherit" font-size="12" dy=".8em" y="791.700012229383" x="1587.5000212565064">SpringBoot的配置</text></g><g id="kity_g_205" style="cursor: pointer;"><path id="kity_path_206" fill="none" stroke="none" d="M1696.0000228360295,791.0000122562051h12a2,2,0,0,1,2,2v13a2,2,0,0,1,-2,2h-12a2,2,0,0,1,-2,-2v-13a2,2,0,0,1,2,-2z"></path><path id="kity_path_207" fill="black" stroke="none" d="M1705.0000228732824,802.0000121593475H1699.0000228732824V801.0000121593475h6L1705.0000228732824,802.0000121593475L1705.0000228732824,802.0000121593475zM1705.0000228732824,800.0000121593475H1699.0000228732824V799.0000121593475h6V800.0000121593475zM1705.0000228732824,798.0000121593475H1699.0000228732824V797.0000121593475h6V798.0000121593475zM1704.5000228732824,804.0000121593475H1698.0000228732824V795.0000121593475h8v7.5M1705.0000228732824,805.0000121593475l2,-2V794.0000121593475H1697.0000228732824v11"></path></g></g><g id="minder_node21"><g id="node_expander18" style="cursor: pointer;" display="none"><path id="kity_path_342" fill="white" stroke="gray" d="M1452.5000191554427,857.0000131130219A6,6,0,1,1,1440.5000191554427,857.0000131130219A6,6,0,1,1,1452.5000191554427,857.0000131130219"></path><path id="kity_path_343" fill="none" stroke="gray"></path></g><path id="node_outline19" fill="none" stroke="none" d="M1457.5000193938613,843.5000131055713h98a5,5,0,0,1,5,5v17a5,5,0,0,1,-5,5h-98a5,5,0,0,1,-5,-5v-17a5,5,0,0,1,5,-5z" stroke-width="3"></path><g id="node_text19" fill="black"><text id="kity_text_133" text-rendering="inherit" font-size="12" dy=".8em" y="848.7000130787492" x="1462.5000193938613">starter pom</text></g><g id="kity_g_208" style="cursor: pointer;"><path id="kity_path_209" fill="none" stroke="none" d="M1537.000020466745,848.0000131055713h12a2,2,0,0,1,2,2v13a2,2,0,0,1,-2,2h-12a2,2,0,0,1,-2,-2v-13a2,2,0,0,1,2,-2z"></path><path id="kity_path_210" fill="black" stroke="none" d="M1546.0000205039978,859.0000130087137H1540.0000205039978V858.0000130087137h6L1546.0000205039978,859.0000130087137L1546.0000205039978,859.0000130087137zM1546.0000205039978,857.0000130087137H1540.0000205039978V856.0000130087137h6V857.0000130087137zM1546.0000205039978,855.0000130087137H1540.0000205039978V854.0000130087137h6V855.0000130087137zM1545.5000205039978,861.0000130087137H1539.0000205039978V852.0000130087137h8v7.5M1546.0000205039978,862.0000130087137l2,-2V851.0000130087137H1538.0000205039978v11"></path></g></g><g id="minder_node22"><g id="node_expander24" style="cursor: pointer;"><path id="kity_path_360" fill="white" stroke="gray" d="M1321.5000172033906,955.0000145733356A6,6,0,1,1,1309.5000172033906,955.0000145733356A6,6,0,1,1,1321.5000172033906,955.0000145733356"></path><path id="kity_path_361" fill="none" stroke="gray" d="M1311.0000172033906,955.0000145733356L1320.0000172033906,955.0000145733356"></path></g><path id="node_outline25" fill="none" stroke="none" d="M1326.5000174418092,941.5000145658851h81a5,5,0,0,1,5,5v17a5,5,0,0,1,-5,5h-81a5,5,0,0,1,-5,-5v-17a5,5,0,0,1,5,-5z"></path><g id="node_text25" fill="black"><text id="kity_text_145" text-rendering="inherit" font-size="12" dy=".8em" y="946.700014539063" x="1331.5000174418092">外部配置</text></g><g id="kity_g_223" style="cursor: pointer;"><path id="kity_path_224" fill="none" stroke="none" d="M1389.000018261373,946.0000145658851h12a2,2,0,0,1,2,2v13a2,2,0,0,1,-2,2h-12a2,2,0,0,1,-2,-2v-13a2,2,0,0,1,2,-2z"></path><path id="kity_path_225" fill="black" stroke="none" d="M1398.000018298626,957.0000144690275H1392.000018298626V956.0000144690275h6L1398.000018298626,957.0000144690275L1398.000018298626,957.0000144690275zM1398.000018298626,955.0000144690275H1392.000018298626V954.0000144690275h6V955.0000144690275zM1398.000018298626,953.0000144690275H1392.000018298626V952.0000144690275h6V953.0000144690275zM1397.500018298626,959.0000144690275H1391.000018298626V950.0000144690275h8v7.5M1398.000018298626,960.0000144690275l2,-2V949.0000144690275H1390.000018298626v11"></path></g></g><g id="minder_node23"><g id="node_expander20" style="cursor: pointer;" display="none"><path id="kity_path_348" fill="white" stroke="gray" d="M1452.5000191554427,914.000013962388A6,6,0,1,1,1440.5000191554427,914.000013962388A6,6,0,1,1,1452.5000191554427,914.000013962388"></path><path id="kity_path_349" fill="none" stroke="gray"></path></g><path id="node_outline21" fill="none" stroke="none" d="M1457.5000193938613,900.5000139549375h117a5,5,0,0,1,5,5v17a5,5,0,0,1,-5,5h-117a5,5,0,0,1,-5,-5v-17a5,5,0,0,1,5,-5z" stroke-width="3"></path><g id="node_text21" fill="black"><text id="kity_text_137" text-rendering="inherit" font-size="12" dy=".8em" y="905.7000139281154" x="1462.5000193938613">命令行参数配置</text></g><g id="kity_g_214" style="cursor: pointer;"><path id="kity_path_215" fill="none" stroke="none" d="M1556.000020749867,905.0000139549375h12a2,2,0,0,1,2,2v13a2,2,0,0,1,-2,2h-12a2,2,0,0,1,-2,-2v-13a2,2,0,0,1,2,-2z"></path><path id="kity_path_216" fill="black" stroke="none" d="M1565.0000207871199,916.0000138580799H1559.0000207871199V915.0000138580799h6L1565.0000207871199,916.0000138580799L1565.0000207871199,916.0000138580799zM1565.0000207871199,914.0000138580799H1559.0000207871199V913.0000138580799h6V914.0000138580799zM1565.0000207871199,912.0000138580799H1559.0000207871199V911.0000138580799h6V912.0000138580799zM1564.5000207871199,918.0000138580799H1558.0000207871199V909.0000138580799h8v7.5M1565.0000207871199,919.0000138580799l2,-2V908.0000138580799H1557.0000207871199v11"></path></g></g><g id="minder_node24"><g id="node_expander23" style="cursor: pointer;"><path id="kity_path_357" fill="white" stroke="gray" d="M1452.5000191554427,999.5000152364373A6,6,0,1,1,1440.5000191554427,999.5000152364373A6,6,0,1,1,1452.5000191554427,999.5000152364373"></path><path id="kity_path_358" fill="none" stroke="gray" d="M1442.0000191554427,999.5000152364373L1451.0000191554427,999.5000152364373"></path></g><path id="node_outline24" fill="none" stroke="none" d="M1457.5000193938613,988.5000152364373h60a5,5,0,0,1,5,5v12a5,5,0,0,1,-5,5h-60a5,5,0,0,1,-5,-5v-12a5,5,0,0,1,5,-5z" stroke-width="3"></path><g id="node_text24" fill="black"><text id="kity_text_143" text-rendering="inherit" font-size="12" dy=".8em" y="991.7000152096152" x="1462.5000193938613">属性配置</text></g></g><g id="minder_node25"><g id="node_expander21" style="cursor: pointer;" display="none"><path id="kity_path_351" fill="white" stroke="gray" d="M1562.5000207945704,971.0000148117542A6,6,0,1,1,1550.5000207945704,971.0000148117542A6,6,0,1,1,1562.5000207945704,971.0000148117542"></path><path id="kity_path_352" fill="none" stroke="gray"></path></g><path id="node_outline22" fill="none" stroke="none" d="M1567.500021032989,957.5000148043036h104a5,5,0,0,1,5,5v17a5,5,0,0,1,-5,5h-104a5,5,0,0,1,-5,-5v-17a5,5,0,0,1,5,-5z" stroke-width="3"></path><g id="node_text22" fill="black"><text id="kity_text_139" text-rendering="inherit" font-size="12" dy=".8em" y="962.7000147774816" x="1572.500021032989">常规属性配置</text></g><g id="kity_g_217" style="cursor: pointer;"><path id="kity_path_218" fill="none" stroke="none" d="M1653.0000221952796,962.0000148043036h12a2,2,0,0,1,2,2v13a2,2,0,0,1,-2,2h-12a2,2,0,0,1,-2,-2v-13a2,2,0,0,1,2,-2z"></path><path id="kity_path_219" fill="black" stroke="none" d="M1662.0000222325325,973.0000147074461H1656.0000222325325V972.0000147074461h6L1662.0000222325325,973.0000147074461L1662.0000222325325,973.0000147074461zM1662.0000222325325,971.0000147074461H1656.0000222325325V970.0000147074461h6V971.0000147074461zM1662.0000222325325,969.0000147074461H1656.0000222325325V968.0000147074461h6V969.0000147074461zM1661.5000222325325,975.0000147074461H1655.0000222325325V966.0000147074461h8v7.5M1662.0000222325325,976.0000147074461l2,-2V965.0000147074461H1654.0000222325325v11"></path></g></g><g id="minder_node26"><g id="node_expander22" style="cursor: pointer;" display="none"><path id="kity_path_354" fill="white" stroke="gray" d="M1562.5000207945704,1028.0000156611204A6,6,0,1,1,1550.5000207945704,1028.0000156611204A6,6,0,1,1,1562.5000207945704,1028.0000156611204"></path><path id="kity_path_355" fill="none" stroke="gray"></path></g><path id="node_outline23" fill="none" stroke="none" d="M1567.500021032989,1014.5000156536698h117a5,5,0,0,1,5,5v17a5,5,0,0,1,-5,5h-117a5,5,0,0,1,-5,-5v-17a5,5,0,0,1,5,-5z" stroke-width="3"></path><g id="node_text23" fill="black"><text id="kity_text_141" text-rendering="inherit" font-size="12" dy=".8em" y="1019.7000156268477" x="1572.500021032989">类型安全的配置</text></g><g id="kity_g_220" style="cursor: pointer;"><path id="kity_path_221" fill="none" stroke="none" d="M1666.0000223889947,1019.0000156536698h12a2,2,0,0,1,2,2v13a2,2,0,0,1,-2,2h-12a2,2,0,0,1,-2,-2v-13a2,2,0,0,1,2,-2z"></path><path id="kity_path_222" fill="black" stroke="none" d="M1675.0000224262476,1030.0000155568123H1669.0000224262476V1029.0000155568123h6L1675.0000224262476,1030.0000155568123L1675.0000224262476,1030.0000155568123zM1675.0000224262476,1028.0000155568123H1669.0000224262476V1027.0000155568123h6V1028.0000155568123zM1675.0000224262476,1026.0000155568123H1669.0000224262476V1025.0000155568123h6V1026.0000155568123zM1674.5000224262476,1032.0000155568123H1668.0000224262476V1023.0000155568123h8v7.5M1675.0000224262476,1033.0000155568123l2,-2V1022.0000155568123H1667.0000224262476v11"></path></g></g><g id="minder_node27"><g id="node_expander25" style="cursor: pointer;" display="none"><path id="kity_path_363" fill="white" stroke="gray" d="M1321.5000172033906,1085.0000165104866A6,6,0,1,1,1309.5000172033906,1085.0000165104866A6,6,0,1,1,1321.5000172033906,1085.0000165104866"></path><path id="kity_path_364" fill="none" stroke="gray"></path></g><path id="node_outline26" fill="none" stroke="none" d="M1326.5000174418092,1071.500016503036h80a5,5,0,0,1,5,5v17a5,5,0,0,1,-5,5h-80a5,5,0,0,1,-5,-5v-17a5,5,0,0,1,5,-5z" stroke-width="3"></path><g id="node_text26" fill="black"><text id="kity_text_147" text-rendering="inherit" font-size="12" dy=".8em" y="1076.700016476214" x="1331.5000174418092">日志配置</text></g><g id="kity_g_226" style="cursor: pointer;"><path id="kity_path_227" fill="none" stroke="none" d="M1388.0000182464719,1076.000016503036h12a2,2,0,0,1,2,2v13a2,2,0,0,1,-2,2h-12a2,2,0,0,1,-2,-2v-13a2,2,0,0,1,2,-2z"></path><path id="kity_path_228" fill="black" stroke="none" d="M1397.0000182837248,1087.0000164061785H1391.0000182837248V1086.0000164061785h6L1397.0000182837248,1087.0000164061785L1397.0000182837248,1087.0000164061785zM1397.0000182837248,1085.0000164061785H1391.0000182837248V1084.0000164061785h6V1085.0000164061785zM1397.0000182837248,1083.0000164061785H1391.0000182837248V1082.0000164061785h6V1083.0000164061785zM1396.5000182837248,1089.0000164061785H1390.0000182837248V1080.0000164061785h8v7.5M1397.0000182837248,1090.0000164061785l2,-2V1079.0000164061785H1389.0000182837248v11"></path></g></g><g id="minder_node28"><g id="node_expander26" style="cursor: pointer;" display="none"><path id="kity_path_366" fill="white" stroke="gray" d="M1321.5000172033906,1142.0000173598528A6,6,0,1,1,1309.5000172033906,1142.0000173598528A6,6,0,1,1,1321.5000172033906,1142.0000173598528"></path><path id="kity_path_367" fill="none" stroke="gray"></path></g><path id="node_outline27" fill="none" stroke="none" d="M1326.5000174418092,1128.5000173524022h93a5,5,0,0,1,5,5v17a5,5,0,0,1,-5,5h-93a5,5,0,0,1,-5,-5v-17a5,5,0,0,1,5,-5z" stroke-width="3"></path><g id="node_text27" fill="black"><text id="kity_text_149" text-rendering="inherit" font-size="12" dy=".8em" y="1133.7000173255801" x="1331.5000174418092">Profile配置</text></g><g id="kity_g_229" style="cursor: pointer;"><path id="kity_path_230" fill="none" stroke="none" d="M1401.000018440187,1133.0000173524022h12a2,2,0,0,1,2,2v13a2,2,0,0,1,-2,2h-12a2,2,0,0,1,-2,-2v-13a2,2,0,0,1,2,-2z"></path><path id="kity_path_231" fill="black" stroke="none" d="M1410.0000184774399,1144.0000172555447H1404.0000184774399V1143.0000172555447h6L1410.0000184774399,1144.0000172555447L1410.0000184774399,1144.0000172555447zM1410.0000184774399,1142.0000172555447H1404.0000184774399V1141.0000172555447h6V1142.0000172555447zM1410.0000184774399,1140.0000172555447H1404.0000184774399V1139.0000172555447h6V1140.0000172555447zM1409.5000184774399,1146.0000172555447H1403.0000184774399V1137.0000172555447h8v7.5M1410.0000184774399,1147.0000172555447l2,-2V1136.0000172555447H1402.0000184774399v11"></path></g></g><g id="minder_node29"><g id="node_expander34" style="cursor: pointer;"><path id="kity_path_390" fill="white" stroke="gray" d="M749.5000086799264,176.00000296533108A6,6,0,1,1,737.5000086799264,176.00000296533108A6,6,0,1,1,749.5000086799264,176.00000296533108"></path><path id="kity_path_391" fill="none" stroke="gray" d="M739.0000086799264,176.00000296533108L748.0000086799264,176.00000296533108"></path></g><path id="node_outline35" fill="rgb(238, 243, 246)" stroke="rgb(115, 161, 191)" d="M573.5000064000487,161.5000029578805h160a3,3,0,0,1,3,3v23a3,3,0,0,1,-3,3h-160a3,3,0,0,1,-3,-3v-23a3,3,0,0,1,3,-3z" stroke-width="1"></path><g id="node_text35" fill="black"><text id="kity_text_165" text-rendering="inherit" font-size="14" dy=".8em" y="166.40000292658806" x="590.5000064000487">SpringBoot特性</text></g><g id="kity_g_250" style="cursor: pointer;"><path id="kity_path_251" fill="none" stroke="none" d="M703.0000080391765,167.0000029578805h12a2,2,0,0,1,2,2v13a2,2,0,0,1,-2,2h-12a2,2,0,0,1,-2,-2v-13a2,2,0,0,1,2,-2z"></path><path id="kity_path_252" fill="black" stroke="none" d="M712.0000080764294,178.00000286102295H706.0000080764294V177.00000286102295h6L712.0000080764294,178.00000286102295L712.0000080764294,178.00000286102295zM712.0000080764294,176.00000286102295H706.0000080764294V175.00000286102295h6V176.00000286102295zM712.0000080764294,174.00000286102295H706.0000080764294V173.00000286102295h6V174.00000286102295zM711.5000080764294,180.00000286102295H705.0000080764294V171.00000286102295h8v7.5M712.0000080764294,181.00000286102295l2,-2V170.00000286102295H704.0000080764294v11"></path></g></g><g id="minder_node30"><g id="node_expander28" style="cursor: pointer;" display="none"><path id="kity_path_372" fill="white" stroke="gray" d="M542.500005595386,34.00000084936619A6,6,0,1,1,530.500005595386,34.00000084936619A6,6,0,1,1,542.500005595386,34.00000084936619"></path><path id="kity_path_373" fill="none" stroke="gray"></path></g><path id="node_outline29" fill="none" stroke="none" d="M421.5000039562583,20.500000841915607h104a5,5,0,0,1,5,5v17a5,5,0,0,1,-5,5h-104a5,5,0,0,1,-5,-5v-17a5,5,0,0,1,5,-5z"></path><g id="node_text29" fill="black"><text id="kity_text_153" text-rendering="inherit" font-size="12" dy=".8em" y="25.700000815093517" x="426.5000039562583">自动管理依赖</text></g><g id="kity_g_232" style="cursor: pointer;"><path id="kity_path_233" fill="none" stroke="none" d="M507.00000511854887,25.000000841915607h12a2,2,0,0,1,2,2v13a2,2,0,0,1,-2,2h-12a2,2,0,0,1,-2,-2v-13a2,2,0,0,1,2,-2z"></path><path id="kity_path_234" fill="black" stroke="none" d="M516.0000051558018,36.00000074505806H510.0000051558018V35.00000074505806h6L516.0000051558018,36.00000074505806L516.0000051558018,36.00000074505806zM516.0000051558018,34.00000074505806H510.0000051558018V33.00000074505806h6V34.00000074505806zM516.0000051558018,32.00000074505806H510.0000051558018V31.00000074505806h6V32.00000074505806zM515.5000051558018,38.00000074505806H509.0000051558018V29.00000074505806h8v7.5M516.0000051558018,39.00000074505806l2,-2V28.00000074505806H508.0000051558018v11"></path></g></g><g id="minder_node31"><g id="node_expander29" style="cursor: pointer;" display="none"><path id="kity_path_375" fill="white" stroke="gray" d="M542.500005595386,91.00000169873238A6,6,0,1,1,530.500005595386,91.00000169873238A6,6,0,1,1,542.500005595386,91.00000169873238"></path><path id="kity_path_376" fill="none" stroke="gray"></path></g><path id="node_outline30" fill="none" stroke="none" d="M444.500004298985,77.5000016912818h81a5,5,0,0,1,5,5v17a5,5,0,0,1,-5,5h-81a5,5,0,0,1,-5,-5v-17a5,5,0,0,1,5,-5z" stroke-width="3"></path><g id="node_text30" fill="black"><text id="kity_text_155" text-rendering="inherit" font-size="12" dy=".8em" y="82.7000016644597" x="449.500004298985">独立运行</text></g><g id="kity_g_235" style="cursor: pointer;"><path id="kity_path_236" fill="none" stroke="none" d="M507.00000511854887,82.0000016912818h12a2,2,0,0,1,2,2v13a2,2,0,0,1,-2,2h-12a2,2,0,0,1,-2,-2v-13a2,2,0,0,1,2,-2z"></path><path id="kity_path_237" fill="black" stroke="none" d="M516.0000051558018,93.00000159442425H510.0000051558018V92.00000159442425h6L516.0000051558018,93.00000159442425L516.0000051558018,93.00000159442425zM516.0000051558018,91.00000159442425H510.0000051558018V90.00000159442425h6V91.00000159442425zM516.0000051558018,89.00000159442425H510.0000051558018V88.00000159442425h6V89.00000159442425zM515.5000051558018,95.00000159442425H509.0000051558018V86.00000159442425h8v7.5M516.0000051558018,96.00000159442425l2,-2V85.00000159442425H508.0000051558018v11"></path></g></g><g id="minder_node32"><g id="node_expander30" style="cursor: pointer;" display="none"><path id="kity_path_378" fill="white" stroke="gray" d="M542.500005595386,148.00000254809856A6,6,0,1,1,530.500005595386,148.00000254809856A6,6,0,1,1,542.500005595386,148.00000254809856"></path><path id="kity_path_379" fill="none" stroke="gray"></path></g><path id="node_outline31" fill="none" stroke="none" d="M445.50000431388617,134.50000254064798h80a5,5,0,0,1,5,5v17a5,5,0,0,1,-5,5h-80a5,5,0,0,1,-5,-5v-17a5,5,0,0,1,5,-5z" stroke-width="3"></path><g id="node_text31" fill="black"><text id="kity_text_157" text-rendering="inherit" font-size="12" dy=".8em" y="139.7000025138259" x="450.50000431388617">自动配置</text></g><g id="kity_g_238" style="cursor: pointer;"><path id="kity_path_239" fill="none" stroke="none" d="M507.00000511854887,139.00000254064798h12a2,2,0,0,1,2,2v13a2,2,0,0,1,-2,2h-12a2,2,0,0,1,-2,-2v-13a2,2,0,0,1,2,-2z"></path><path id="kity_path_240" fill="black" stroke="none" d="M516.0000051558018,150.00000244379044H510.0000051558018V149.00000244379044h6L516.0000051558018,150.00000244379044L516.0000051558018,150.00000244379044zM516.0000051558018,148.00000244379044H510.0000051558018V147.00000244379044h6V148.00000244379044zM516.0000051558018,146.00000244379044H510.0000051558018V145.00000244379044h6V146.00000244379044zM515.5000051558018,152.00000244379044H509.0000051558018V143.00000244379044h8v7.5M516.0000051558018,153.00000244379044l2,-2V142.00000244379044H508.0000051558018v11"></path></g></g><g id="minder_node33"><g id="node_expander31" style="cursor: pointer;" display="none"><path id="kity_path_381" fill="white" stroke="gray" d="M542.500005595386,205.00000339746475A6,6,0,1,1,530.500005595386,205.00000339746475A6,6,0,1,1,542.500005595386,205.00000339746475"></path><path id="kity_path_382" fill="none" stroke="gray"></path></g><path id="node_outline32" fill="none" stroke="none" d="M432.50000412017107,191.50000339001417h93a5,5,0,0,1,5,5v17a5,5,0,0,1,-5,5h-93a5,5,0,0,1,-5,-5v-17a5,5,0,0,1,5,-5z" stroke-width="3"></path><g id="node_text32" fill="black"><text id="kity_text_159" text-rendering="inherit" font-size="12" dy=".8em" y="196.70000336319208" x="437.50000412017107">外部化配置</text></g><g id="kity_g_241" style="cursor: pointer;"><path id="kity_path_242" fill="none" stroke="none" d="M507.00000511854887,196.00000339001417h12a2,2,0,0,1,2,2v13a2,2,0,0,1,-2,2h-12a2,2,0,0,1,-2,-2v-13a2,2,0,0,1,2,-2z"></path><path id="kity_path_243" fill="black" stroke="none" d="M516.0000051558018,207.00000329315662H510.0000051558018V206.00000329315662h6L516.0000051558018,207.00000329315662L516.0000051558018,207.00000329315662zM516.0000051558018,205.00000329315662H510.0000051558018V204.00000329315662h6V205.00000329315662zM516.0000051558018,203.00000329315662H510.0000051558018V202.00000329315662h6V203.00000329315662zM515.5000051558018,209.00000329315662H509.0000051558018V200.00000329315662h8v7.5M516.0000051558018,210.00000329315662l2,-2V199.00000329315662H508.0000051558018v11"></path></g></g><g id="minder_node34"><g id="node_expander32" style="cursor: pointer;" display="none"><path id="kity_path_384" fill="white" stroke="gray" d="M542.500005595386,262.00000424683094A6,6,0,1,1,530.500005595386,262.00000424683094A6,6,0,1,1,542.500005595386,262.00000424683094"></path><path id="kity_path_385" fill="none" stroke="gray"></path></g><path id="node_outline33" fill="none" stroke="none" d="M395.5000035688281,248.50000423938036h130a5,5,0,0,1,5,5v17a5,5,0,0,1,-5,5h-130a5,5,0,0,1,-5,-5v-17a5,5,0,0,1,5,-5z" stroke-width="3"></path><g id="node_text33" fill="black"><text id="kity_text_161" text-rendering="inherit" font-size="12" dy=".8em" y="253.70000421255827" x="400.5000035688281">嵌入式servlet容器</text></g><g id="kity_g_244" style="cursor: pointer;"><path id="kity_path_245" fill="none" stroke="none" d="M507.00000511854887,253.00000423938036h12a2,2,0,0,1,2,2v13a2,2,0,0,1,-2,2h-12a2,2,0,0,1,-2,-2v-13a2,2,0,0,1,2,-2z"></path><path id="kity_path_246" fill="black" stroke="none" d="M516.0000051558018,264.0000041425228H510.0000051558018V263.0000041425228h6L516.0000051558018,264.0000041425228L516.0000051558018,264.0000041425228zM516.0000051558018,262.0000041425228H510.0000051558018V261.0000041425228h6V262.0000041425228zM516.0000051558018,260.0000041425228H510.0000051558018V259.0000041425228h6V260.0000041425228zM515.5000051558018,266.0000041425228H509.0000051558018V257.0000041425228h8v7.5M516.0000051558018,267.0000041425228l2,-2V256.0000041425228H508.0000051558018v11"></path></g></g><g id="minder_node35"><g id="node_expander33" style="cursor: pointer;" display="none"><path id="kity_path_387" fill="white" stroke="gray" d="M542.500005595386,319.0000050961971A6,6,0,1,1,530.500005595386,319.0000050961971A6,6,0,1,1,542.500005595386,319.0000050961971"></path><path id="kity_path_388" fill="none" stroke="gray"></path></g><path id="node_outline34" fill="none" stroke="none" d="M397.5000035986304,305.50000508874655h128a5,5,0,0,1,5,5v17a5,5,0,0,1,-5,5h-128a5,5,0,0,1,-5,-5v-17a5,5,0,0,1,5,-5z" stroke-width="3"></path><g id="node_text34" fill="black"><text id="kity_text_163" text-rendering="inherit" font-size="12" dy=".8em" y="310.70000506192446" x="402.5000035986304">准生产的应用监控</text></g><g id="kity_g_247" style="cursor: pointer;"><path id="kity_path_248" fill="none" stroke="none" d="M507.00000511854887,310.00000508874655h12a2,2,0,0,1,2,2v13a2,2,0,0,1,-2,2h-12a2,2,0,0,1,-2,-2v-13a2,2,0,0,1,2,-2z"></path><path id="kity_path_249" fill="black" stroke="none" d="M516.0000051558018,321.000004991889H510.0000051558018V320.000004991889h6L516.0000051558018,321.000004991889L516.0000051558018,321.000004991889zM516.0000051558018,319.000004991889H510.0000051558018V318.000004991889h6V319.000004991889zM516.0000051558018,317.000004991889H510.0000051558018V316.000004991889h6V317.000004991889zM515.5000051558018,323.000004991889H509.0000051558018V314.000004991889h8v7.5M516.0000051558018,324.000004991889l2,-2V313.000004991889H508.0000051558018v11"></path></g></g><g id="minder_node36" opacity="1"><g id="node_expander35" style="cursor: pointer;"><path id="kity_path_398" fill="white" stroke="gray" d="M749.5000086799264,693.500010676682A6,6,0,1,1,737.5000086799264,693.500010676682A6,6,0,1,1,749.5000086799264,693.500010676682"></path><path id="kity_path_399" fill="none" stroke="gray" d="M739.0000086799264,693.500010676682L748.0000086799264,693.500010676682"></path></g><path id="node_outline36" fill="rgb(238, 243, 246)" stroke="rgb(115, 161, 191)" d="M594.5000067129731,680.500010676682h139a3,3,0,0,1,3,3v20a3,3,0,0,1,-3,3h-139a3,3,0,0,1,-3,-3v-20a3,3,0,0,1,3,-3z" stroke-width="1"></path><g id="node_text36" fill="black"><text id="kity_text_395" text-rendering="inherit" font-size="14" dy=".8em" y="684.4000106453896" x="611.5000067129731">SpringBoot实战</text></g></g><g id="kity_g_12" display="none"><path id="kity_path_13" fill="none" stroke="rgb(66, 94, 112)" d="M861.5000107213855,413.5000068023801h151a5,5,0,0,1,5,5v31a5,5,0,0,1,-5,5h-151a5,5,0,0,1,-5,-5v-31a5,5,0,0,1,5,-5z" stroke-width="5"></path></g><g id="minder_node39"><g id="node_expander38" style="cursor: pointer;" display="none"><path id="kity_path_429" fill="white" stroke="gray" d="M466.5000044628978,386.0000060945749A6,6,0,1,1,454.5000044628978,386.0000060945749A6,6,0,1,1,466.5000044628978,386.0000060945749"></path><path id="kity_path_430" fill="none" stroke="gray"></path></g><path id="node_outline39" fill="none" stroke="none" d="M320.500002451241,372.50000608712435h129a5,5,0,0,1,5,5v17a5,5,0,0,1,-5,5h-129a5,5,0,0,1,-5,-5v-17a5,5,0,0,1,5,-5z" stroke-width="3"></path><g id="node_text39" fill="black"><text id="kity_text_423" text-rendering="inherit" font-size="12" dy=".8em" y="377.70000606030226" x="325.500002451241">默认数据库连接池</text></g><g id="kity_g_424" style="cursor: pointer;"><path id="kity_path_425" fill="none" stroke="none" d="M431.0000039860606,377.00000608712435h12a2,2,0,0,1,2,2v13a2,2,0,0,1,-2,2h-12a2,2,0,0,1,-2,-2v-13a2,2,0,0,1,2,-2z"></path><path id="kity_path_426" fill="black" stroke="none" d="M440.0000040233135,388.0000059902668H434.0000040233135V387.0000059902668h6L440.0000040233135,388.0000059902668L440.0000040233135,388.0000059902668zM440.0000040233135,386.0000059902668H434.0000040233135V385.0000059902668h6V386.0000059902668zM440.0000040233135,384.0000059902668H434.0000040233135V383.0000059902668h6V384.0000059902668zM439.5000040233135,390.0000059902668H433.0000040233135V381.0000059902668h8v7.5M440.0000040233135,391.0000059902668l2,-2V380.0000059902668H432.0000040233135v11"></path></g></g><g id="minder_node41"><g id="node_expander40" style="cursor: pointer;" display="none"><path id="kity_path_445" fill="white" stroke="gray" d="M466.5000044628978,443.0000069439411A6,6,0,1,1,454.5000044628978,443.0000069439411A6,6,0,1,1,466.5000044628978,443.0000069439411"></path><path id="kity_path_446" fill="none" stroke="gray"></path></g><path id="node_outline41" fill="none" stroke="none" d="M342.50000277906656,429.50000693649054h107a5,5,0,0,1,5,5v17a5,5,0,0,1,-5,5h-107a5,5,0,0,1,-5,-5v-17a5,5,0,0,1,5,-5z" stroke-width="3"></path><g id="node_text41" fill="black"><text id="kity_text_442" text-rendering="inherit" font-size="12" dy=".8em" y="434.70000690966845" x="347.50000277906656">NoSQL数据库</text></g><g id="kity_g_447" style="cursor: pointer;"><path id="kity_path_448" fill="none" stroke="none" d="M431.0000039860606,434.00000693649054h12a2,2,0,0,1,2,2v13a2,2,0,0,1,-2,2h-12a2,2,0,0,1,-2,-2v-13a2,2,0,0,1,2,-2z"></path><path id="kity_path_449" fill="black" stroke="none" d="M440.0000040233135,445.000006839633H434.0000040233135V444.000006839633h6L440.0000040233135,445.000006839633L440.0000040233135,445.000006839633zM440.0000040233135,443.000006839633H434.0000040233135V442.000006839633h6V443.000006839633zM440.0000040233135,441.000006839633H434.0000040233135V440.000006839633h6V441.000006839633zM439.5000040233135,447.000006839633H433.0000040233135V438.000006839633h8v7.5M440.0000040233135,448.000006839633l2,-2V437.000006839633H432.0000040233135v11"></path></g></g><g id="minder_node37"><g id="node_expander36" style="cursor: pointer;"><path id="kity_path_406" fill="white" stroke="gray" d="M563.5000059083104,414.500006519258A6,6,0,1,1,551.5000059083104,414.500006519258A6,6,0,1,1,563.5000059083104,414.500006519258"></path><path id="kity_path_407" fill="none" stroke="gray" d="M553.0000059083104,414.500006519258L562.0000059083104,414.500006519258"></path></g><path id="node_outline37" fill="none" stroke="none" d="M499.50000511854887,403.500006519258h47a5,5,0,0,1,5,5v12a5,5,0,0,1,-5,5h-47a5,5,0,0,1,-5,-5v-12a5,5,0,0,1,5,-5z" stroke-width="3"></path><g id="node_text37" fill="black"><text id="kity_text_403" text-rendering="inherit" font-size="12" dy=".8em" y="406.70000649243593" x="504.50000511854887">数据库</text></g></g><g id="minder_node43"><g id="node_expander42" style="cursor: pointer;" display="none"><path id="kity_path_467" fill="white" stroke="gray" d="M433.50000397115946,500.0000077933073A6,6,0,1,1,421.50000397115946,500.0000077933073A6,6,0,1,1,433.50000397115946,500.0000077933073"></path><path id="kity_path_468" fill="none" stroke="gray"></path></g><path id="node_outline43" fill="none" stroke="none" d="M312.5000023320317,486.5000077858567h104a5,5,0,0,1,5,5v17a5,5,0,0,1,-5,5h-104a5,5,0,0,1,-5,-5v-17a5,5,0,0,1,5,-5z" stroke-width="3"></path><g id="node_text43" fill="black"><text id="kity_text_464" text-rendering="inherit" font-size="12" dy=".8em" y="491.70000775903463" x="317.5000023320317">普通邮件发送</text></g><g id="kity_g_480" style="cursor: pointer;"><path id="kity_path_481" fill="none" stroke="none" d="M398.0000034943223,491.0000077858567h12a2,2,0,0,1,2,2v13a2,2,0,0,1,-2,2h-12a2,2,0,0,1,-2,-2v-13a2,2,0,0,1,2,-2z"></path><path id="kity_path_482" fill="black" stroke="none" d="M407.0000035315752,502.0000076889992H401.0000035315752V501.0000076889992h6L407.0000035315752,502.0000076889992L407.0000035315752,502.0000076889992zM407.0000035315752,500.0000076889992H401.0000035315752V499.0000076889992h6V500.0000076889992zM407.0000035315752,498.0000076889992H401.0000035315752V497.0000076889992h6V498.0000076889992zM406.5000035315752,504.0000076889992H400.0000035315752V495.0000076889992h8v7.5M407.0000035315752,505.0000076889992l2,-2V494.0000076889992H399.0000035315752v11"></path></g></g><g id="minder_node44"><g id="node_expander43" style="cursor: pointer;" display="none"><path id="kity_path_475" fill="white" stroke="gray" d="M433.50000397115946,557.0000086426735A6,6,0,1,1,421.50000397115946,557.0000086426735A6,6,0,1,1,433.50000397115946,557.0000086426735"></path><path id="kity_path_476" fill="none" stroke="gray"></path></g><path id="node_outline44" fill="none" stroke="none" d="M311.50000231713057,543.5000086352229h105a5,5,0,0,1,5,5v17a5,5,0,0,1,-5,5h-105a5,5,0,0,1,-5,-5v-17a5,5,0,0,1,5,-5z" stroke-width="3"></path><g id="node_text44" fill="black"><text id="kity_text_472" text-rendering="inherit" font-size="12" dy=".8em" y="548.7000086084008" x="316.50000231713057">复杂邮件发送</text></g><g id="kity_g_477" style="cursor: pointer;"><path id="kity_path_478" fill="none" stroke="none" d="M398.0000034943223,548.0000086352229h12a2,2,0,0,1,2,2v13a2,2,0,0,1,-2,2h-12a2,2,0,0,1,-2,-2v-13a2,2,0,0,1,2,-2z"></path><path id="kity_path_479" fill="black" stroke="none" d="M407.0000035315752,559.0000085383654H401.0000035315752V558.0000085383654h6L407.0000035315752,559.0000085383654L407.0000035315752,559.0000085383654zM407.0000035315752,557.0000085383654H401.0000035315752V556.0000085383654h6V557.0000085383654zM407.0000035315752,555.0000085383654H401.0000035315752V554.0000085383654h6V555.0000085383654zM406.5000035315752,561.0000085383654H400.0000035315752V552.0000085383654h8v7.5M407.0000035315752,562.0000085383654l2,-2V551.0000085383654H399.0000035315752v11"></path></g></g><g id="minder_node42"><g id="node_expander41" style="cursor: pointer;"><path id="kity_path_456" fill="white" stroke="gray" d="M563.5000059083104,528.0000082105398A6,6,0,1,1,551.5000059083104,528.0000082105398A6,6,0,1,1,563.5000059083104,528.0000082105398"></path><path id="kity_path_457" fill="none" stroke="gray" d="M553.0000059083104,528.0000082105398L562.0000059083104,528.0000082105398"></path></g><path id="node_outline42" fill="none" stroke="none" d="M466.50000462681055,514.5000082030892h80a5,5,0,0,1,5,5v17a5,5,0,0,1,-5,5h-80a5,5,0,0,1,-5,-5v-17a5,5,0,0,1,5,-5z" stroke-width="3"></path><g id="node_text42" fill="black"><text id="kity_text_453" text-rendering="inherit" font-size="12" dy=".8em" y="519.7000081762671" x="471.50000462681055">邮件发送</text></g><g id="kity_g_458" style="cursor: pointer;"><path id="kity_path_459" fill="none" stroke="none" d="M528.0000054314733,519.0000082030892h12a2,2,0,0,1,2,2v13a2,2,0,0,1,-2,2h-12a2,2,0,0,1,-2,-2v-13a2,2,0,0,1,2,-2z"></path><path id="kity_path_460" fill="black" stroke="none" d="M537.0000054687262,530.0000081062317H531.0000054687262V529.0000081062317h6L537.0000054687262,530.0000081062317L537.0000054687262,530.0000081062317zM537.0000054687262,528.0000081062317H531.0000054687262V527.0000081062317h6V528.0000081062317zM537.0000054687262,526.0000081062317H531.0000054687262V525.0000081062317h6V526.0000081062317zM536.5000054687262,532.0000081062317H530.0000054687262V523.0000081062317h8v7.5M537.0000054687262,533.0000081062317l2,-2V522.0000081062317H529.0000054687262v11"></path></g></g><g id="minder_node47"><g id="node_expander46" style="cursor: pointer;" display="none"><path id="kity_path_508" fill="white" stroke="gray" d="M456.50000431388617,614.0000094920397A6,6,0,1,1,444.50000431388617,614.0000094920397A6,6,0,1,1,456.50000431388617,614.0000094920397"></path><path id="kity_path_509" fill="none" stroke="gray" d="M446.00000431388617,614.0000094920397L455.00000431388617,614.0000094920397"></path></g><path id="node_outline47" fill="none" stroke="none" d="M271.5000017210841,600.5000094845891h168a5,5,0,0,1,5,5v17a5,5,0,0,1,-5,5h-168a5,5,0,0,1,-5,-5v-17a5,5,0,0,1,5,-5z" stroke-width="3"></path><g id="node_text47" fill="black"><text id="kity_text_505" text-rendering="inherit" font-size="12" dy=".8em" y="605.700009457767" x="276.5000017210841">测试SpringBoot简单应用</text></g><g id="kity_g_526" style="cursor: pointer;"><path id="kity_path_527" fill="none" stroke="none" d="M421.000003837049,605.0000094845891h12a2,2,0,0,1,2,2v13a2,2,0,0,1,-2,2h-12a2,2,0,0,1,-2,-2v-13a2,2,0,0,1,2,-2z"></path><path id="kity_path_528" fill="black" stroke="none" d="M430.0000038743019,616.0000093877316H424.0000038743019V615.0000093877316h6L430.0000038743019,616.0000093877316L430.0000038743019,616.0000093877316zM430.0000038743019,614.0000093877316H424.0000038743019V613.0000093877316h6V614.0000093877316zM430.0000038743019,612.0000093877316H424.0000038743019V611.0000093877316h6V612.0000093877316zM429.5000038743019,618.0000093877316H423.0000038743019V609.0000093877316h8v7.5M430.0000038743019,619.0000093877316l2,-2V608.0000093877316H422.0000038743019v11"></path></g></g><g id="minder_node49"><g id="node_expander48" style="cursor: pointer;" display="none"><path id="kity_path_524" fill="white" stroke="gray" d="M456.50000431388617,671.0000103414059A6,6,0,1,1,444.50000431388617,671.0000103414059A6,6,0,1,1,456.50000431388617,671.0000103414059"></path><path id="kity_path_525" fill="none" stroke="gray"></path></g><path id="node_outline49" fill="none" stroke="none" d="M266.5000016465783,657.5000103339553h173a5,5,0,0,1,5,5v17a5,5,0,0,1,-5,5h-173a5,5,0,0,1,-5,-5v-17a5,5,0,0,1,5,-5z" stroke-width="3"></path><g id="node_text49" fill="black"><text id="kity_text_521" text-rendering="inherit" font-size="12" dy=".8em" y="662.7000103071332" x="271.5000016465783">测试SpringBoot web服务</text></g><g id="kity_g_529" style="cursor: pointer;"><path id="kity_path_530" fill="none" stroke="none" d="M421.000003837049,662.0000103339553h12a2,2,0,0,1,2,2v13a2,2,0,0,1,-2,2h-12a2,2,0,0,1,-2,-2v-13a2,2,0,0,1,2,-2z"></path><path id="kity_path_531" fill="black" stroke="none" d="M430.0000038743019,673.0000102370977H424.0000038743019V672.0000102370977h6L430.0000038743019,673.0000102370977L430.0000038743019,673.0000102370977zM430.0000038743019,671.0000102370977H424.0000038743019V670.0000102370977h6V671.0000102370977zM430.0000038743019,669.0000102370977H424.0000038743019V668.0000102370977h6V669.0000102370977zM429.5000038743019,675.0000102370977H423.0000038743019V666.0000102370977h8v7.5M430.0000038743019,676.0000102370977l2,-2V665.0000102370977H422.0000038743019v11"></path></g></g><g id="minder_node46"><g id="node_expander45" style="cursor: pointer;"><path id="kity_path_497" fill="white" stroke="gray" d="M563.5000059083104,642.0000099092722A6,6,0,1,1,551.5000059083104,642.0000099092722A6,6,0,1,1,563.5000059083104,642.0000099092722"></path><path id="kity_path_498" fill="none" stroke="gray" d="M553.0000059083104,642.0000099092722L562.0000059083104,642.0000099092722"></path></g><path id="node_outline46" fill="none" stroke="none" d="M489.50000496953726,628.5000099018216h57a5,5,0,0,1,5,5v17a5,5,0,0,1,-5,5h-57a5,5,0,0,1,-5,-5v-17a5,5,0,0,1,5,-5z" stroke-width="3"></path><g id="node_text46" fill="black"><text id="kity_text_494" text-rendering="inherit" font-size="12" dy=".8em" y="633.7000098749995" x="494.50000496953726">测试</text></g><g id="kity_g_499" style="cursor: pointer;"><path id="kity_path_500" fill="none" stroke="none" d="M528.0000054314733,633.0000099018216h12a2,2,0,0,1,2,2v13a2,2,0,0,1,-2,2h-12a2,2,0,0,1,-2,-2v-13a2,2,0,0,1,2,-2z"></path><path id="kity_path_501" fill="black" stroke="none" d="M537.0000054687262,644.0000098049641H531.0000054687262V643.0000098049641h6L537.0000054687262,644.0000098049641L537.0000054687262,644.0000098049641zM537.0000054687262,642.0000098049641H531.0000054687262V641.0000098049641h6V642.0000098049641zM537.0000054687262,640.0000098049641H531.0000054687262V639.0000098049641h6V640.0000098049641zM536.5000054687262,646.0000098049641H530.0000054687262V637.0000098049641h8v7.5M537.0000054687262,647.0000098049641l2,-2V636.0000098049641H529.0000054687262v11"></path></g></g><g id="minder_node51"><g id="node_expander50" style="cursor: pointer;" display="none"><path id="kity_path_546" fill="white" stroke="gray" d="M408.5000035986304,728.000011190772A6,6,0,1,1,396.5000035986304,728.000011190772A6,6,0,1,1,408.5000035986304,728.000011190772"></path><path id="kity_path_547" fill="none" stroke="gray"></path></g><path id="node_outline51" fill="none" stroke="none" d="M272.5000017359853,714.5000111833215h119a5,5,0,0,1,5,5v17a5,5,0,0,1,-5,5h-119a5,5,0,0,1,-5,-5v-17a5,5,0,0,1,5,-5z" stroke-width="3"></path><g id="node_text51" fill="black"><text id="kity_text_543" text-rendering="inherit" font-size="12" dy=".8em" y="719.7000111564994" x="277.5000017359853">配置Maven插件</text></g><g id="kity_g_551" style="cursor: pointer;"><path id="kity_path_552" fill="none" stroke="none" d="M373.00000312179327,719.0000111833215h12a2,2,0,0,1,2,2v13a2,2,0,0,1,-2,2h-12a2,2,0,0,1,-2,-2v-13a2,2,0,0,1,2,-2z"></path><path id="kity_path_553" fill="black" stroke="none" d="M382.0000031590462,730.0000110864639H376.0000031590462V729.0000110864639h6L382.0000031590462,730.0000110864639L382.0000031590462,730.0000110864639zM382.0000031590462,728.0000110864639H376.0000031590462V727.0000110864639h6V728.0000110864639zM382.0000031590462,726.0000110864639H376.0000031590462V725.0000110864639h6V726.0000110864639zM381.5000031590462,732.0000110864639H375.0000031590462V723.0000110864639h8v7.5M382.0000031590462,733.0000110864639l2,-2V722.0000110864639H374.0000031590462v11"></path></g></g><g id="minder_node52"><g id="node_expander51" style="cursor: pointer;" display="none"><path id="kity_path_560" fill="white" stroke="gray" d="M408.5000035986304,785.0000120401382A6,6,0,1,1,396.5000035986304,785.0000120401382A6,6,0,1,1,408.5000035986304,785.0000120401382"></path><path id="kity_path_561" fill="none" stroke="gray"></path></g><path id="node_outline52" fill="none" stroke="none" d="M245.50000133365393,771.5000120326877h146a5,5,0,0,1,5,5v17a5,5,0,0,1,-5,5h-146a5,5,0,0,1,-5,-5v-17a5,5,0,0,1,5,-5z" stroke-width="3"></path><g id="node_text52" fill="black"><text id="kity_text_557" text-rendering="inherit" font-size="12" dy=".8em" y="776.7000120058656" x="250.50000133365393">打包可执行fatjar运行</text></g><g id="kity_g_562" style="cursor: pointer;"><path id="kity_path_563" fill="none" stroke="none" d="M373.00000312179327,776.0000120326877h12a2,2,0,0,1,2,2v13a2,2,0,0,1,-2,2h-12a2,2,0,0,1,-2,-2v-13a2,2,0,0,1,2,-2z"></path><path id="kity_path_564" fill="black" stroke="none" d="M382.0000031590462,787.0000119358301H376.0000031590462V786.0000119358301h6L382.0000031590462,787.0000119358301L382.0000031590462,787.0000119358301zM382.0000031590462,785.0000119358301H376.0000031590462V784.0000119358301h6V785.0000119358301zM382.0000031590462,783.0000119358301H376.0000031590462V782.0000119358301h6V783.0000119358301zM381.5000031590462,789.0000119358301H375.0000031590462V780.0000119358301h8v7.5M382.0000031590462,790.0000119358301l2,-2V779.0000119358301H374.0000031590462v11"></path></g></g><g id="minder_node50"><g id="node_expander49" style="cursor: pointer;"><path id="kity_path_538" fill="white" stroke="gray" d="M563.5000059083104,785.0000120401382A6,6,0,1,1,551.5000059083104,785.0000120401382A6,6,0,1,1,563.5000059083104,785.0000120401382"></path><path id="kity_path_539" fill="none" stroke="gray" d="M553.0000059083104,785.0000120401382L562.0000059083104,785.0000120401382"></path></g><path id="node_outline50" fill="none" stroke="none" d="M441.5000042542815,771.5000120326877h105a5,5,0,0,1,5,5v17a5,5,0,0,1,-5,5h-105a5,5,0,0,1,-5,-5v-17a5,5,0,0,1,5,-5z" stroke-width="3"></path><g id="node_text50" fill="black"><text id="kity_text_535" text-rendering="inherit" font-size="12" dy=".8em" y="776.7000120058656" x="446.5000042542815">应用发布部署</text></g><g id="kity_g_548" style="cursor: pointer;"><path id="kity_path_549" fill="none" stroke="none" d="M528.0000054314733,776.0000120326877h12a2,2,0,0,1,2,2v13a2,2,0,0,1,-2,2h-12a2,2,0,0,1,-2,-2v-13a2,2,0,0,1,2,-2z"></path><path id="kity_path_550" fill="black" stroke="none" d="M537.0000054687262,787.0000119358301H531.0000054687262V786.0000119358301h6L537.0000054687262,787.0000119358301L537.0000054687262,787.0000119358301zM537.0000054687262,785.0000119358301H531.0000054687262V784.0000119358301h6V785.0000119358301zM537.0000054687262,783.0000119358301H531.0000054687262V782.0000119358301h6V783.0000119358301zM536.5000054687262,789.0000119358301H530.0000054687262V780.0000119358301h8v7.5M537.0000054687262,790.0000119358301l2,-2V779.0000119358301H529.0000054687262v11"></path></g></g><g id="minder_node53"><g id="node_expander52" style="cursor: pointer;" display="none"><path id="kity_path_595" fill="white" stroke="gray" d="M408.5000035986304,842.0000128895044A6,6,0,1,1,396.5000035986304,842.0000128895044A6,6,0,1,1,408.5000035986304,842.0000128895044"></path><path id="kity_path_596" fill="none" stroke="gray"></path></g><path id="node_outline53" fill="none" stroke="none" d="M207.5000007674098,828.5000128820539h184a5,5,0,0,1,5,5v17a5,5,0,0,1,-5,5h-184a5,5,0,0,1,-5,-5v-17a5,5,0,0,1,5,-5z" stroke-width="3"></path><g id="node_text53" fill="black"><text id="kity_text_592" text-rendering="inherit" font-size="12" dy=".8em" y="833.7000128552318" x="212.5000007674098">打包war文件，部署到容器中</text></g><g id="kity_g_597" style="cursor: pointer;"><path id="kity_path_598" fill="none" stroke="none" d="M373.00000312179327,833.0000128820539h12a2,2,0,0,1,2,2v13a2,2,0,0,1,-2,2h-12a2,2,0,0,1,-2,-2v-13a2,2,0,0,1,2,-2z"></path><path id="kity_path_599" fill="black" stroke="none" d="M382.0000031590462,844.0000127851963H376.0000031590462V843.0000127851963h6L382.0000031590462,844.0000127851963L382.0000031590462,844.0000127851963zM382.0000031590462,842.0000127851963H376.0000031590462V841.0000127851963h6V842.0000127851963zM382.0000031590462,840.0000127851963H376.0000031590462V839.0000127851963h6V840.0000127851963zM381.5000031590462,846.0000127851963H375.0000031590462V837.0000127851963h8v7.5M382.0000031590462,847.0000127851963l2,-2V836.0000127851963H374.0000031590462v11"></path></g></g><g id="minder_node54"><g id="node_expander53" style="cursor: pointer;"><path id="kity_path_606" fill="white" stroke="gray" d="M563.5000059083104,970.0000147968531A6,6,0,1,1,551.5000059083104,970.0000147968531A6,6,0,1,1,563.5000059083104,970.0000147968531"></path><path id="kity_path_607" fill="none" stroke="gray" d="M553.0000059083104,970.0000147968531L562.0000059083104,970.0000147968531"></path></g><path id="node_outline54" fill="none" stroke="none" d="M390.5000034943223,956.5000147894025h156a5,5,0,0,1,5,5v17a5,5,0,0,1,-5,5h-156a5,5,0,0,1,-5,-5v-17a5,5,0,0,1,5,-5z" stroke-width="3"></path><g id="node_text54" fill="black"><text id="kity_text_603" text-rendering="inherit" font-size="12" dy=".8em" y="961.7000147625804" x="395.5000034943223">Production-ready特性</text></g><g id="kity_g_608" style="cursor: pointer;"><path id="kity_path_609" fill="none" stroke="none" d="M528.0000054314733,961.0000147894025h12a2,2,0,0,1,2,2v13a2,2,0,0,1,-2,2h-12a2,2,0,0,1,-2,-2v-13a2,2,0,0,1,2,-2z"></path><path id="kity_path_610" fill="black" stroke="none" d="M537.0000054687262,972.0000146925449H531.0000054687262V971.0000146925449h6L537.0000054687262,972.0000146925449L537.0000054687262,972.0000146925449zM537.0000054687262,970.0000146925449H531.0000054687262V969.0000146925449h6V970.0000146925449zM537.0000054687262,968.0000146925449H531.0000054687262V967.0000146925449h6V968.0000146925449zM536.5000054687262,974.0000146925449H530.0000054687262V965.0000146925449h8v7.5M537.0000054687262,975.0000146925449l2,-2V964.0000146925449H529.0000054687262v11"></path></g></g><g id="minder_node55"><g id="node_expander54" style="cursor: pointer;" display="none"><path id="kity_path_617" fill="white" stroke="gray" d="M357.5000028386712,899.0000137388706A6,6,0,1,1,345.5000028386712,899.0000137388706A6,6,0,1,1,357.5000028386712,899.0000137388706"></path><path id="kity_path_618" fill="none" stroke="gray"></path></g><path id="node_outline55" fill="none" stroke="none" d="M259.5000015422702,885.50001373142h81a5,5,0,0,1,5,5v17a5,5,0,0,1,-5,5h-81a5,5,0,0,1,-5,-5v-17a5,5,0,0,1,5,-5z" stroke-width="3"></path><g id="node_text55" fill="black"><text id="kity_text_614" text-rendering="inherit" font-size="12" dy=".8em" y="890.700013704598" x="264.5000015422702">产品特性</text></g><g id="kity_g_619" style="cursor: pointer;"><path id="kity_path_620" fill="none" stroke="none" d="M322.00000236183405,890.00001373142h12a2,2,0,0,1,2,2v13a2,2,0,0,1,-2,2h-12a2,2,0,0,1,-2,-2v-13a2,2,0,0,1,2,-2z"></path><path id="kity_path_621" fill="black" stroke="none" d="M331.00000239908695,901.0000136345625H325.00000239908695V900.0000136345625h6L331.00000239908695,901.0000136345625L331.00000239908695,901.0000136345625zM331.00000239908695,899.0000136345625H325.00000239908695V898.0000136345625h6V899.0000136345625zM331.00000239908695,897.0000136345625H325.00000239908695V896.0000136345625h6V897.0000136345625zM330.50000239908695,903.0000136345625H324.00000239908695V894.0000136345625h8v7.5M331.00000239908695,904.0000136345625l2,-2V893.0000136345625H323.00000239908695v11"></path></g></g><g id="minder_node56"><g id="node_expander55" style="cursor: pointer;"><path id="kity_path_628" fill="white" stroke="gray" d="M357.5000028386712,956.0000145882368A6,6,0,1,1,345.5000028386712,956.0000145882368A6,6,0,1,1,357.5000028386712,956.0000145882368"></path><path id="kity_path_629" fill="none" stroke="gray" d="M347.0000028386712,956.0000145882368L356.0000028386712,956.0000145882368"></path></g><path id="node_outline56" fill="none" stroke="none" d="M284.5000019147992,942.5000145807862h56a5,5,0,0,1,5,5v17a5,5,0,0,1,-5,5h-56a5,5,0,0,1,-5,-5v-17a5,5,0,0,1,5,-5z" stroke-width="3"></path><g id="node_text56" fill="black"><text id="kity_text_625" text-rendering="inherit" font-size="12" dy=".8em" y="947.7000145539641" x="289.5000019147992">端点</text></g><g id="kity_g_630" style="cursor: pointer;"><path id="kity_path_631" fill="none" stroke="none" d="M322.00000236183405,947.0000145807862h12a2,2,0,0,1,2,2v13a2,2,0,0,1,-2,2h-12a2,2,0,0,1,-2,-2v-13a2,2,0,0,1,2,-2z"></path><path id="kity_path_632" fill="black" stroke="none" d="M331.00000239908695,958.0000144839287H325.00000239908695V957.0000144839287h6L331.00000239908695,958.0000144839287L331.00000239908695,958.0000144839287zM331.00000239908695,956.0000144839287H325.00000239908695V955.0000144839287h6V956.0000144839287zM331.00000239908695,954.0000144839287H325.00000239908695V953.0000144839287h6V954.0000144839287zM330.50000239908695,960.0000144839287H324.00000239908695V951.0000144839287h8v7.5M331.00000239908695,961.0000144839287l2,-2V950.0000144839287H323.00000239908695v11"></path></g></g><g id="minder_node57"><g id="node_expander56" style="cursor: pointer;" display="none"><path id="kity_path_639" fill="white" stroke="gray" d="M251.50000125914812,956.0000145882368A6,6,0,1,1,239.50000125914812,956.0000145882368A6,6,0,1,1,251.50000125914812,956.0000145882368"></path><path id="kity_path_640" fill="none" stroke="gray"></path></g><path id="node_outline57" fill="none" stroke="none" d="M143.49999981373549,942.5000145807862h91a5,5,0,0,1,5,5v17a5,5,0,0,1,-5,5h-91a5,5,0,0,1,-5,-5v-17a5,5,0,0,1,5,-5z" stroke-width="3"></path><g id="node_text57" fill="black"><text id="kity_text_636" text-rendering="inherit" font-size="12" dy=".8em" y="947.7000145539641" x="148.49999981373549">自定义端点</text></g><g id="kity_g_641" style="cursor: pointer;"><path id="kity_path_642" fill="none" stroke="none" d="M216.00000078231096,947.0000145807862h12a2,2,0,0,1,2,2v13a2,2,0,0,1,-2,2h-12a2,2,0,0,1,-2,-2v-13a2,2,0,0,1,2,-2z"></path><path id="kity_path_643" fill="black" stroke="none" d="M225.00000081956387,958.0000144839287H219.00000081956387V957.0000144839287h6L225.00000081956387,958.0000144839287L225.00000081956387,958.0000144839287zM225.00000081956387,956.0000144839287H219.00000081956387V955.0000144839287h6V956.0000144839287zM225.00000081956387,954.0000144839287H219.00000081956387V953.0000144839287h6V954.0000144839287zM224.50000081956387,960.0000144839287H218.00000081956387V951.0000144839287h8v7.5M225.00000081956387,961.0000144839287l2,-2V950.0000144839287H217.00000081956387v11"></path></g></g><g id="minder_node58"><g id="node_expander57" style="cursor: pointer;"><path id="kity_path_650" fill="white" stroke="gray" d="M357.5000028386712,1041.0000158548355A6,6,0,1,1,345.5000028386712,1041.0000158548355A6,6,0,1,1,357.5000028386712,1041.0000158548355"></path><path id="kity_path_651" fill="none" stroke="gray" d="M347.0000028386712,1041.0000158548355L356.0000028386712,1041.0000158548355"></path></g><path id="node_outline58" fill="none" stroke="none" d="M259.5000015422702,1027.500015847385h81a5,5,0,0,1,5,5v17a5,5,0,0,1,-5,5h-81a5,5,0,0,1,-5,-5v-17a5,5,0,0,1,5,-5z" stroke-width="3"></path><g id="node_text58" fill="black"><text id="kity_text_647" text-rendering="inherit" font-size="12" dy=".8em" y="1032.7000158205628" x="264.5000015422702">健康信息</text></g><g id="kity_g_652" style="cursor: pointer;"><path id="kity_path_653" fill="none" stroke="none" d="M322.00000236183405,1032.000015847385h12a2,2,0,0,1,2,2v13a2,2,0,0,1,-2,2h-12a2,2,0,0,1,-2,-2v-13a2,2,0,0,1,2,-2z"></path><path id="kity_path_654" fill="black" stroke="none" d="M331.00000239908695,1043.0000157505274H325.00000239908695V1042.0000157505274h6L331.00000239908695,1043.0000157505274L331.00000239908695,1043.0000157505274zM331.00000239908695,1041.0000157505274H325.00000239908695V1040.0000157505274h6V1041.0000157505274zM331.00000239908695,1039.0000157505274H325.00000239908695V1038.0000157505274h6V1039.0000157505274zM330.50000239908695,1045.0000157505274H324.00000239908695V1036.0000157505274h8v7.5M331.00000239908695,1046.0000157505274l2,-2V1035.0000157505274H323.00000239908695v11"></path></g></g><g id="minder_node60"><g id="node_expander59" style="cursor: pointer;" display="none"><path id="kity_path_669" fill="white" stroke="gray" d="M226.5000008866191,1013.000015437603A6,6,0,1,1,214.5000008866191,1013.000015437603A6,6,0,1,1,226.5000008866191,1013.000015437603"></path><path id="kity_path_670" fill="none" stroke="gray"></path></g><path id="node_outline60" fill="none" stroke="none" d="M24.499998040497303,999.5000154301524h185a5,5,0,0,1,5,5v17a5,5,0,0,1,-5,5h-185a5,5,0,0,1,-5,-5v-17a5,5,0,0,1,5,-5z" stroke-width="3"></path><g id="node_text60" fill="black"><text id="kity_text_666" text-rendering="inherit" font-size="12" dy=".8em" y="1004.7000154033303" x="29.499998040497303">自动配置的HealthIndicators</text></g><g id="kity_g_671" style="cursor: pointer;"><path id="kity_path_672" fill="none" stroke="none" d="M191.00000040978193,1004.0000154301524h12a2,2,0,0,1,2,2v13a2,2,0,0,1,-2,2h-12a2,2,0,0,1,-2,-2v-13a2,2,0,0,1,2,-2z"></path><path id="kity_path_673" fill="black" stroke="none" d="M200.00000044703484,1015.0000153332949H194.00000044703484V1014.0000153332949h6L200.00000044703484,1015.0000153332949L200.00000044703484,1015.0000153332949zM200.00000044703484,1013.0000153332949H194.00000044703484V1012.0000153332949h6V1013.0000153332949zM200.00000044703484,1011.0000153332949H194.00000044703484V1010.0000153332949h6V1011.0000153332949zM199.50000044703484,1017.0000153332949H193.00000044703484V1008.0000153332949h8v7.5M200.00000044703484,1018.0000153332949l2,-2V1007.0000153332949H192.00000044703484v11"></path></g></g><g id="minder_node61"><g id="node_expander60" style="cursor: pointer;" display="none"><path id="kity_path_680" fill="white" stroke="gray" d="M226.5000008866191,1070.0000162869692A6,6,0,1,1,214.5000008866191,1070.0000162869692A6,6,0,1,1,226.5000008866191,1070.0000162869692"></path><path id="kity_path_681" fill="none" stroke="gray"></path></g><path id="node_outline61" fill="none" stroke="none" d="M48.49999839812517,1056.5000162795186h161a5,5,0,0,1,5,5v17a5,5,0,0,1,-5,5h-161a5,5,0,0,1,-5,-5v-17a5,5,0,0,1,5,-5z" stroke-width="3"></path><g id="node_text61" fill="black"><text id="kity_text_677" text-rendering="inherit" font-size="12" dy=".8em" y="1061.7000162526965" x="53.49999839812517">自定义HealthIndicators</text></g><g id="kity_g_682" style="cursor: pointer;"><path id="kity_path_683" fill="none" stroke="none" d="M191.00000040978193,1061.0000162795186h12a2,2,0,0,1,2,2v13a2,2,0,0,1,-2,2h-12a2,2,0,0,1,-2,-2v-13a2,2,0,0,1,2,-2z"></path><path id="kity_path_684" fill="black" stroke="none" d="M200.00000044703484,1072.000016182661H194.00000044703484V1071.000016182661h6L200.00000044703484,1072.000016182661L200.00000044703484,1072.000016182661zM200.00000044703484,1070.000016182661H194.00000044703484V1069.000016182661h6V1070.000016182661zM200.00000044703484,1068.000016182661H194.00000044703484V1067.000016182661h6V1068.000016182661zM199.50000044703484,1074.000016182661H193.00000044703484V1065.000016182661h8v7.5M200.00000044703484,1075.000016182661l2,-2V1064.000016182661H192.00000044703484v11"></path></g></g></g></g></svg>