<svg id="kity_svg_6" xmlns="http://www.w3.org/2000/svg" xmlns:xlink="http://www.w3.org/1999/xlink" version="1.1" width="1427" height="1027" style="background: rgb(251, 251, 251); visibility: visible;" viewBox="0 0 1427 1027"><defs id="kity_defs_7"><linearGradient id="kity_linearGradient_17" x1="0" y1="0" x2="0" y2="1"><stop id="kity_stop_18" offset="0" stop-color="rgb(255, 255, 255)"></stop><stop id="kity_stop_19" offset="1" stop-color="rgb(204, 204, 204)"></stop></linearGradient><marker id="kity_marker_2" orient="auto" refX="6" refY="0" viewBox="-7 -7 14 14" markerWidth="7" markerHeight="7" markerUnits="userSpaceOnUse"><path id="kity_path_3" fill="rgb(115, 161, 191)" stroke="none" d="M6,0A6,6,0,1,1,-6,0A6,6,0,1,1,6,0"></path></marker></defs><g id="kity_g_8"><g id="minder1" text-rendering="geometricPrecision"><g id="minder_connect_group1"><path id="kity_path_72" fill="none" stroke="rgb(115, 161, 191)" stroke-width="1" d="M660.0000040456653,318.00000267475843A240.5,228,0,0,0,419.50000404566526,90.00000267475843"></path><path id="kity_path_118" fill="none" stroke="rgb(115, 161, 191)" stroke-width="1" d="M660.0000040456653,318.00000267475843A264.5,300,0,0,1,395.50000404566526,618.0000026747584"></path><path id="kity_path_211" fill="none" stroke="rgb(115, 161, 191)" stroke-width="1" d="M660.0000040456653,318.00000267475843A162.5,289.5,0,0,0,822.5000040456653,607.5000026747584"></path><path id="kity_path_497" fill="none" stroke="rgb(115, 161, 191)" stroke-width="1" d="M252.50000404566526,90.00000267475843C237.50000404566526,90.00000267475843,237.50000404566526,49.500002674758434,222.50000404566526,49.500002674758434L55.500004045665264,49.500002674758434"></path><path id="kity_path_498" fill="none" stroke="rgb(115, 161, 191)" stroke-width="1" d="M252.50000404566526,90.00000267475843C237.50000404566526,90.00000267475843,237.50000404566526,106.50000267475843,222.50000404566526,106.50000267475843L97.50000404566526,106.50000267475843"></path><path id="kity_path_499" fill="none" stroke="rgb(115, 161, 191)" stroke-width="1" d="M252.50000404566526,90.00000267475843C237.50000404566526,90.00000267475843,237.50000404566526,163.50000267475843,222.50000404566526,163.50000267475843L19.500004045665264,163.50000267475843"></path><path id="kity_path_500" fill="none" stroke="rgb(115, 161, 191)" stroke-width="1" d="M227.50000404566526,618.0000026747584C212.50000404566526,618.0000026747584,212.50000404566526,492.50000267475843,197.50000404566526,492.50000267475843L73.50000404566526,492.50000267475843"></path><path id="kity_path_501" fill="none" stroke="rgb(115, 161, 191)" stroke-width="1" d="M227.50000404566526,618.0000026747584C212.50000404566526,618.0000026747584,212.50000404566526,549.5000026747584,197.50000404566526,549.5000026747584L96.50000404566526,549.5000026747584"></path><path id="kity_path_502" fill="none" stroke="rgb(115, 161, 191)" stroke-width="1" d="M227.50000404566526,618.0000026747584C212.50000404566526,618.0000026747584,212.50000404566526,606.5000026747584,197.50000404566526,606.5000026747584L97.50000404566526,606.5000026747584"></path><path id="kity_path_503" fill="none" stroke="rgb(115, 161, 191)" stroke-width="1" d="M227.50000404566526,618.0000026747584C212.50000404566526,618.0000026747584,212.50000404566526,663.5000026747584,197.50000404566526,663.5000026747584L84.50000404566526,663.5000026747584"></path><path id="kity_path_504" fill="none" stroke="rgb(115, 161, 191)" stroke-width="1" d="M227.50000404566526,618.0000026747584C212.50000404566526,618.0000026747584,212.50000404566526,720.5000026747584,197.50000404566526,720.5000026747584L47.500004045665264,720.5000026747584"></path><path id="kity_path_505" fill="none" stroke="rgb(115, 161, 191)" stroke-width="1" d="M227.50000404566526,618.0000026747584C212.50000404566526,618.0000026747584,212.50000404566526,777.5000026747584,197.50000404566526,777.5000026747584L49.500004045665264,777.5000026747584"></path><path id="kity_path_506" fill="none" stroke="rgb(115, 161, 191)" stroke-width="1" d="M1078.5000040456653,236.50000267475843C1093.5000040456653,236.50000267475843,1093.5000040456653,99.50000267475843,1108.5000040456653,99.50000267475843L1302.5000040456653,99.50000267475843"></path><path id="kity_path_507" fill="none" stroke="rgb(115, 161, 191)" stroke-width="1" d="M1078.5000040456653,236.50000267475843C1093.5000040456653,236.50000267475843,1093.5000040456653,156.50000267475843,1108.5000040456653,156.50000267475843L1313.5000040456653,156.50000267475843"></path><path id="kity_path_508" fill="none" stroke="rgb(115, 161, 191)" stroke-width="1" d="M1078.5000040456653,236.50000267475843C1093.5000040456653,236.50000267475843,1093.5000040456653,213.50000267475843,1108.5000040456653,213.50000267475843L1251.5000040456653,213.50000267475843"></path><path id="kity_path_509" fill="none" stroke="rgb(115, 161, 191)" stroke-width="1" d="M1078.5000040456653,236.50000267475843C1093.5000040456653,236.50000267475843,1093.5000040456653,270.50000267475843,1108.5000040456653,270.50000267475843L1261.5000040456653,270.50000267475843"></path><path id="kity_path_510" fill="none" stroke="rgb(115, 161, 191)" stroke-width="1" d="M1078.5000040456653,236.50000267475843C1093.5000040456653,236.50000267475843,1093.5000040456653,322.50000267475843,1108.5000040456653,322.50000267475843L1243.5000040456653,322.50000267475843"></path><path id="kity_path_511" fill="none" stroke="rgb(115, 161, 191)" stroke-width="1" d="M1078.5000040456653,236.50000267475843C1093.5000040456653,236.50000267475843,1093.5000040456653,379.50000267475843,1108.5000040456653,379.50000267475843L1225.5000040456653,379.50000267475843"></path><path id="kity_path_512" fill="none" stroke="rgb(115, 161, 191)" stroke-width="1" d="M968.5000040456653,607.5000026747584C983.5000040456653,607.5000026747584,983.5000040456653,236.50000267475843,998.5000040456653,236.50000267475843L1078.5000040456653,236.50000267475843"></path><path id="kity_path_513" fill="none" stroke="rgb(115, 161, 191)" stroke-width="1" d="M1099.5000040456653,578.5000026747584C1114.5000040456653,578.5000026747584,1114.5000040456653,436.50000267475843,1129.5000040456653,436.50000267475843L1218.5000040456653,436.50000267475843"></path><path id="kity_path_514" fill="none" stroke="rgb(115, 161, 191)" stroke-width="1" d="M1099.5000040456653,578.5000026747584C1114.5000040456653,578.5000026747584,1114.5000040456653,493.50000267475843,1129.5000040456653,493.50000267475843L1289.5000040456653,493.50000267475843"></path><path id="kity_path_515" fill="none" stroke="rgb(115, 161, 191)" stroke-width="1" d="M1224.5000040456653,604.5000026747584C1239.5000040456653,604.5000026747584,1239.5000040456653,550.5000026747584,1254.5000040456653,550.5000026747584L1370.5000040456653,550.5000026747584"></path><path id="kity_path_516" fill="none" stroke="rgb(115, 161, 191)" stroke-width="1" d="M1224.5000040456653,604.5000026747584C1239.5000040456653,604.5000026747584,1239.5000040456653,607.5000026747584,1254.5000040456653,607.5000026747584L1370.5000040456653,607.5000026747584"></path><path id="kity_path_517" fill="none" stroke="rgb(115, 161, 191)" stroke-width="1" d="M1224.5000040456653,604.5000026747584C1239.5000040456653,604.5000026747584,1239.5000040456653,664.5000026747584,1254.5000040456653,664.5000026747584L1406.5000040456653,664.5000026747584"></path><path id="kity_path_518" fill="none" stroke="rgb(115, 161, 191)" stroke-width="1" d="M1099.5000040456653,578.5000026747584C1114.5000040456653,578.5000026747584,1114.5000040456653,604.5000026747584,1129.5000040456653,604.5000026747584L1224.5000040456653,604.5000026747584"></path><path id="kity_path_519" fill="none" stroke="rgb(115, 161, 191)" stroke-width="1" d="M1099.5000040456653,578.5000026747584C1114.5000040456653,578.5000026747584,1114.5000040456653,721.5000026747584,1129.5000040456653,721.5000026747584L1247.5000040456653,721.5000026747584"></path><path id="kity_path_520" fill="none" stroke="rgb(115, 161, 191)" stroke-width="1" d="M968.5000040456653,607.5000026747584C983.5000040456653,607.5000026747584,983.5000040456653,578.5000026747584,998.5000040456653,578.5000026747584L1099.5000040456653,578.5000026747584"></path><path id="kity_path_521" fill="none" stroke="rgb(115, 161, 191)" stroke-width="1" d="M1099.5000040456653,819.5000026747584C1114.5000040456653,819.5000026747584,1114.5000040456653,778.5000026747584,1129.5000040456653,778.5000026747584L1266.5000040456653,778.5000026747584"></path><path id="kity_path_522" fill="none" stroke="rgb(115, 161, 191)" stroke-width="1" d="M1209.5000040456653,861.5000026747584C1224.5000040456653,861.5000026747584,1224.5000040456653,835.5000026747584,1239.5000040456653,835.5000026747584L1363.5000040456653,835.5000026747584"></path><path id="kity_path_523" fill="none" stroke="rgb(115, 161, 191)" stroke-width="1" d="M1209.5000040456653,861.5000026747584C1224.5000040456653,861.5000026747584,1224.5000040456653,892.5000026747584,1239.5000040456653,892.5000026747584L1376.5000040456653,892.5000026747584"></path><path id="kity_path_524" fill="none" stroke="rgb(115, 161, 191)" stroke-width="1" d="M1099.5000040456653,819.5000026747584C1114.5000040456653,819.5000026747584,1114.5000040456653,861.5000026747584,1129.5000040456653,861.5000026747584L1209.5000040456653,861.5000026747584"></path><path id="kity_path_525" fill="none" stroke="rgb(115, 161, 191)" stroke-width="1" d="M968.5000040456653,607.5000026747584C983.5000040456653,607.5000026747584,983.5000040456653,819.5000026747584,998.5000040456653,819.5000026747584L1099.5000040456653,819.5000026747584"></path><path id="kity_path_526" fill="none" stroke="rgb(115, 161, 191)" stroke-width="1" d="M968.5000040456653,607.5000026747584C983.5000040456653,607.5000026747584,983.5000040456653,949.5000026747584,998.5000040456653,949.5000026747584L1098.5000040456653,949.5000026747584"></path><path id="kity_path_527" fill="none" stroke="rgb(115, 161, 191)" stroke-width="1" d="M968.5000040456653,607.5000026747584C983.5000040456653,607.5000026747584,983.5000040456653,1006.5000026747584,998.5000040456653,1006.5000026747584L1111.5000040456653,1006.5000026747584"></path></g><g id="minder_node1"><path id="node_outline1" fill="rgb(115, 161, 191)" stroke="rgb(115, 161, 191)" d="M584.5000040456653,297.50000267475843h151a5,5,0,0,1,5,5v31a5,5,0,0,1,-5,5h-151a5,5,0,0,1,-5,-5v-31a5,5,0,0,1,5,-5z" stroke-width="3"></path><g id="node_text1" fill="white"><text id="kity_text_22" text-rendering="inherit" font-size="16" dy=".8em" y="307.10000263899565" x="603.5000040456653">SpringBoot</text></g><g id="kity_g_196" style="cursor: pointer;"><path id="kity_path_197" fill="none" stroke="none" d="M703.0000054910779,309.00000267475843h12a2,2,0,0,1,2,2v13a2,2,0,0,1,-2,2h-12a2,2,0,0,1,-2,-2v-13a2,2,0,0,1,2,-2z"></path><path id="kity_path_198" fill="white" stroke="none" d="M712.0000055283308,320.0000025779009H706.0000055283308V319.0000025779009h6L712.0000055283308,320.0000025779009L712.0000055283308,320.0000025779009zM712.0000055283308,318.0000025779009H706.0000055283308V317.0000025779009h6V318.0000025779009zM712.0000055283308,316.0000025779009H706.0000055283308V315.0000025779009h6V316.0000025779009zM711.5000055283308,322.0000025779009H705.0000055283308V313.0000025779009h8v7.5M712.0000055283308,323.0000025779009l2,-2V312.0000025779009H704.0000055283308v11"></path></g></g><g id="kity_g_12" display="none"><path id="kity_path_13" fill="none" stroke="none" d="M603.5000040456653,317.50000267475843h0v0h0z"></path></g><g id="kity_g_14" display="none"><path id="kity_path_15" fill="rgba(0, 92, 153, 0.5)" stroke="none" d="M884.5000040456653,183.50000267475843h165v20h-165z"></path><path id="kity_path_16" fill="none" stroke="rgb(0, 76, 128)" d="M884.5000040456653,203.50000267475843L1049.5000040456653,203.50000267475843" stroke-width="1"></path></g><g id="minder_node6" opacity="1"><g id="node_expander5" style="cursor: pointer;"><path id="kity_path_80" fill="white" stroke="gray" d="M251.49999871104956,89.99999928474426A6,6,0,1,1,239.49999871104956,89.99999928474426A6,6,0,1,1,251.49999871104956,89.99999928474426"></path><path id="kity_path_81" fill="none" stroke="gray" d="M240.99999871104956,89.99999928474426L249.99999871104956,89.99999928474426"></path></g><path id="node_outline6" fill="rgb(238, 243, 246)" stroke="rgb(115, 161, 191)" d="M255.4999991133809,75.49999927729368h159a3,3,0,0,1,3,3v23a3,3,0,0,1,-3,3h-159a3,3,0,0,1,-3,-3v-23a3,3,0,0,1,3,-3z" stroke-width="1"></path><g id="node_text6" fill="black"><text id="kity_text_74" text-rendering="inherit" font-size="14" dy=".8em" y="80.39999924600124" x="272.4999991133809">SpringBoot简介</text></g><g id="kity_g_75" style="cursor: pointer;"><path id="kity_path_76" fill="none" stroke="none" d="M384.0000007376075,80.99999927729368h12a2,2,0,0,1,2,2v13a2,2,0,0,1,-2,2h-12a2,2,0,0,1,-2,-2v-13a2,2,0,0,1,2,-2z"></path><path id="kity_path_77" fill="black" stroke="none" d="M393.0000007748604,91.99999918043613H387.0000007748604V90.99999918043613h6L393.0000007748604,91.99999918043613L393.0000007748604,91.99999918043613zM393.0000007748604,89.99999918043613H387.0000007748604V88.99999918043613h6V89.99999918043613zM393.0000007748604,87.99999918043613H387.0000007748604V86.99999918043613h6V87.99999918043613zM392.5000007748604,93.99999918043613H386.0000007748604V84.99999918043613h8v7.5M393.0000007748604,94.99999918043613l2,-2V83.99999918043613H385.0000007748604v11"></path></g></g><g id="minder_node10" opacity="1"><g id="node_expander9" style="cursor: pointer;"><path id="kity_path_126" fill="white" stroke="gray" d="M406.50000102072954,618.0000071525574A6,6,0,1,1,394.50000102072954,618.0000071525574A6,6,0,1,1,406.50000102072954,618.0000071525574"></path><path id="kity_path_127" fill="none" stroke="gray" d="M396.00000102072954,618.0000071525574L405.00000102072954,618.0000071525574"></path></g><path id="node_outline10" fill="rgb(238, 243, 246)" stroke="rgb(115, 161, 191)" d="M230.49999874085188,603.5000071451068h160a3,3,0,0,1,3,3v23a3,3,0,0,1,-3,3h-160a3,3,0,0,1,-3,-3v-23a3,3,0,0,1,3,-3z" stroke-width="1"></path><g id="node_text10" fill="black"><text id="kity_text_120" text-rendering="inherit" font-size="14" dy=".8em" y="608.4000071138144" x="247.49999874085188">SpringBoot特性</text></g><g id="kity_g_121" style="cursor: pointer;"><path id="kity_path_122" fill="none" stroke="none" d="M360.0000003799796,609.0000071451068h12a2,2,0,0,1,2,2v13a2,2,0,0,1,-2,2h-12a2,2,0,0,1,-2,-2v-13a2,2,0,0,1,2,-2z"></path><path id="kity_path_123" fill="black" stroke="none" d="M369.0000004172325,620.0000070482492H363.0000004172325V619.0000070482492h6L369.0000004172325,620.0000070482492L369.0000004172325,620.0000070482492zM369.0000004172325,618.0000070482492H363.0000004172325V617.0000070482492h6V618.0000070482492zM369.0000004172325,616.0000070482492H363.0000004172325V615.0000070482492h6V616.0000070482492zM368.5000004172325,622.0000070482492H362.0000004172325V613.0000070482492h8v7.5M369.0000004172325,623.0000070482492l2,-2V612.0000070482492H361.0000004172325v11"></path></g></g><g id="minder_node18" opacity="1"><g id="node_expander17" style="cursor: pointer;"><path id="kity_path_216" fill="white" stroke="gray" d="M823.5000072345138,607.5000069960952A6,6,0,1,1,811.5000072345138,607.5000069960952A6,6,0,1,1,823.5000072345138,607.5000069960952"></path><path id="kity_path_217" fill="none" stroke="gray" d="M813.0000072345138,607.5000069960952L822.0000072345138,607.5000069960952"></path></g><path id="node_outline18" fill="rgb(238, 243, 246)" stroke="rgb(115, 161, 191)" d="M827.5000076368451,594.5000069960952h138a3,3,0,0,1,3,3v20a3,3,0,0,1,-3,3h-138a3,3,0,0,1,-3,-3v-20a3,3,0,0,1,3,-3z" stroke-width="1"></path><g id="node_text18" fill="black"><text id="kity_text_213" text-rendering="inherit" font-size="14" dy=".8em" y="598.4000069648027" x="844.5000076368451">SpringBoot基础</text></g></g><g id="minder_node7"><g id="node_expander6" style="cursor: pointer;" display="none"><path id="kity_path_91" fill="white" stroke="gray" d="M224.4999983087182,32.999998435378075A6,6,0,1,1,212.4999983087182,32.999998435378075A6,6,0,1,1,224.4999983087182,32.999998435378075"></path><path id="kity_path_92" fill="none" stroke="gray"></path></g><path id="node_outline7" fill="none" stroke="none" d="M60.49999602884054,19.499998427927494h147a5,5,0,0,1,5,5v17a5,5,0,0,1,-5,5h-147a5,5,0,0,1,-5,-5v-17a5,5,0,0,1,5,-5z" stroke-width="3"></path><g id="node_text7" fill="black"><text id="kity_text_85" text-rendering="inherit" font-size="12" dy=".8em" y="24.699998401105404" x="65.49999602884054">&#xa0;SpringBoot出现原因</text></g><g id="kity_g_86" style="cursor: pointer;"><path id="kity_path_87" fill="none" stroke="none" d="M188.99999783188105,23.999998427927494h12a2,2,0,0,1,2,2v13a2,2,0,0,1,-2,2h-12a2,2,0,0,1,-2,-2v-13a2,2,0,0,1,2,-2z"></path><path id="kity_path_88" fill="black" stroke="none" d="M197.99999786913395,34.999998331069946H191.99999786913395V33.999998331069946h6L197.99999786913395,34.999998331069946L197.99999786913395,34.999998331069946zM197.99999786913395,32.999998331069946H191.99999786913395V31.999998331069946h6V32.999998331069946zM197.99999786913395,30.999998331069946H191.99999786913395V29.999998331069946h6V30.999998331069946zM197.49999786913395,36.999998331069946H190.99999786913395V27.999998331069946h8v7.5M197.99999786913395,37.999998331069946l2,-2V26.999998331069946H189.99999786913395v11"></path></g></g><g id="minder_node8"><g id="node_expander7" style="cursor: pointer;" display="none"><path id="kity_path_101" fill="white" stroke="gray" d="M224.4999983087182,89.99999928474426A6,6,0,1,1,212.4999983087182,89.99999928474426A6,6,0,1,1,224.4999983087182,89.99999928474426"></path><path id="kity_path_102" fill="none" stroke="gray"></path></g><path id="node_outline8" fill="none" stroke="none" d="M102.49999665468931,76.49999927729368h105a5,5,0,0,1,5,5v17a5,5,0,0,1,-5,5h-105a5,5,0,0,1,-5,-5v-17a5,5,0,0,1,5,-5z" stroke-width="3"></path><g id="node_text8" fill="black"><text id="kity_text_98" text-rendering="inherit" font-size="12" dy=".8em" y="81.69999925047159" x="107.49999665468931">Spring的优势</text></g><g id="kity_g_103" style="cursor: pointer;"><path id="kity_path_104" fill="none" stroke="none" d="M188.99999783188105,80.99999927729368h12a2,2,0,0,1,2,2v13a2,2,0,0,1,-2,2h-12a2,2,0,0,1,-2,-2v-13a2,2,0,0,1,2,-2z"></path><path id="kity_path_105" fill="black" stroke="none" d="M197.99999786913395,91.99999918043613H191.99999786913395V90.99999918043613h6L197.99999786913395,91.99999918043613L197.99999786913395,91.99999918043613zM197.99999786913395,89.99999918043613H191.99999786913395V88.99999918043613h6V89.99999918043613zM197.99999786913395,87.99999918043613H191.99999786913395V86.99999918043613h6V87.99999918043613zM197.49999786913395,93.99999918043613H190.99999786913395V84.99999918043613h8v7.5M197.99999786913395,94.99999918043613l2,-2V83.99999918043613H189.99999786913395v11"></path></g></g><g id="minder_node17"><g id="node_expander16" style="cursor: pointer;" display="none"><path id="kity_path_205" fill="white" stroke="gray" d="M224.4999983087182,147.00000013411045A6,6,0,1,1,212.4999983087182,147.00000013411045A6,6,0,1,1,224.4999983087182,147.00000013411045"></path><path id="kity_path_206" fill="none" stroke="gray"></path></g><path id="node_outline17" fill="none" stroke="none" d="M24.49999549239874,133.50000012665987h183a5,5,0,0,1,5,5v17a5,5,0,0,1,-5,5h-183a5,5,0,0,1,-5,-5v-17a5,5,0,0,1,5,-5z" stroke-width="3"></path><g id="node_text17" fill="black"><text id="kity_text_202" text-rendering="inherit" font-size="12" dy=".8em" y="138.70000009983778" x="29.49999549239874">为什么SpringBoot 这么简洁</text></g><g id="kity_g_207" style="cursor: pointer;"><path id="kity_path_208" fill="none" stroke="none" d="M188.99999783188105,138.00000012665987h12a2,2,0,0,1,2,2v13a2,2,0,0,1,-2,2h-12a2,2,0,0,1,-2,-2v-13a2,2,0,0,1,2,-2z"></path><path id="kity_path_209" fill="black" stroke="none" d="M197.99999786913395,149.00000002980232H191.99999786913395V148.00000002980232h6L197.99999786913395,149.00000002980232L197.99999786913395,149.00000002980232zM197.99999786913395,147.00000002980232H191.99999786913395V146.00000002980232h6V147.00000002980232zM197.99999786913395,145.00000002980232H191.99999786913395V144.00000002980232h6V145.00000002980232zM197.49999786913395,151.00000002980232H190.99999786913395V142.00000002980232h8v7.5M197.99999786913395,152.00000002980232l2,-2V141.00000002980232H189.99999786913395v11"></path></g></g><g id="minder_node11"><g id="node_expander10" style="cursor: pointer;" display="none"><path id="kity_path_134" fill="white" stroke="gray" d="M199.49999793618917,476.0000050365925A6,6,0,1,1,187.49999793618917,476.0000050365925A6,6,0,1,1,199.49999793618917,476.0000050365925"></path><path id="kity_path_135" fill="none" stroke="gray"></path></g><path id="node_outline11" fill="none" stroke="none" d="M78.49999629706144,462.5000050291419h104a5,5,0,0,1,5,5v17a5,5,0,0,1,-5,5h-104a5,5,0,0,1,-5,-5v-17a5,5,0,0,1,5,-5z" stroke-width="3"></path><g id="node_text11" fill="black"><text id="kity_text_131" text-rendering="inherit" font-size="12" dy=".8em" y="467.7000050023198" x="83.49999629706144">自动管理依赖</text></g><g id="kity_g_136" style="cursor: pointer;"><path id="kity_path_137" fill="none" stroke="none" d="M163.99999745935202,467.0000050291419h12a2,2,0,0,1,2,2v13a2,2,0,0,1,-2,2h-12a2,2,0,0,1,-2,-2v-13a2,2,0,0,1,2,-2z"></path><path id="kity_path_138" fill="black" stroke="none" d="M172.99999749660492,478.00000493228436H166.99999749660492V477.00000493228436h6L172.99999749660492,478.00000493228436L172.99999749660492,478.00000493228436zM172.99999749660492,476.00000493228436H166.99999749660492V475.00000493228436h6V476.00000493228436zM172.99999749660492,474.00000493228436H166.99999749660492V473.00000493228436h6V474.00000493228436zM172.49999749660492,480.00000493228436H165.99999749660492V471.00000493228436h8v7.5M172.99999749660492,481.00000493228436l2,-2V470.00000493228436H164.99999749660492v11"></path></g></g><g id="minder_node12"><g id="node_expander11" style="cursor: pointer;" display="none"><path id="kity_path_145" fill="white" stroke="gray" d="M199.49999793618917,533.0000058859587A6,6,0,1,1,187.49999793618917,533.0000058859587A6,6,0,1,1,199.49999793618917,533.0000058859587"></path><path id="kity_path_146" fill="none" stroke="gray"></path></g><path id="node_outline12" fill="none" stroke="none" d="M101.49999663978815,519.5000058785081h81a5,5,0,0,1,5,5v17a5,5,0,0,1,-5,5h-81a5,5,0,0,1,-5,-5v-17a5,5,0,0,1,5,-5z" stroke-width="3"></path><g id="node_text12" fill="black"><text id="kity_text_142" text-rendering="inherit" font-size="12" dy=".8em" y="524.700005851686" x="106.49999663978815">独立运行</text></g><g id="kity_g_147" style="cursor: pointer;"><path id="kity_path_148" fill="none" stroke="none" d="M163.99999745935202,524.0000058785081h12a2,2,0,0,1,2,2v13a2,2,0,0,1,-2,2h-12a2,2,0,0,1,-2,-2v-13a2,2,0,0,1,2,-2z"></path><path id="kity_path_149" fill="black" stroke="none" d="M172.99999749660492,535.0000057816505H166.99999749660492V534.0000057816505h6L172.99999749660492,535.0000057816505L172.99999749660492,535.0000057816505zM172.99999749660492,533.0000057816505H166.99999749660492V532.0000057816505h6V533.0000057816505zM172.99999749660492,531.0000057816505H166.99999749660492V530.0000057816505h6V531.0000057816505zM172.49999749660492,537.0000057816505H165.99999749660492V528.0000057816505h8v7.5M172.99999749660492,538.0000057816505l2,-2V527.0000057816505H164.99999749660492v11"></path></g></g><g id="minder_node13"><g id="node_expander12" style="cursor: pointer;" display="none"><path id="kity_path_158" fill="white" stroke="gray" d="M199.49999793618917,590.0000067353249A6,6,0,1,1,187.49999793618917,590.0000067353249A6,6,0,1,1,199.49999793618917,590.0000067353249"></path><path id="kity_path_159" fill="none" stroke="gray"></path></g><path id="node_outline13" fill="none" stroke="none" d="M102.49999665468931,576.5000067278743h80a5,5,0,0,1,5,5v17a5,5,0,0,1,-5,5h-80a5,5,0,0,1,-5,-5v-17a5,5,0,0,1,5,-5z" stroke-width="3"></path><g id="node_text13" fill="black"><text id="kity_text_155" text-rendering="inherit" font-size="12" dy=".8em" y="581.7000067010522" x="107.49999665468931">自动配置</text></g><g id="kity_g_160" style="cursor: pointer;"><path id="kity_path_161" fill="none" stroke="none" d="M163.99999745935202,581.0000067278743h12a2,2,0,0,1,2,2v13a2,2,0,0,1,-2,2h-12a2,2,0,0,1,-2,-2v-13a2,2,0,0,1,2,-2z"></path><path id="kity_path_162" fill="black" stroke="none" d="M172.99999749660492,592.0000066310167H166.99999749660492V591.0000066310167h6L172.99999749660492,592.0000066310167L172.99999749660492,592.0000066310167zM172.99999749660492,590.0000066310167H166.99999749660492V589.0000066310167h6V590.0000066310167zM172.99999749660492,588.0000066310167H166.99999749660492V587.0000066310167h6V588.0000066310167zM172.49999749660492,594.0000066310167H165.99999749660492V585.0000066310167h8v7.5M172.99999749660492,595.0000066310167l2,-2V584.0000066310167H164.99999749660492v11"></path></g></g><g id="minder_node14"><g id="node_expander13" style="cursor: pointer;" display="none"><path id="kity_path_169" fill="white" stroke="gray" d="M199.49999793618917,647.000007584691A6,6,0,1,1,187.49999793618917,647.000007584691A6,6,0,1,1,199.49999793618917,647.000007584691"></path><path id="kity_path_170" fill="none" stroke="gray"></path></g><path id="node_outline14" fill="none" stroke="none" d="M89.49999646097422,633.5000075772405h93a5,5,0,0,1,5,5v17a5,5,0,0,1,-5,5h-93a5,5,0,0,1,-5,-5v-17a5,5,0,0,1,5,-5z" stroke-width="3"></path><g id="node_text14" fill="black"><text id="kity_text_166" text-rendering="inherit" font-size="12" dy=".8em" y="638.7000075504184" x="94.49999646097422">外部化配置</text></g><g id="kity_g_171" style="cursor: pointer;"><path id="kity_path_172" fill="none" stroke="none" d="M163.99999745935202,638.0000075772405h12a2,2,0,0,1,2,2v13a2,2,0,0,1,-2,2h-12a2,2,0,0,1,-2,-2v-13a2,2,0,0,1,2,-2z"></path><path id="kity_path_173" fill="black" stroke="none" d="M172.99999749660492,649.0000074803829H166.99999749660492V648.0000074803829h6L172.99999749660492,649.0000074803829L172.99999749660492,649.0000074803829zM172.99999749660492,647.0000074803829H166.99999749660492V646.0000074803829h6V647.0000074803829zM172.99999749660492,645.0000074803829H166.99999749660492V644.0000074803829h6V645.0000074803829zM172.49999749660492,651.0000074803829H165.99999749660492V642.0000074803829h8v7.5M172.99999749660492,652.0000074803829l2,-2V641.0000074803829H164.99999749660492v11"></path></g></g><g id="minder_node15"><g id="node_expander14" style="cursor: pointer;" display="none"><path id="kity_path_180" fill="white" stroke="gray" d="M199.49999793618917,704.0000084340572A6,6,0,1,1,187.49999793618917,704.0000084340572A6,6,0,1,1,199.49999793618917,704.0000084340572"></path><path id="kity_path_181" fill="none" stroke="gray"></path></g><path id="node_outline15" fill="none" stroke="none" d="M52.49999590963125,690.5000084266067h130a5,5,0,0,1,5,5v17a5,5,0,0,1,-5,5h-130a5,5,0,0,1,-5,-5v-17a5,5,0,0,1,5,-5z" stroke-width="3"></path><g id="node_text15" fill="black"><text id="kity_text_177" text-rendering="inherit" font-size="12" dy=".8em" y="695.7000083997846" x="57.49999590963125">嵌入式servlet容器</text></g><g id="kity_g_182" style="cursor: pointer;"><path id="kity_path_183" fill="none" stroke="none" d="M163.99999745935202,695.0000084266067h12a2,2,0,0,1,2,2v13a2,2,0,0,1,-2,2h-12a2,2,0,0,1,-2,-2v-13a2,2,0,0,1,2,-2z"></path><path id="kity_path_184" fill="black" stroke="none" d="M172.99999749660492,706.0000083297491H166.99999749660492V705.0000083297491h6L172.99999749660492,706.0000083297491L172.99999749660492,706.0000083297491zM172.99999749660492,704.0000083297491H166.99999749660492V703.0000083297491h6V704.0000083297491zM172.99999749660492,702.0000083297491H166.99999749660492V701.0000083297491h6V702.0000083297491zM172.49999749660492,708.0000083297491H165.99999749660492V699.0000083297491h8v7.5M172.99999749660492,709.0000083297491l2,-2V698.0000083297491H164.99999749660492v11"></path></g></g><g id="minder_node16"><g id="node_expander15" style="cursor: pointer;" display="none"><path id="kity_path_191" fill="white" stroke="gray" d="M199.49999793618917,761.0000092834234A6,6,0,1,1,187.49999793618917,761.0000092834234A6,6,0,1,1,199.49999793618917,761.0000092834234"></path><path id="kity_path_192" fill="none" stroke="gray"></path></g><path id="node_outline16" fill="none" stroke="none" d="M54.499995939433575,747.5000092759728h128a5,5,0,0,1,5,5v17a5,5,0,0,1,-5,5h-128a5,5,0,0,1,-5,-5v-17a5,5,0,0,1,5,-5z" stroke-width="3"></path><g id="node_text16" fill="black"><text id="kity_text_188" text-rendering="inherit" font-size="12" dy=".8em" y="752.7000092491508" x="59.499995939433575">准生产的应用监控</text></g><g id="kity_g_193" style="cursor: pointer;"><path id="kity_path_194" fill="none" stroke="none" d="M163.99999745935202,752.0000092759728h12a2,2,0,0,1,2,2v13a2,2,0,0,1,-2,2h-12a2,2,0,0,1,-2,-2v-13a2,2,0,0,1,2,-2z"></path><path id="kity_path_195" fill="black" stroke="none" d="M172.99999749660492,763.0000091791153H166.99999749660492V762.0000091791153h6L172.99999749660492,763.0000091791153L172.99999749660492,763.0000091791153zM172.99999749660492,761.0000091791153H166.99999749660492V760.0000091791153h6V761.0000091791153zM172.99999749660492,759.0000091791153H166.99999749660492V758.0000091791153h6V759.0000091791153zM172.49999749660492,765.0000091791153H165.99999749660492V756.0000091791153h8v7.5M172.99999749660492,766.0000091791153l2,-2V755.0000091791153H164.99999749660492v11"></path></g></g><g id="minder_node20"><g id="node_expander19" style="cursor: pointer;" display="none"><path id="kity_path_232" fill="white" stroke="gray" d="M1118.5000116303563,82.99999918043613A6,6,0,1,1,1106.5000116303563,82.99999918043613A6,6,0,1,1,1118.5000116303563,82.99999918043613"></path><path id="kity_path_233" fill="none" stroke="gray"></path></g><path id="node_outline20" fill="none" stroke="none" d="M1123.500011868775,69.49999917298555h174a5,5,0,0,1,5,5v17a5,5,0,0,1,-5,5h-174a5,5,0,0,1,-5,-5v-17a5,5,0,0,1,5,-5z" stroke-width="3"></path><g id="node_text20" fill="black"><text id="kity_text_229" text-rendering="inherit" font-size="12" dy=".8em" y="74.69999914616346" x="1128.500011868775">@SpringBootApplication</text></g><g id="kity_g_234" style="cursor: pointer;"><path id="kity_path_235" fill="none" stroke="none" d="M1279.0000140741467,73.99999917298555h12a2,2,0,0,1,2,2v13a2,2,0,0,1,-2,2h-12a2,2,0,0,1,-2,-2v-13a2,2,0,0,1,2,-2z"></path><path id="kity_path_236" fill="black" stroke="none" d="M1288.0000141113997,84.999999076128H1282.0000141113997V83.999999076128h6L1288.0000141113997,84.999999076128L1288.0000141113997,84.999999076128zM1288.0000141113997,82.999999076128H1282.0000141113997V81.999999076128h6V82.999999076128zM1288.0000141113997,80.999999076128H1282.0000141113997V79.999999076128h6V80.999999076128zM1287.5000141113997,86.999999076128H1281.0000141113997V77.999999076128h8v7.5M1288.0000141113997,87.999999076128l2,-2V76.999999076128H1280.0000141113997v11"></path></g></g><g id="minder_node22"><g id="node_expander21" style="cursor: pointer;" display="none"><path id="kity_path_251" fill="white" stroke="gray" d="M1118.5000116303563,140.00000002980232A6,6,0,1,1,1106.5000116303563,140.00000002980232A6,6,0,1,1,1118.5000116303563,140.00000002980232"></path><path id="kity_path_252" fill="none" stroke="gray"></path></g><path id="node_outline22" fill="none" stroke="none" d="M1123.500011868775,126.50000002235174h185a5,5,0,0,1,5,5v17a5,5,0,0,1,-5,5h-185a5,5,0,0,1,-5,-5v-17a5,5,0,0,1,5,-5z" stroke-width="3"></path><g id="node_text22" fill="black"><text id="kity_text_248" text-rendering="inherit" font-size="12" dy=".8em" y="131.69999999552965" x="1128.500011868775">&#xa0;@EableAutoConfiguration</text></g><g id="kity_g_253" style="cursor: pointer;"><path id="kity_path_254" fill="none" stroke="none" d="M1290.0000142380595,131.00000002235174h12a2,2,0,0,1,2,2v13a2,2,0,0,1,-2,2h-12a2,2,0,0,1,-2,-2v-13a2,2,0,0,1,2,-2z"></path><path id="kity_path_255" fill="black" stroke="none" d="M1299.0000142753124,141.9999999254942H1293.0000142753124V140.9999999254942h6L1299.0000142753124,141.9999999254942L1299.0000142753124,141.9999999254942zM1299.0000142753124,139.9999999254942H1293.0000142753124V138.9999999254942h6V139.9999999254942zM1299.0000142753124,137.9999999254942H1293.0000142753124V136.9999999254942h6V137.9999999254942zM1298.5000142753124,143.9999999254942H1292.0000142753124V134.9999999254942h8v7.5M1299.0000142753124,144.9999999254942l2,-2V133.9999999254942H1291.0000142753124v11"></path></g></g><g id="minder_node23"><g id="node_expander22" style="cursor: pointer;" display="none"><path id="kity_path_262" fill="white" stroke="gray" d="M1118.5000116303563,197.0000008791685A6,6,0,1,1,1106.5000116303563,197.0000008791685A6,6,0,1,1,1118.5000116303563,197.0000008791685"></path><path id="kity_path_263" fill="none" stroke="gray"></path></g><path id="node_outline23" fill="none" stroke="none" d="M1123.500011868775,183.50000087171793h123a5,5,0,0,1,5,5v17a5,5,0,0,1,-5,5h-123a5,5,0,0,1,-5,-5v-17a5,5,0,0,1,5,-5z" stroke-width="3"></path><g id="node_text23" fill="black"><text id="kity_text_259" text-rendering="inherit" font-size="12" dy=".8em" y="188.70000084489584" x="1128.500011868775">@Configuration</text></g><g id="kity_g_264" style="cursor: pointer;"><path id="kity_path_265" fill="none" stroke="none" d="M1228.0000133141875,188.00000087171793h12a2,2,0,0,1,2,2v13a2,2,0,0,1,-2,2h-12a2,2,0,0,1,-2,-2v-13a2,2,0,0,1,2,-2z"></path><path id="kity_path_266" fill="black" stroke="none" d="M1237.0000133514404,199.00000077486038H1231.0000133514404V198.00000077486038h6L1237.0000133514404,199.00000077486038L1237.0000133514404,199.00000077486038zM1237.0000133514404,197.00000077486038H1231.0000133514404V196.00000077486038h6V197.00000077486038zM1237.0000133514404,195.00000077486038H1231.0000133514404V194.00000077486038h6V195.00000077486038zM1236.5000133514404,201.00000077486038H1230.0000133514404V192.00000077486038h8v7.5M1237.0000133514404,202.00000077486038l2,-2V191.00000077486038H1229.0000133514404v11"></path></g></g><g id="minder_node24"><g id="node_expander23" style="cursor: pointer;" display="none"><path id="kity_path_273" fill="white" stroke="gray" d="M1118.5000116303563,254.0000017285347A6,6,0,1,1,1106.5000116303563,254.0000017285347A6,6,0,1,1,1118.5000116303563,254.0000017285347"></path><path id="kity_path_274" fill="none" stroke="gray"></path></g><path id="node_outline24" fill="none" stroke="none" d="M1123.500011868775,240.50000172108412h133a5,5,0,0,1,5,5v17a5,5,0,0,1,-5,5h-133a5,5,0,0,1,-5,-5v-17a5,5,0,0,1,5,-5z" stroke-width="3"></path><g id="node_text24" fill="black"><text id="kity_text_270" text-rendering="inherit" font-size="12" dy=".8em" y="245.70000169426203" x="1128.500011868775">@PropertySource</text></g><g id="kity_g_275" style="cursor: pointer;"><path id="kity_path_276" fill="none" stroke="none" d="M1238.0000134631991,245.00000172108412h12a2,2,0,0,1,2,2v13a2,2,0,0,1,-2,2h-12a2,2,0,0,1,-2,-2v-13a2,2,0,0,1,2,-2z"></path><path id="kity_path_277" fill="black" stroke="none" d="M1247.000013500452,256.00000162422657H1241.000013500452V255.00000162422657h6L1247.000013500452,256.00000162422657L1247.000013500452,256.00000162422657zM1247.000013500452,254.00000162422657H1241.000013500452V253.00000162422657h6V254.00000162422657zM1247.000013500452,252.00000162422657H1241.000013500452V251.00000162422657h6V252.00000162422657zM1246.500013500452,258.00000162422657H1240.000013500452V249.00000162422657h8v7.5M1247.000013500452,259.00000162422657l2,-2V248.00000162422657H1239.000013500452v11"></path></g></g><g id="minder_node25"><g id="node_expander24" style="cursor: pointer;" display="none"><path id="kity_path_284" fill="white" stroke="gray" d="M1118.5000116303563,308.500002540648A6,6,0,1,1,1106.5000116303563,308.500002540648A6,6,0,1,1,1118.5000116303563,308.500002540648"></path><path id="kity_path_285" fill="none" stroke="gray"></path></g><path id="node_outline25" fill="none" stroke="none" d="M1123.500011868775,297.500002540648h115a5,5,0,0,1,5,5v12a5,5,0,0,1,-5,5h-115a5,5,0,0,1,-5,-5v-12a5,5,0,0,1,5,-5z" stroke-width="3"></path><g id="node_text25" fill="black"><text id="kity_text_281" text-rendering="inherit" font-size="12" dy=".8em" y="300.7000025138259" x="1128.500011868775">@ImportResource</text></g></g><g id="minder_node26"><g id="node_expander25" style="cursor: pointer;" display="none"><path id="kity_path_292" fill="white" stroke="gray" d="M1118.5000116303563,363.00000335276127A6,6,0,1,1,1106.5000116303563,363.00000335276127A6,6,0,1,1,1118.5000116303563,363.00000335276127"></path><path id="kity_path_293" fill="none" stroke="gray"></path></g><path id="node_outline26" fill="none" stroke="none" d="M1123.500011868775,349.5000033453107h97a5,5,0,0,1,5,5v17a5,5,0,0,1,-5,5h-97a5,5,0,0,1,-5,-5v-17a5,5,0,0,1,5,-5z" stroke-width="3"></path><g id="node_text26" fill="black"><text id="kity_text_289" text-rendering="inherit" font-size="12" dy=".8em" y="354.7000033184886" x="1128.500011868775">Enviorment</text></g><g id="kity_g_294" style="cursor: pointer;"><path id="kity_path_295" fill="none" stroke="none" d="M1202.0000129267573,354.0000033453107h12a2,2,0,0,1,2,2v13a2,2,0,0,1,-2,2h-12a2,2,0,0,1,-2,-2v-13a2,2,0,0,1,2,-2z"></path><path id="kity_path_296" fill="black" stroke="none" d="M1211.0000129640102,365.00000324845314H1205.0000129640102V364.00000324845314h6L1211.0000129640102,365.00000324845314L1211.0000129640102,365.00000324845314zM1211.0000129640102,363.00000324845314H1205.0000129640102V362.00000324845314h6V363.00000324845314zM1211.0000129640102,361.00000324845314H1205.0000129640102V360.00000324845314h6V361.00000324845314zM1210.5000129640102,367.00000324845314H1204.0000129640102V358.00000324845314h8v7.5M1211.0000129640102,368.00000324845314l2,-2V357.00000324845314H1203.0000129640102v11"></path></g></g><g id="minder_node19"><g id="node_expander18" style="cursor: pointer;"><path id="kity_path_224" fill="white" stroke="gray" d="M1008.5000099912286,222.50000125914812A6,6,0,1,1,996.5000099912286,222.50000125914812A6,6,0,1,1,1008.5000099912286,222.50000125914812"></path><path id="kity_path_225" fill="none" stroke="gray" d="M998.0000099912286,222.50000125914812L1007.0000099912286,222.50000125914812"></path></g><path id="node_outline19" fill="none" stroke="none" d="M1013.5000102296472,211.50000125914812h60a5,5,0,0,1,5,5v12a5,5,0,0,1,-5,5h-60a5,5,0,0,1,-5,-5v-12a5,5,0,0,1,5,-5z" stroke-width="3"></path><g id="node_text19" fill="black"><text id="kity_text_221" text-rendering="inherit" font-size="12" dy=".8em" y="214.70000123232603" x="1018.5000102296472">核心注解</text></g></g><g id="minder_node28"><g id="node_expander27" style="cursor: pointer;" display="none"><path id="kity_path_314" fill="white" stroke="gray" d="M1139.5000119432807,420.00000420212746A6,6,0,1,1,1127.5000119432807,420.00000420212746A6,6,0,1,1,1139.5000119432807,420.00000420212746"></path><path id="kity_path_315" fill="none" stroke="gray"></path></g><path id="node_outline28" fill="none" stroke="none" d="M1144.5000121816993,406.5000041946769h69a5,5,0,0,1,5,5v17a5,5,0,0,1,-5,5h-69a5,5,0,0,1,-5,-5v-17a5,5,0,0,1,5,-5z" stroke-width="3"></path><g id="node_text28" fill="black"><text id="kity_text_311" text-rendering="inherit" font-size="12" dy=".8em" y="411.7000041678548" x="1149.5000121816993">入口类</text></g><g id="kity_g_316" style="cursor: pointer;"><path id="kity_path_317" fill="none" stroke="none" d="M1195.0000128224492,411.0000041946769h12a2,2,0,0,1,2,2v13a2,2,0,0,1,-2,2h-12a2,2,0,0,1,-2,-2v-13a2,2,0,0,1,2,-2z"></path><path id="kity_path_318" fill="black" stroke="none" d="M1204.000012859702,422.0000040978193H1198.000012859702V421.0000040978193h6L1204.000012859702,422.0000040978193L1204.000012859702,422.0000040978193zM1204.000012859702,420.0000040978193H1198.000012859702V419.0000040978193h6V420.0000040978193zM1204.000012859702,418.0000040978193H1198.000012859702V417.0000040978193h6V418.0000040978193zM1203.500012859702,424.0000040978193H1197.000012859702V415.0000040978193h8v7.5M1204.000012859702,425.0000040978193l2,-2V414.0000040978193H1196.000012859702v11"></path></g></g><g id="minder_node29"><g id="node_expander28" style="cursor: pointer;" display="none"><path id="kity_path_325" fill="white" stroke="gray" d="M1139.5000119432807,477.00000505149364A6,6,0,1,1,1127.5000119432807,477.00000505149364A6,6,0,1,1,1139.5000119432807,477.00000505149364"></path><path id="kity_path_326" fill="none" stroke="gray"></path></g><path id="node_outline29" fill="none" stroke="none" d="M1144.5000121816993,463.50000504404306h140a5,5,0,0,1,5,5v17a5,5,0,0,1,-5,5h-140a5,5,0,0,1,-5,-5v-17a5,5,0,0,1,5,-5z" stroke-width="3"></path><g id="node_text29" fill="black"><text id="kity_text_322" text-rendering="inherit" font-size="12" dy=".8em" y="468.700005017221" x="1149.5000121816993">关闭特定的自动配置</text></g><g id="kity_g_327" style="cursor: pointer;"><path id="kity_path_328" fill="none" stroke="none" d="M1266.0000138804317,468.00000504404306h12a2,2,0,0,1,2,2v13a2,2,0,0,1,-2,2h-12a2,2,0,0,1,-2,-2v-13a2,2,0,0,1,2,-2z"></path><path id="kity_path_329" fill="black" stroke="none" d="M1275.0000139176846,479.0000049471855H1269.0000139176846V478.0000049471855h6L1275.0000139176846,479.0000049471855L1275.0000139176846,479.0000049471855zM1275.0000139176846,477.0000049471855H1269.0000139176846V476.0000049471855h6V477.0000049471855zM1275.0000139176846,475.0000049471855H1269.0000139176846V474.0000049471855h6V475.0000049471855zM1274.5000139176846,481.0000049471855H1268.0000139176846V472.0000049471855h8v7.5M1275.0000139176846,482.0000049471855l2,-2V471.0000049471855H1267.0000139176846v11"></path></g></g><g id="minder_node31"><g id="node_expander30" style="cursor: pointer;" display="none"><path id="kity_path_344" fill="white" stroke="gray" d="M1264.5000138059258,534.0000059008598A6,6,0,1,1,1252.5000138059258,534.0000059008598A6,6,0,1,1,1264.5000138059258,534.0000059008598"></path><path id="kity_path_345" fill="none" stroke="gray"></path></g><path id="node_outline31" fill="none" stroke="none" d="M1269.5000140443444,520.5000058934093h96a5,5,0,0,1,5,5v17a5,5,0,0,1,-5,5h-96a5,5,0,0,1,-5,-5v-17a5,5,0,0,1,5,-5z" stroke-width="3"></path><g id="node_text31" fill="black"><text id="kity_text_341" text-rendering="inherit" font-size="12" dy=".8em" y="525.7000058665872" x="1274.5000140443444">修改Banner</text></g><g id="kity_g_357" style="cursor: pointer;"><path id="kity_path_358" fill="none" stroke="none" d="M1347.0000150874257,525.0000058934093h12a2,2,0,0,1,2,2v13a2,2,0,0,1,-2,2h-12a2,2,0,0,1,-2,-2v-13a2,2,0,0,1,2,-2z"></path><path id="kity_path_359" fill="black" stroke="none" d="M1356.0000151246786,536.0000057965517H1350.0000151246786V535.0000057965517h6L1356.0000151246786,536.0000057965517L1356.0000151246786,536.0000057965517zM1356.0000151246786,534.0000057965517H1350.0000151246786V533.0000057965517h6V534.0000057965517zM1356.0000151246786,532.0000057965517H1350.0000151246786V531.0000057965517h6V532.0000057965517zM1355.5000151246786,538.0000057965517H1349.0000151246786V529.0000057965517h8v7.5M1356.0000151246786,539.0000057965517l2,-2V528.0000057965517H1348.0000151246786v11"></path></g></g><g id="minder_node32"><g id="node_expander31" style="cursor: pointer;" display="none"><path id="kity_path_352" fill="white" stroke="gray" d="M1264.5000138059258,591.000006750226A6,6,0,1,1,1252.5000138059258,591.000006750226A6,6,0,1,1,1264.5000138059258,591.000006750226"></path><path id="kity_path_353" fill="none" stroke="gray"></path></g><path id="node_outline32" fill="none" stroke="none" d="M1269.5000140443444,577.5000067427754h96a5,5,0,0,1,5,5v17a5,5,0,0,1,-5,5h-96a5,5,0,0,1,-5,-5v-17a5,5,0,0,1,5,-5z" stroke-width="3"></path><g id="node_text32" fill="black"><text id="kity_text_349" text-rendering="inherit" font-size="12" dy=".8em" y="582.7000067159534" x="1274.5000140443444">关闭Banner</text></g><g id="kity_g_354" style="cursor: pointer;"><path id="kity_path_355" fill="none" stroke="none" d="M1347.0000150874257,582.0000067427754h12a2,2,0,0,1,2,2v13a2,2,0,0,1,-2,2h-12a2,2,0,0,1,-2,-2v-13a2,2,0,0,1,2,-2z"></path><path id="kity_path_356" fill="black" stroke="none" d="M1356.0000151246786,593.0000066459179H1350.0000151246786V592.0000066459179h6L1356.0000151246786,593.0000066459179L1356.0000151246786,593.0000066459179zM1356.0000151246786,591.0000066459179H1350.0000151246786V590.0000066459179h6V591.0000066459179zM1356.0000151246786,589.0000066459179H1350.0000151246786V588.0000066459179h6V589.0000066459179zM1355.5000151246786,595.0000066459179H1349.0000151246786V586.0000066459179h8v7.5M1356.0000151246786,596.0000066459179l2,-2V585.0000066459179H1348.0000151246786v11"></path></g></g><g id="minder_node34"><g id="node_expander33" style="cursor: pointer;" display="none"><path id="kity_path_380" fill="white" stroke="gray" d="M1264.5000138059258,648.0000075995922A6,6,0,1,1,1252.5000138059258,648.0000075995922A6,6,0,1,1,1264.5000138059258,648.0000075995922"></path><path id="kity_path_381" fill="none" stroke="gray"></path></g><path id="node_outline34" fill="none" stroke="none" d="M1269.5000140443444,634.5000075921416h132a5,5,0,0,1,5,5v17a5,5,0,0,1,-5,5h-132a5,5,0,0,1,-5,-5v-17a5,5,0,0,1,5,-5z" stroke-width="3"></path><g id="node_text34" fill="black"><text id="kity_text_374" text-rendering="inherit" font-size="12" dy=".8em" y="639.7000075653195" x="1274.5000140443444">SpringBoot的配置</text></g><g id="kity_g_375" style="cursor: pointer;"><path id="kity_path_376" fill="none" stroke="none" d="M1383.0000156238675,639.0000075921416h12a2,2,0,0,1,2,2v13a2,2,0,0,1,-2,2h-12a2,2,0,0,1,-2,-2v-13a2,2,0,0,1,2,-2z"></path><path id="kity_path_377" fill="black" stroke="none" d="M1392.0000156611204,650.0000074952841H1386.0000156611204V649.0000074952841h6L1392.0000156611204,650.0000074952841L1392.0000156611204,650.0000074952841zM1392.0000156611204,648.0000074952841H1386.0000156611204V647.0000074952841h6V648.0000074952841zM1392.0000156611204,646.0000074952841H1386.0000156611204V645.0000074952841h6V646.0000074952841zM1391.5000156611204,652.0000074952841H1385.0000156611204V643.0000074952841h8v7.5M1392.0000156611204,653.0000074952841l2,-2V642.0000074952841H1384.0000156611204v11"></path></g></g><g id="minder_node30"><g id="node_expander29" style="cursor: pointer;"><path id="kity_path_336" fill="white" stroke="gray" d="M1139.5000119432807,590.5000067427754A6,6,0,1,1,1127.5000119432807,590.5000067427754A6,6,0,1,1,1139.5000119432807,590.5000067427754"></path><path id="kity_path_337" fill="none" stroke="gray" d="M1129.0000119432807,590.5000067427754L1138.0000119432807,590.5000067427754"></path></g><path id="node_outline30" fill="none" stroke="none" d="M1144.5000121816993,579.5000067427754h75a5,5,0,0,1,5,5v12a5,5,0,0,1,-5,5h-75a5,5,0,0,1,-5,-5v-12a5,5,0,0,1,5,-5z" stroke-width="3"></path><g id="node_text30" fill="black"><text id="kity_text_333" text-rendering="inherit" font-size="12" dy=".8em" y="582.7000067159534" x="1149.5000121816993">定制Banner</text></g></g><g id="minder_node37"><g id="node_expander36" style="cursor: pointer;" display="none"><path id="kity_path_410" fill="white" stroke="gray" d="M1139.5000119432807,705.0000084489584A6,6,0,1,1,1127.5000119432807,705.0000084489584A6,6,0,1,1,1139.5000119432807,705.0000084489584"></path><path id="kity_path_411" fill="none" stroke="gray"></path></g><path id="node_outline37" fill="none" stroke="none" d="M1144.5000121816993,691.5000084415078h98a5,5,0,0,1,5,5v17a5,5,0,0,1,-5,5h-98a5,5,0,0,1,-5,-5v-17a5,5,0,0,1,5,-5z" stroke-width="3"></path><g id="node_text37" fill="black"><text id="kity_text_404" text-rendering="inherit" font-size="12" dy=".8em" y="696.7000084146857" x="1149.5000121816993">starter pom</text></g><g id="kity_g_405" style="cursor: pointer;"><path id="kity_path_406" fill="none" stroke="none" d="M1224.0000132545829,696.0000084415078h12a2,2,0,0,1,2,2v13a2,2,0,0,1,-2,2h-12a2,2,0,0,1,-2,-2v-13a2,2,0,0,1,2,-2z"></path><path id="kity_path_407" fill="black" stroke="none" d="M1233.0000132918358,707.0000083446503H1227.0000132918358V706.0000083446503h6L1233.0000132918358,707.0000083446503L1233.0000132918358,707.0000083446503zM1233.0000132918358,705.0000083446503H1227.0000132918358V704.0000083446503h6V705.0000083446503zM1233.0000132918358,703.0000083446503H1227.0000132918358V702.0000083446503h6V703.0000083446503zM1232.5000132918358,709.0000083446503H1226.0000132918358V700.0000083446503h8v7.5M1233.0000132918358,710.0000083446503l2,-2V699.0000083446503H1225.0000132918358v11"></path></g></g><g id="minder_node27"><g id="node_expander26" style="cursor: pointer;"><path id="kity_path_303" fill="white" stroke="gray" d="M1008.5000099912286,562.0000063180923A6,6,0,1,1,996.5000099912286,562.0000063180923A6,6,0,1,1,1008.5000099912286,562.0000063180923"></path><path id="kity_path_304" fill="none" stroke="gray" d="M998.0000099912286,562.0000063180923L1007.0000099912286,562.0000063180923"></path></g><path id="node_outline27" fill="none" stroke="none" d="M1013.5000102296472,548.5000063106418h81a5,5,0,0,1,5,5v17a5,5,0,0,1,-5,5h-81a5,5,0,0,1,-5,-5v-17a5,5,0,0,1,5,-5z" stroke-width="3"></path><g id="node_text27" fill="black"><text id="kity_text_300" text-rendering="inherit" font-size="12" dy=".8em" y="553.7000062838197" x="1018.5000102296472">基本配置</text></g><g id="kity_g_305" style="cursor: pointer;"><path id="kity_path_306" fill="none" stroke="none" d="M1076.000011049211,553.0000063106418h12a2,2,0,0,1,2,2v13a2,2,0,0,1,-2,2h-12a2,2,0,0,1,-2,-2v-13a2,2,0,0,1,2,-2z"></path><path id="kity_path_307" fill="black" stroke="none" d="M1085.000011086464,564.0000062137842H1079.000011086464V563.0000062137842h6L1085.000011086464,564.0000062137842L1085.000011086464,564.0000062137842zM1085.000011086464,562.0000062137842H1079.000011086464V561.0000062137842h6V562.0000062137842zM1085.000011086464,560.0000062137842H1079.000011086464V559.0000062137842h6V560.0000062137842zM1084.500011086464,566.0000062137842H1078.000011086464V557.0000062137842h8v7.5M1085.000011086464,567.0000062137842l2,-2V556.0000062137842H1077.000011086464v11"></path></g></g><g id="minder_node39"><g id="node_expander38" style="cursor: pointer;" display="none"><path id="kity_path_429" fill="white" stroke="gray" d="M1139.5000119432807,762.0000092983246A6,6,0,1,1,1127.5000119432807,762.0000092983246A6,6,0,1,1,1139.5000119432807,762.0000092983246"></path><path id="kity_path_430" fill="none" stroke="gray"></path></g><path id="node_outline39" fill="none" stroke="none" d="M1144.5000121816993,748.500009290874h117a5,5,0,0,1,5,5v17a5,5,0,0,1,-5,5h-117a5,5,0,0,1,-5,-5v-17a5,5,0,0,1,5,-5z" stroke-width="3"></path><g id="node_text39" fill="black"><text id="kity_text_426" text-rendering="inherit" font-size="12" dy=".8em" y="753.7000092640519" x="1149.5000121816993">命令行参数配置</text></g><g id="kity_g_447" style="cursor: pointer;"><path id="kity_path_448" fill="none" stroke="none" d="M1243.000013537705,753.000009290874h12a2,2,0,0,1,2,2v13a2,2,0,0,1,-2,2h-12a2,2,0,0,1,-2,-2v-13a2,2,0,0,1,2,-2z"></path><path id="kity_path_449" fill="black" stroke="none" d="M1252.0000135749578,764.0000091940165H1246.0000135749578V763.0000091940165h6L1252.0000135749578,764.0000091940165L1252.0000135749578,764.0000091940165zM1252.0000135749578,762.0000091940165H1246.0000135749578V761.0000091940165h6V762.0000091940165zM1252.0000135749578,760.0000091940165H1246.0000135749578V759.0000091940165h6V760.0000091940165zM1251.5000135749578,766.0000091940165H1245.0000135749578V757.0000091940165h8v7.5M1252.0000135749578,767.0000091940165l2,-2V756.0000091940165H1244.0000135749578v11"></path></g></g><g id="minder_node41"><g id="node_expander40" style="cursor: pointer;" display="none"><path id="kity_path_445" fill="white" stroke="gray" d="M1249.5000135824084,819.0000101476908A6,6,0,1,1,1237.5000135824084,819.0000101476908A6,6,0,1,1,1249.5000135824084,819.0000101476908"></path><path id="kity_path_446" fill="none" stroke="gray"></path></g><path id="node_outline41" fill="none" stroke="none" d="M1254.500013820827,805.5000101402402h104a5,5,0,0,1,5,5v17a5,5,0,0,1,-5,5h-104a5,5,0,0,1,-5,-5v-17a5,5,0,0,1,5,-5z" stroke-width="3"></path><g id="node_text41" fill="black"><text id="kity_text_442" text-rendering="inherit" font-size="12" dy=".8em" y="810.7000101134181" x="1259.500013820827">常规属性配置</text></g><g id="kity_g_450" style="cursor: pointer;"><path id="kity_path_451" fill="none" stroke="none" d="M1340.0000149831176,810.0000101402402h12a2,2,0,0,1,2,2v13a2,2,0,0,1,-2,2h-12a2,2,0,0,1,-2,-2v-13a2,2,0,0,1,2,-2z"></path><path id="kity_path_452" fill="black" stroke="none" d="M1349.0000150203705,821.0000100433826H1343.0000150203705V820.0000100433826h6L1349.0000150203705,821.0000100433826L1349.0000150203705,821.0000100433826zM1349.0000150203705,819.0000100433826H1343.0000150203705V818.0000100433826h6V819.0000100433826zM1349.0000150203705,817.0000100433826H1343.0000150203705V816.0000100433826h6V817.0000100433826zM1348.5000150203705,823.0000100433826H1342.0000150203705V814.0000100433826h8v7.5M1349.0000150203705,824.0000100433826l2,-2V813.0000100433826H1341.0000150203705v11"></path></g></g><g id="minder_node42"><g id="node_expander41" style="cursor: pointer;" display="none"><path id="kity_path_459" fill="white" stroke="gray" d="M1249.5000135824084,876.000010997057A6,6,0,1,1,1237.5000135824084,876.000010997057A6,6,0,1,1,1249.5000135824084,876.000010997057"></path><path id="kity_path_460" fill="none" stroke="gray"></path></g><path id="node_outline42" fill="none" stroke="none" d="M1254.500013820827,862.5000109896064h117a5,5,0,0,1,5,5v17a5,5,0,0,1,-5,5h-117a5,5,0,0,1,-5,-5v-17a5,5,0,0,1,5,-5z" stroke-width="3"></path><g id="node_text42" fill="black"><text id="kity_text_456" text-rendering="inherit" font-size="12" dy=".8em" y="867.7000109627843" x="1259.500013820827">类型安全的配置</text></g><g id="kity_g_461" style="cursor: pointer;"><path id="kity_path_462" fill="none" stroke="none" d="M1353.0000151768327,867.0000109896064h12a2,2,0,0,1,2,2v13a2,2,0,0,1,-2,2h-12a2,2,0,0,1,-2,-2v-13a2,2,0,0,1,2,-2z"></path><path id="kity_path_463" fill="black" stroke="none" d="M1362.0000152140856,878.0000108927488H1356.0000152140856V877.0000108927488h6L1362.0000152140856,878.0000108927488L1362.0000152140856,878.0000108927488zM1362.0000152140856,876.0000108927488H1356.0000152140856V875.0000108927488h6V876.0000108927488zM1362.0000152140856,874.0000108927488H1356.0000152140856V873.0000108927488h6V874.0000108927488zM1361.5000152140856,880.0000108927488H1355.0000152140856V871.0000108927488h8v7.5M1362.0000152140856,881.0000108927488l2,-2V870.0000108927488H1354.0000152140856v11"></path></g></g><g id="minder_node40"><g id="node_expander39" style="cursor: pointer;"><path id="kity_path_437" fill="white" stroke="gray" d="M1139.5000119432807,847.5000105723739A6,6,0,1,1,1127.5000119432807,847.5000105723739A6,6,0,1,1,1139.5000119432807,847.5000105723739"></path><path id="kity_path_438" fill="none" stroke="gray" d="M1129.0000119432807,847.5000105723739L1138.0000119432807,847.5000105723739"></path></g><path id="node_outline40" fill="none" stroke="none" d="M1144.5000121816993,836.5000105723739h60a5,5,0,0,1,5,5v12a5,5,0,0,1,-5,5h-60a5,5,0,0,1,-5,-5v-12a5,5,0,0,1,5,-5z" stroke-width="3"></path><g id="node_text40" fill="black"><text id="kity_text_434" text-rendering="inherit" font-size="12" dy=".8em" y="839.7000105455518" x="1149.5000121816993">属性配置</text></g></g><g id="minder_node36"><g id="node_expander35" style="cursor: pointer;"><path id="kity_path_399" fill="white" stroke="gray" d="M1008.5000099912286,803.0000099092722A6,6,0,1,1,996.5000099912286,803.0000099092722A6,6,0,1,1,1008.5000099912286,803.0000099092722"></path><path id="kity_path_400" fill="none" stroke="gray" d="M998.0000099912286,803.0000099092722L1007.0000099912286,803.0000099092722"></path></g><path id="node_outline36" fill="none" stroke="none" d="M1013.5000102296472,789.5000099018216h81a5,5,0,0,1,5,5v17a5,5,0,0,1,-5,5h-81a5,5,0,0,1,-5,-5v-17a5,5,0,0,1,5,-5z" stroke-width="3"></path><g id="node_text36" fill="black"><text id="kity_text_396" text-rendering="inherit" font-size="12" dy=".8em" y="794.7000098749995" x="1018.5000102296472">外部配置</text></g><g id="kity_g_412" style="cursor: pointer;"><path id="kity_path_413" fill="none" stroke="none" d="M1076.000011049211,794.0000099018216h12a2,2,0,0,1,2,2v13a2,2,0,0,1,-2,2h-12a2,2,0,0,1,-2,-2v-13a2,2,0,0,1,2,-2z"></path><path id="kity_path_414" fill="black" stroke="none" d="M1085.000011086464,805.0000098049641H1079.000011086464V804.0000098049641h6L1085.000011086464,805.0000098049641L1085.000011086464,805.0000098049641zM1085.000011086464,803.0000098049641H1079.000011086464V802.0000098049641h6V803.0000098049641zM1085.000011086464,801.0000098049641H1079.000011086464V800.0000098049641h6V801.0000098049641zM1084.500011086464,807.0000098049641H1078.000011086464V798.0000098049641h8v7.5M1085.000011086464,808.0000098049641l2,-2V797.0000098049641H1077.000011086464v11"></path></g></g><g id="minder_node43"><g id="node_expander42" style="cursor: pointer;" display="none"><path id="kity_path_470" fill="white" stroke="gray" d="M1008.5000099912286,933.0000118464231A6,6,0,1,1,996.5000099912286,933.0000118464231A6,6,0,1,1,1008.5000099912286,933.0000118464231"></path><path id="kity_path_471" fill="none" stroke="gray"></path></g><path id="node_outline43" fill="none" stroke="none" d="M1013.5000102296472,919.5000118389726h80a5,5,0,0,1,5,5v17a5,5,0,0,1,-5,5h-80a5,5,0,0,1,-5,-5v-17a5,5,0,0,1,5,-5z" stroke-width="3"></path><g id="node_text43" fill="black"><text id="kity_text_467" text-rendering="inherit" font-size="12" dy=".8em" y="924.7000118121505" x="1018.5000102296472">日志配置</text></g><g id="kity_g_480" style="cursor: pointer;"><path id="kity_path_481" fill="none" stroke="none" d="M1075.0000110343099,924.0000118389726h12a2,2,0,0,1,2,2v13a2,2,0,0,1,-2,2h-12a2,2,0,0,1,-2,-2v-13a2,2,0,0,1,2,-2z"></path><path id="kity_path_482" fill="black" stroke="none" d="M1084.0000110715628,935.000011742115H1078.0000110715628V934.000011742115h6L1084.0000110715628,935.000011742115L1084.0000110715628,935.000011742115zM1084.0000110715628,933.000011742115H1078.0000110715628V932.000011742115h6V933.000011742115zM1084.0000110715628,931.000011742115H1078.0000110715628V930.000011742115h6V931.000011742115zM1083.5000110715628,937.000011742115H1077.0000110715628V928.000011742115h8v7.5M1084.0000110715628,938.000011742115l2,-2V927.000011742115H1076.0000110715628v11"></path></g></g><g id="minder_node45"><g id="node_expander44" style="cursor: pointer;" display="none"><path id="kity_path_489" fill="white" stroke="gray" d="M1008.5000099912286,990.0000126957893A6,6,0,1,1,996.5000099912286,990.0000126957893A6,6,0,1,1,1008.5000099912286,990.0000126957893"></path><path id="kity_path_490" fill="none" stroke="gray"></path></g><path id="node_outline45" fill="none" stroke="none" d="M1013.5000102296472,976.5000126883388h93a5,5,0,0,1,5,5v17a5,5,0,0,1,-5,5h-93a5,5,0,0,1,-5,-5v-17a5,5,0,0,1,5,-5z" stroke-width="3"></path><g id="node_text45" fill="black"><text id="kity_text_486" text-rendering="inherit" font-size="12" dy=".8em" y="981.7000126615167" x="1018.5000102296472">Profile配置</text></g><g id="kity_g_491" style="cursor: pointer;"><path id="kity_path_492" fill="none" stroke="none" d="M1088.000011228025,981.0000126883388h12a2,2,0,0,1,2,2v13a2,2,0,0,1,-2,2h-12a2,2,0,0,1,-2,-2v-13a2,2,0,0,1,2,-2z"></path><path id="kity_path_493" fill="black" stroke="none" d="M1097.0000112652779,992.0000125914812H1091.0000112652779V991.0000125914812h6L1097.0000112652779,992.0000125914812L1097.0000112652779,992.0000125914812zM1097.0000112652779,990.0000125914812H1091.0000112652779V989.0000125914812h6V990.0000125914812zM1097.0000112652779,988.0000125914812H1091.0000112652779V987.0000125914812h6V988.0000125914812zM1096.5000112652779,994.0000125914812H1090.0000112652779V985.0000125914812h8v7.5M1097.0000112652779,995.0000125914812l2,-2V984.0000125914812H1089.0000112652779v11"></path></g></g></g></g></svg>