<svg id="kity_svg_6" xmlns="http://www.w3.org/2000/svg" xmlns:xlink="http://www.w3.org/1999/xlink" version="1.1" width="1936" height="1698" style="background: rgb(251, 251, 251); visibility: visible;" viewBox="0 0 1936 1698"><defs id="kity_defs_7"><linearGradient id="kity_linearGradient_17" x1="0" y1="0" x2="0" y2="1"><stop id="kity_stop_18" offset="0" stop-color="rgb(255, 255, 255)"></stop><stop id="kity_stop_19" offset="1" stop-color="rgb(204, 204, 204)"></stop></linearGradient><marker id="kity_marker_2" orient="auto" refX="6" refY="0" viewBox="-7 -7 14 14" markerWidth="7" markerHeight="7" markerUnits="userSpaceOnUse"><path id="kity_path_3" fill="rgb(115, 161, 191)" stroke="none" d="M6,0A6,6,0,1,1,-6,0A6,6,0,1,1,6,0"></path></marker></defs><g id="kity_g_8"><g id="minder1" text-rendering="geometricPrecision"><g id="minder_connect_group1"><path id="kity_path_31" fill="none" stroke="rgb(115, 161, 191)" stroke-width="1" d="M1043.0000017344923,777.9999958574758A198.5,432,0,0,1,1241.5000017344923,345.9999958574758"></path><path id="kity_path_33" fill="none" stroke="rgb(115, 161, 191)" stroke-width="1" d="M1043.0000017344923,777.9999958574758A198.5,107,0,0,1,1241.5000017344923,670.9999958574758"></path><path id="kity_path_35" fill="none" stroke="rgb(115, 161, 191)" stroke-width="1" d="M1409.5000017344923,670.9999958574758C1424.5000017344923,670.9999958574758,1424.5000017344923,431.4999958574758,1439.5000017344923,431.4999958574758L1564.5000017344923,431.4999958574758"></path><path id="kity_path_37" fill="none" stroke="rgb(115, 161, 191)" stroke-width="1" d="M1409.5000017344923,670.9999958574758C1424.5000017344923,670.9999958574758,1424.5000017344923,516.4999958574758,1439.5000017344923,516.4999958574758L1604.5000017344923,516.4999958574758"></path><path id="kity_path_39" fill="none" stroke="rgb(115, 161, 191)" stroke-width="1" d="M1604.5000017344923,516.4999958574758C1619.5000017344923,516.4999958574758,1619.5000017344923,488.4999958574758,1634.5000017344923,488.4999958574758L1867.5000017344923,488.4999958574758"></path><path id="kity_path_41" fill="none" stroke="rgb(115, 161, 191)" stroke-width="1" d="M1604.5000017344923,516.4999958574758C1619.5000017344923,516.4999958574758,1619.5000017344923,545.4999958574758,1634.5000017344923,545.4999958574758L1915.5000017344923,545.4999958574758"></path><path id="kity_path_43" fill="none" stroke="rgb(115, 161, 191)" stroke-width="1" d="M1409.5000017344923,670.9999958574758C1424.5000017344923,670.9999958574758,1424.5000017344923,602.4999958574758,1439.5000017344923,602.4999958574758L1725.5000017344923,602.4999958574758"></path><path id="kity_path_45" fill="none" stroke="rgb(115, 161, 191)" stroke-width="1" d="M1409.5000017344923,670.9999958574758C1424.5000017344923,670.9999958574758,1424.5000017344923,659.4999958574758,1439.5000017344923,659.4999958574758L1585.5000017344923,659.4999958574758"></path><path id="kity_path_47" fill="none" stroke="rgb(115, 161, 191)" stroke-width="1" d="M1409.5000017344923,670.9999958574758C1424.5000017344923,670.9999958574758,1424.5000017344923,716.4999958574758,1439.5000017344923,716.4999958574758L1709.5000017344923,716.4999958574758"></path><path id="kity_path_49" fill="none" stroke="rgb(115, 161, 191)" stroke-width="1" d="M1409.5000017344923,670.9999958574758C1424.5000017344923,670.9999958574758,1424.5000017344923,773.4999958574758,1439.5000017344923,773.4999958574758L1673.5000017344923,773.4999958574758"></path><path id="kity_path_51" fill="none" stroke="rgb(115, 161, 191)" stroke-width="1" d="M1409.5000017344923,670.9999958574758C1424.5000017344923,670.9999958574758,1424.5000017344923,830.4999958574758,1439.5000017344923,830.4999958574758L1686.5000017344923,830.4999958574758"></path><path id="kity_path_53" fill="none" stroke="rgb(115, 161, 191)" stroke-width="1" d="M1409.5000017344923,670.9999958574758C1424.5000017344923,670.9999958574758,1424.5000017344923,887.4999958574758,1439.5000017344923,887.4999958574758L1708.5000017344923,887.4999958574758"></path><path id="kity_path_55" fill="none" stroke="rgb(115, 161, 191)" stroke-width="1" d="M1409.5000017344923,670.9999958574758C1424.5000017344923,670.9999958574758,1424.5000017344923,944.4999958574758,1439.5000017344923,944.4999958574758L1686.5000017344923,944.4999958574758"></path><path id="kity_path_57" fill="none" stroke="rgb(115, 161, 191)" stroke-width="1" d="M1043.0000017344923,777.9999958574758A198.5,432,0,0,0,1241.5000017344923,1209.9999958574758"></path><path id="kity_path_59" fill="none" stroke="rgb(115, 161, 191)" stroke-width="1" d="M1437.5000017344923,1209.9999958574758C1452.5000017344923,1209.9999958574758,1452.5000017344923,1097.4999958574758,1467.5000017344923,1097.4999958574758L1697.5000017344923,1097.4999958574758"></path><path id="kity_path_61" fill="none" stroke="rgb(115, 161, 191)" stroke-width="1" d="M1437.5000017344923,1209.9999958574758C1452.5000017344923,1209.9999958574758,1452.5000017344923,1154.4999958574758,1467.5000017344923,1154.4999958574758L1645.5000017344923,1154.4999958574758"></path><path id="kity_path_63" fill="none" stroke="rgb(115, 161, 191)" stroke-width="1" d="M1437.5000017344923,1209.9999958574758C1452.5000017344923,1209.9999958574758,1452.5000017344923,1442.4999958574758,1467.5000017344923,1442.4999958574758L1614.5000017344923,1442.4999958574758"></path><path id="kity_path_65" fill="none" stroke="rgb(115, 161, 191)" stroke-width="1" d="M1614.5000017344923,1442.4999958574758C1629.5000017344923,1442.4999958574758,1629.5000017344923,1320.4999958574758,1644.5000017344923,1320.4999958574758L1876.5000017344923,1320.4999958574758"></path><path id="kity_path_67" fill="none" stroke="rgb(115, 161, 191)" stroke-width="1" d="M1614.5000017344923,1442.4999958574758C1629.5000017344923,1442.4999958574758,1629.5000017344923,1485.4999958574758,1644.5000017344923,1485.4999958574758L1874.5000017344923,1485.4999958574758"></path><path id="kity_path_69" fill="none" stroke="rgb(115, 161, 191)" stroke-width="1" d="M1614.5000017344923,1442.4999958574758C1629.5000017344923,1442.4999958574758,1629.5000017344923,1678.4999958574758,1644.5000017344923,1678.4999958574758L1874.5000017344923,1678.4999958574758"></path><path id="kity_path_255" fill="none" stroke="rgb(115, 161, 191)" stroke-width="1" d="M1043.0000017344923,777.9999958574758A198.5,419.5,0,0,0,844.5000017344922,358.4999958574758"></path><path id="kity_path_263" fill="none" stroke="rgb(115, 161, 191)" stroke-width="1" d="M701.5000017344922,358.4999958574758C686.5000017344922,358.4999958574758,686.5000017344922,192.49999585747582,671.5000017344922,192.49999585747582L511.50000173449223,192.49999585747582"></path><path id="kity_path_271" fill="none" stroke="rgb(115, 161, 191)" stroke-width="1" d="M511.50000173449223,192.49999585747582C496.50000173449223,192.49999585747582,496.50000173449223,50.499995857475824,481.50000173449223,50.499995857475824L334.50000173449223,50.499995857475824"></path><path id="kity_path_285" fill="none" stroke="rgb(115, 161, 191)" stroke-width="1" d="M511.50000173449223,192.49999585747582C496.50000173449223,192.49999585747582,496.50000173449223,107.49999585747582,481.50000173449223,107.49999585747582L329.50000173449223,107.49999585747582"></path><path id="kity_path_296" fill="none" stroke="rgb(115, 161, 191)" stroke-width="1" d="M511.50000173449223,192.49999585747582C496.50000173449223,192.49999585747582,496.50000173449223,164.49999585747582,481.50000173449223,164.49999585747582L342.50000173449223,164.49999585747582"></path><path id="kity_path_307" fill="none" stroke="rgb(115, 161, 191)" stroke-width="1" d="M511.50000173449223,192.49999585747582C496.50000173449223,192.49999585747582,496.50000173449223,221.49999585747582,481.50000173449223,221.49999585747582L345.50000173449223,221.49999585747582"></path><path id="kity_path_318" fill="none" stroke="rgb(115, 161, 191)" stroke-width="1" d="M511.50000173449223,192.49999585747582C496.50000173449223,192.49999585747582,496.50000173449223,278.4999958574758,481.50000173449223,278.4999958574758L373.50000173449223,278.4999958574758"></path><path id="kity_path_329" fill="none" stroke="rgb(115, 161, 191)" stroke-width="1" d="M511.50000173449223,192.49999585747582C496.50000173449223,192.49999585747582,496.50000173449223,335.4999958574758,481.50000173449223,335.4999958574758L368.50000173449223,335.4999958574758"></path><path id="kity_path_340" fill="none" stroke="rgb(115, 161, 191)" stroke-width="1" d="M701.5000017344922,358.4999958574758C686.5000017344922,358.4999958574758,686.5000017344922,391.4999958574758,671.5000017344922,391.4999958574758L474.50000173449223,391.4999958574758"></path><path id="kity_path_351" fill="none" stroke="rgb(115, 161, 191)" stroke-width="1" d="M701.5000017344922,358.4999958574758C686.5000017344922,358.4999958574758,686.5000017344922,557.4999958574758,671.5000017344922,557.4999958574758L483.50000173449223,557.4999958574758"></path><path id="kity_path_359" fill="none" stroke="rgb(115, 161, 191)" stroke-width="1" d="M483.50000173449223,557.4999958574758C468.50000173449223,557.4999958574758,468.50000173449223,448.4999958574758,453.50000173449223,448.4999958574758L313.50000173449223,448.4999958574758"></path><path id="kity_path_367" fill="none" stroke="rgb(115, 161, 191)" stroke-width="1" d="M483.50000173449223,557.4999958574758C468.50000173449223,557.4999958574758,468.50000173449223,505.4999958574758,453.50000173449223,505.4999958574758L311.50000173449223,505.4999958574758"></path><path id="kity_path_381" fill="none" stroke="rgb(115, 161, 191)" stroke-width="1" d="M483.50000173449223,557.4999958574758C468.50000173449223,557.4999958574758,468.50000173449223,588.4999958574758,453.50000173449223,588.4999958574758L342.50000173449223,588.4999958574758"></path><path id="kity_path_389" fill="none" stroke="rgb(115, 161, 191)" stroke-width="1" d="M342.50000173449223,588.4999958574758C327.50000173449223,588.4999958574758,327.50000173449223,557.4999958574758,312.50000173449223,557.4999958574758L221.50000173449223,557.4999958574758"></path><path id="kity_path_397" fill="none" stroke="rgb(115, 161, 191)" stroke-width="1" d="M342.50000173449223,588.4999958574758C327.50000173449223,588.4999958574758,327.50000173449223,614.4999958574758,312.50000173449223,614.4999958574758L19.50000173449223,614.4999958574758"></path><path id="kity_path_411" fill="none" stroke="rgb(115, 161, 191)" stroke-width="1" d="M483.50000173449223,557.4999958574758C468.50000173449223,557.4999958574758,468.50000173449223,671.4999958574758,453.50000173449223,671.4999958574758L376.50000173449223,671.4999958574758"></path><path id="kity_path_430" fill="none" stroke="rgb(115, 161, 191)" stroke-width="1" d="M1043.0000017344923,777.9999958574758A198.5,419.5,0,0,1,844.5000017344922,1197.4999958574758"></path><path id="kity_path_446" fill="none" stroke="rgb(115, 161, 191)" stroke-width="1" d="M669.5000017344922,1197.4999958574758C654.5000017344922,1197.4999958574758,654.5000017344922,881.4999958574758,639.5000017344922,881.4999958574758L539.5000017344922,881.4999958574758"></path><path id="kity_path_465" fill="none" stroke="rgb(115, 161, 191)" stroke-width="1" d="M539.5000017344922,881.4999958574758C524.5000017344922,881.4999958574758,524.5000017344922,825.4999958574758,509.50000173449223,825.4999958574758L279.50000173449223,825.4999958574758"></path><path id="kity_path_474" fill="none" stroke="rgb(115, 161, 191)" stroke-width="1" d="M539.5000017344922,881.4999958574758C524.5000017344922,881.4999958574758,524.5000017344922,910.4999958574758,509.50000173449223,910.4999958574758L297.50000173449223,910.4999958574758"></path><path id="kity_path_488" fill="none" stroke="rgb(115, 161, 191)" stroke-width="1" d="M297.50000173449223,910.4999958574758C282.50000173449223,910.4999958574758,282.50000173449223,882.4999958574758,267.50000173449223,882.4999958574758L57.50000173449223,882.4999958574758"></path><path id="kity_path_496" fill="none" stroke="rgb(115, 161, 191)" stroke-width="1" d="M297.50000173449223,910.4999958574758C282.50000173449223,910.4999958574758,282.50000173449223,939.4999958574758,267.50000173449223,939.4999958574758L22.50000173449223,939.4999958574758"></path><path id="kity_path_510" fill="none" stroke="rgb(115, 161, 191)" stroke-width="1" d="M539.5000017344922,881.4999958574758C524.5000017344922,881.4999958574758,524.5000017344922,1024.4999958574758,509.50000173449223,1024.4999958574758L336.50000173449223,1024.4999958574758"></path><path id="kity_path_521" fill="none" stroke="rgb(115, 161, 191)" stroke-width="1" d="M336.50000173449223,1024.4999958574758C321.50000173449223,1024.4999958574758,321.50000173449223,996.4999958574758,306.50000173449223,996.4999958574758L182.50000173449223,996.4999958574758"></path><path id="kity_path_529" fill="none" stroke="rgb(115, 161, 191)" stroke-width="1" d="M336.50000173449223,1024.4999958574758C321.50000173449223,1024.4999958574758,321.50000173449223,1053.4999958574758,306.50000173449223,1053.4999958574758L193.50000173449223,1053.4999958574758"></path><path id="kity_path_551" fill="none" stroke="rgb(115, 161, 191)" stroke-width="1" d="M669.5000017344922,1197.4999958574758C654.5000017344922,1197.4999958574758,654.5000017344922,1242.4999958574758,639.5000017344922,1242.4999958574758L539.5000017344922,1242.4999958574758"></path><path id="kity_path_562" fill="none" stroke="rgb(115, 161, 191)" stroke-width="1" d="M539.5000017344922,1242.4999958574758C524.5000017344922,1242.4999958574758,524.5000017344922,1261.4999958574758,509.50000173449223,1261.4999958574758L279.50000173449223,1261.4999958574758"></path><path id="kity_path_574" fill="none" stroke="rgb(115, 161, 191)" stroke-width="1" d="M539.5000017344922,1242.4999958574758C524.5000017344922,1242.4999958574758,524.5000017344922,1318.4999958574758,509.50000173449223,1318.4999958574758L386.50000173449223,1318.4999958574758"></path><path id="kity_path_585" fill="none" stroke="rgb(115, 161, 191)" stroke-width="1" d="M539.5000017344922,1242.4999958574758C524.5000017344922,1242.4999958574758,524.5000017344922,1375.4999958574758,509.50000173449223,1375.4999958574758L362.50000173449223,1375.4999958574758"></path><path id="kity_path_596" fill="none" stroke="rgb(115, 161, 191)" stroke-width="1" d="M669.5000017344922,1197.4999958574758C654.5000017344922,1197.4999958574758,654.5000017344922,1461.4999958574758,639.5000017344922,1461.4999958574758L516.5000017344922,1461.4999958574758"></path><path id="kity_path_615" fill="none" stroke="rgb(115, 161, 191)" stroke-width="1" d="M516.5000017344922,1461.4999958574758C501.50000173449223,1461.4999958574758,501.50000173449223,1433.4999958574758,486.50000173449223,1433.4999958574758L260.50000173449223,1433.4999958574758"></path><path id="kity_path_626" fill="none" stroke="rgb(115, 161, 191)" stroke-width="1" d="M516.5000017344922,1461.4999958574758C501.50000173449223,1461.4999958574758,501.50000173449223,1490.4999958574758,486.50000173449223,1490.4999958574758L300.50000173449223,1490.4999958574758"></path><path id="kity_path_637" fill="none" stroke="rgb(115, 161, 191)" stroke-width="1" d="M669.5000017344922,1197.4999958574758C654.5000017344922,1197.4999958574758,654.5000017344922,1546.4999958574758,639.5000017344922,1546.4999958574758L551.5000017344922,1546.4999958574758"></path><path id="kity_path_656" fill="none" stroke="rgb(115, 161, 191)" stroke-width="1" d="M551.5000017344922,1546.4999958574758C536.5000017344922,1546.4999958574758,536.5000017344922,1546.4999958574758,521.5000017344922,1546.4999958574758L394.50000173449223,1546.4999958574758"></path></g><g id="minder_node1"><path id="node_outline1" fill="rgb(115, 161, 191)" stroke="rgb(115, 161, 191)" d="M967.5000017344922,757.4999958574758h151a5,5,0,0,1,5,5v31a5,5,0,0,1,-5,5h-151a5,5,0,0,1,-5,-5v-31a5,5,0,0,1,5,-5z" stroke-width="3"></path><g id="node_text1" fill="white"><text id="kity_text_22" text-rendering="inherit" font-size="16" dy=".8em" y="767.0999957144247" x="986.5000017344922">SpringMVC</text></g><g id="kity_g_167" style="cursor: pointer;"><path id="kity_path_168" fill="none" stroke="none" d="M1085.9999990045994,768.9999958574758h12a2,2,0,0,1,2,2v13a2,2,0,0,1,-2,2h-12a2,2,0,0,1,-2,-2v-13a2,2,0,0,1,2,-2z"></path><path id="kity_path_169" fill="white" stroke="none" d="M1094.9999990463227,779.9999958634363H1088.9999990463227V778.9999958634363h6L1094.9999990463227,779.9999958634363L1094.9999990463227,779.9999958634363zM1094.9999990463227,777.9999958634363H1088.9999990463227V776.9999958634363h6V777.9999958634363zM1094.9999990463227,775.9999958634363H1088.9999990463227V774.9999958634363h6V775.9999958634363zM1094.4999990463227,781.9999958634363H1087.9999990463227V772.9999958634363h8v7.5M1094.9999990463227,782.9999958634363l2,-2V771.9999958634363H1086.9999990463227v11"></path></g></g><g id="kity_g_12"><path id="kity_path_13" fill="none" stroke="none" d="M986.5000017344922,777.4999958574758h0v0h0z"></path></g><g id="kity_g_14"><path id="kity_path_15" fill="none" stroke="none" d="M986.5000017344922,777.4999958574758h0v0h0z"></path><path id="kity_path_16" fill="none" stroke="none"></path></g><g id="minder_node2"><g id="node_expander1" style="cursor: pointer;" display="none"><path id="kity_path_195" fill="white" stroke="gray" d="M1242.4999977529012,346.0000010013579A6,6,0,1,1,1230.4999977529012,346.0000010013579A6,6,0,1,1,1242.4999977529012,346.0000010013579"></path><path id="kity_path_196" fill="none" stroke="gray"></path></g><path id="node_outline2" fill="rgb(238, 243, 246)" stroke="rgb(115, 161, 191)" d="M1246.499998432394,331.50000100731836h164a3,3,0,0,1,3,3v23a3,3,0,0,1,-3,3h-164a3,3,0,0,1,-3,-3v-23a3,3,0,0,1,3,-3z" stroke-width="1"></path><g id="node_text2" fill="black"><text id="kity_text_71" text-rendering="inherit" font-size="14" dy=".8em" y="336.4000011324881" x="1263.499998432394">&#xa0;SpringMVC特点</text></g><g id="kity_g_110" style="cursor: pointer;"><path id="kity_path_111" fill="none" stroke="none" d="M1380.0000007927374,337.00000100731836h12a2,2,0,0,1,2,2v13a2,2,0,0,1,-2,2h-12a2,2,0,0,1,-2,-2v-13a2,2,0,0,1,2,-2z"></path><path id="kity_path_112" fill="black" stroke="none" d="M1389.0000008344607,348.00000101327885H1383.0000008344607V347.00000101327885h6L1389.0000008344607,348.00000101327885L1389.0000008344607,348.00000101327885zM1389.0000008344607,346.00000101327885H1383.0000008344607V345.00000101327885h6V346.00000101327885zM1389.0000008344607,344.00000101327885H1383.0000008344607V343.00000101327885h6V344.00000101327885zM1388.5000008344607,350.00000101327885H1382.0000008344607V341.00000101327885h8v7.5M1389.0000008344607,351.00000101327885l2,-2V340.00000101327885H1381.0000008344607v11"></path></g></g><g id="minder_node3"><g id="node_expander13" style="cursor: pointer;"><path id="kity_path_231" fill="white" stroke="gray" d="M1242.4999977529012,670.999997127055A6,6,0,1,1,1230.4999977529012,670.999997127055A6,6,0,1,1,1242.4999977529012,670.999997127055"></path><path id="kity_path_232" fill="none" stroke="gray" d="M1231.9999977529012,670.999997127055L1240.9999977529012,670.999997127055"></path></g><path id="node_outline14" fill="rgb(238, 243, 246)" stroke="rgb(115, 161, 191)" d="M1246.499998432394,656.4999971330155h160a3,3,0,0,1,3,3v23a3,3,0,0,1,-3,3h-160a3,3,0,0,1,-3,-3v-23a3,3,0,0,1,3,-3z" stroke-width="1"></path><g id="node_text14" fill="black"><text id="kity_text_95" text-rendering="inherit" font-size="14" dy=".8em" y="661.3999972581853" x="1263.499998432394">SpringMVC注解</text></g><g id="kity_g_146" style="cursor: pointer;"><path id="kity_path_147" fill="none" stroke="none" d="M1375.9999979793984,661.9999971330155h12a2,2,0,0,1,2,2v13a2,2,0,0,1,-2,2h-12a2,2,0,0,1,-2,-2v-13a2,2,0,0,1,2,-2z"></path><path id="kity_path_148" fill="black" stroke="none" d="M1384.9999980211217,672.999997138976H1378.9999980211217V671.999997138976h6L1384.9999980211217,672.999997138976L1384.9999980211217,672.999997138976zM1384.9999980211217,670.999997138976H1378.9999980211217V669.999997138976h6V670.999997138976zM1384.9999980211217,668.999997138976H1378.9999980211217V667.999997138976h6V668.999997138976zM1384.4999980211217,674.999997138976H1377.9999980211217V665.999997138976h8v7.5M1384.9999980211217,675.999997138976l2,-2V664.999997138976H1376.9999980211217v11"></path></g></g><g id="minder_node4"><g id="node_expander2" style="cursor: pointer;" display="none"><path id="kity_path_198" fill="white" stroke="gray" d="M1449.4999962866266,415.0000001788136A6,6,0,1,1,1437.4999962866266,415.0000001788136A6,6,0,1,1,1449.4999962866266,415.0000001788136"></path><path id="kity_path_199" fill="none" stroke="gray"></path></g><path id="node_outline3" fill="none" stroke="none" d="M1454.4999960958917,401.5000001847741h105a5,5,0,0,1,5,5v17a5,5,0,0,1,-5,5h-105a5,5,0,0,1,-5,-5v-17a5,5,0,0,1,5,-5z"></path><g id="node_text3" fill="black"><text id="kity_text_73" text-rendering="inherit" font-size="12" dy=".8em" y="406.70000029206244" x="1459.4999960958917">&#xa0;@Controller</text></g><g id="kity_g_113" style="cursor: pointer;"><path id="kity_path_114" fill="none" stroke="none" d="M1540.9999944388824,406.0000001847741h12a2,2,0,0,1,2,2v13a2,2,0,0,1,-2,2h-12a2,2,0,0,1,-2,-2v-13a2,2,0,0,1,2,-2z"></path><path id="kity_path_115" fill="black" stroke="none" d="M1549.9999944806057,417.00000019073457H1543.9999944806057V416.00000019073457h6L1549.9999944806057,417.00000019073457L1549.9999944806057,417.00000019073457zM1549.9999944806057,415.00000019073457H1543.9999944806057V414.00000019073457h6V415.00000019073457zM1549.9999944806057,413.00000019073457H1543.9999944806057V412.00000019073457h6V413.00000019073457zM1549.4999944806057,419.00000019073457H1542.9999944806057V410.00000019073457h8v7.5M1549.9999944806057,420.00000019073457l2,-2V409.00000019073457H1541.9999944806057v11"></path></g></g><g id="minder_node5"><g id="node_expander5" style="cursor: pointer;"><path id="kity_path_207" fill="white" stroke="gray" d="M1449.4999962866266,499.9999991655344A6,6,0,1,1,1437.4999962866266,499.9999991655344A6,6,0,1,1,1449.4999962866266,499.9999991655344"></path><path id="kity_path_208" fill="none" stroke="gray" d="M1438.9999962866266,499.9999991655344L1447.9999962866266,499.9999991655344"></path></g><path id="node_outline6" fill="none" stroke="none" d="M1454.4999960958917,486.4999991714949h145a5,5,0,0,1,5,5v17a5,5,0,0,1,-5,5h-145a5,5,0,0,1,-5,-5v-17a5,5,0,0,1,5,-5z"></path><g id="node_text6" fill="black"><text id="kity_text_79" text-rendering="inherit" font-size="12" dy=".8em" y="491.69999927878325" x="1459.4999960958917">@RequestMapping&#xa0;</text></g><g id="kity_g_122" style="cursor: pointer;"><path id="kity_path_123" fill="none" stroke="none" d="M1580.9999951064542,490.9999991714949h12a2,2,0,0,1,2,2v13a2,2,0,0,1,-2,2h-12a2,2,0,0,1,-2,-2v-13a2,2,0,0,1,2,-2z"></path><path id="kity_path_124" fill="black" stroke="none" d="M1589.9999951481775,501.9999991774554H1583.9999951481775V500.9999991774554h6L1589.9999951481775,501.9999991774554L1589.9999951481775,501.9999991774554zM1589.9999951481775,499.9999991774554H1583.9999951481775V498.9999991774554h6V499.9999991774554zM1589.9999951481775,497.9999991774554H1583.9999951481775V496.9999991774554h6V497.9999991774554zM1589.4999951481775,503.9999991774554H1582.9999951481775V494.9999991774554h8v7.5M1589.9999951481775,504.9999991774554l2,-2V493.9999991774554H1581.9999951481775v11"></path></g></g><g id="minder_node6"><g id="node_expander3" style="cursor: pointer;" display="none"><path id="kity_path_201" fill="white" stroke="gray" d="M1644.4999939620445,471.99999949932044A6,6,0,1,1,1632.4999939620445,471.99999949932044A6,6,0,1,1,1644.4999939620445,471.99999949932044"></path><path id="kity_path_202" fill="none" stroke="gray"></path></g><path id="node_outline4" fill="none" stroke="none" d="M1649.4999937713096,458.4999995052809h213a5,5,0,0,1,5,5v17a5,5,0,0,1,-5,5h-213a5,5,0,0,1,-5,-5v-17a5,5,0,0,1,5,-5z"></path><g id="node_text4" fill="black"><text id="kity_text_75" text-rendering="inherit" font-size="12" dy=".8em" y="463.6999996125693" x="1654.4999937713096">@RequestMapping处理多个URL</text></g><g id="kity_g_116" style="cursor: pointer;"><path id="kity_path_117" fill="none" stroke="none" d="M1843.9999948322716,462.9999995052809h12a2,2,0,0,1,2,2v13a2,2,0,0,1,-2,2h-12a2,2,0,0,1,-2,-2v-13a2,2,0,0,1,2,-2z"></path><path id="kity_path_118" fill="black" stroke="none" d="M1852.9999948739949,473.9999995112414H1846.9999948739949V472.9999995112414h6L1852.9999948739949,473.9999995112414L1852.9999948739949,473.9999995112414zM1852.9999948739949,471.9999995112414H1846.9999948739949V470.9999995112414h6V471.9999995112414zM1852.9999948739949,469.9999995112414H1846.9999948739949V468.9999995112414h6V469.9999995112414zM1852.4999948739949,475.9999995112414H1845.9999948739949V466.9999995112414h8v7.5M1852.9999948739949,476.9999995112414l2,-2V465.9999995112414H1844.9999948739949v11"></path></g></g><g id="minder_node7"><g id="node_expander4" style="cursor: pointer;" display="none"><path id="kity_path_204" fill="white" stroke="gray" d="M1644.4999939620445,528.9999988198273A6,6,0,1,1,1632.4999939620445,528.9999988198273A6,6,0,1,1,1644.4999939620445,528.9999988198273"></path><path id="kity_path_205" fill="none" stroke="gray"></path></g><path id="node_outline5" fill="none" stroke="none" d="M1649.4999937713096,515.4999988257878h261a5,5,0,0,1,5,5v17a5,5,0,0,1,-5,5h-261a5,5,0,0,1,-5,-5v-17a5,5,0,0,1,5,-5z"></path><g id="node_text5" fill="black"><text id="kity_text_77" text-rendering="inherit" font-size="12" dy=".8em" y="520.6999989330761" x="1654.4999937713096">&#xa0;@RequestMapping处理HTTP的各种方法</text></g><g id="kity_g_119" style="cursor: pointer;"><path id="kity_path_120" fill="none" stroke="none" d="M1891.9999919712486,519.9999988257878h12a2,2,0,0,1,2,2v13a2,2,0,0,1,-2,2h-12a2,2,0,0,1,-2,-2v-13a2,2,0,0,1,2,-2z"></path><path id="kity_path_121" fill="black" stroke="none" d="M1900.999992012972,530.9999988317483H1894.999992012972V529.9999988317483h6L1900.999992012972,530.9999988317483L1900.999992012972,530.9999988317483zM1900.999992012972,528.9999988317483H1894.999992012972V527.9999988317483h6V528.9999988317483zM1900.999992012972,526.9999988317483H1894.999992012972V525.9999988317483h6V526.9999988317483zM1900.499992012972,532.9999988317483H1893.999992012972V523.9999988317483h8v7.5M1900.999992012972,533.9999988317483l2,-2V522.9999988317483H1892.999992012972v11"></path></g></g><g id="minder_node8"><g id="node_expander6" style="cursor: pointer;" display="none"><path id="kity_path_210" fill="white" stroke="gray" d="M1449.4999962866266,585.9999981403342A6,6,0,1,1,1437.4999962866266,585.9999981403342A6,6,0,1,1,1449.4999962866266,585.9999981403342"></path><path id="kity_path_211" fill="none" stroke="gray"></path></g><path id="node_outline7" fill="none" stroke="none" d="M1454.4999960958917,572.4999981462947h266a5,5,0,0,1,5,5v17a5,5,0,0,1,-5,5h-266a5,5,0,0,1,-5,-5v-17a5,5,0,0,1,5,-5z"></path><g id="node_text7" fill="black"><text id="kity_text_81" text-rendering="inherit" font-size="12" dy=".8em" y="577.6999982535831" x="1459.4999960958917">@RequestMaping的组合注解（方法级别）</text></g><g id="kity_g_125" style="cursor: pointer;"><path id="kity_path_126" fill="none" stroke="none" d="M1702.0000001013227,576.9999981462947h12a2,2,0,0,1,2,2v13a2,2,0,0,1,-2,2h-12a2,2,0,0,1,-2,-2v-13a2,2,0,0,1,2,-2z"></path><path id="kity_path_127" fill="black" stroke="none" d="M1711.000000143046,587.9999981522552H1705.000000143046V586.9999981522552h6L1711.000000143046,587.9999981522552L1711.000000143046,587.9999981522552zM1711.000000143046,585.9999981522552H1705.000000143046V584.9999981522552h6V585.9999981522552zM1711.000000143046,583.9999981522552H1705.000000143046V582.9999981522552h6V583.9999981522552zM1710.500000143046,589.9999981522552H1704.000000143046V580.9999981522552h8v7.5M1711.000000143046,590.9999981522552l2,-2V579.9999981522552H1703.000000143046v11"></path></g></g><g id="minder_node9"><g id="node_expander7" style="cursor: pointer;" display="none"><path id="kity_path_213" fill="white" stroke="gray" d="M1449.4999962866266,642.9999974608412A6,6,0,1,1,1437.4999962866266,642.9999974608412A6,6,0,1,1,1449.4999962866266,642.9999974608412"></path><path id="kity_path_214" fill="none" stroke="gray"></path></g><path id="node_outline8" fill="none" stroke="none" d="M1454.4999960958917,629.4999974668017h126a5,5,0,0,1,5,5v17a5,5,0,0,1,-5,5h-126a5,5,0,0,1,-5,-5v-17a5,5,0,0,1,5,-5z"></path><g id="node_text8" fill="black"><text id="kity_text_83" text-rendering="inherit" font-size="12" dy=".8em" y="634.69999757409" x="1459.4999960958917">@RequestParam</text></g><g id="kity_g_128" style="cursor: pointer;"><path id="kity_path_129" fill="none" stroke="none" d="M1561.9999931871848,633.9999974668017h12a2,2,0,0,1,2,2v13a2,2,0,0,1,-2,2h-12a2,2,0,0,1,-2,-2v-13a2,2,0,0,1,2,-2z"></path><path id="kity_path_130" fill="black" stroke="none" d="M1570.9999932289081,644.9999974727622H1564.9999932289081V643.9999974727622h6L1570.9999932289081,644.9999974727622L1570.9999932289081,644.9999974727622zM1570.9999932289081,642.9999974727622H1564.9999932289081V641.9999974727622h6V642.9999974727622zM1570.9999932289081,640.9999974727622H1564.9999932289081V639.9999974727622h6V640.9999974727622zM1570.4999932289081,646.9999974727622H1563.9999932289081V637.9999974727622h8v7.5M1570.9999932289081,647.9999974727622l2,-2V636.9999974727622H1562.9999932289081v11"></path></g></g><g id="minder_node10"><g id="node_expander8" style="cursor: pointer;" display="none"><path id="kity_path_216" fill="white" stroke="gray" d="M1449.4999962866266,699.999996781348A6,6,0,1,1,1437.4999962866266,699.999996781348A6,6,0,1,1,1449.4999962866266,699.999996781348"></path><path id="kity_path_217" fill="none" stroke="gray"></path></g><path id="node_outline9" fill="none" stroke="none" d="M1454.4999960958917,686.4999967873085h250a5,5,0,0,1,5,5v17a5,5,0,0,1,-5,5h-250a5,5,0,0,1,-5,-5v-17a5,5,0,0,1,5,-5z"></path><g id="node_text9" fill="black"><text id="kity_text_85" text-rendering="inherit" font-size="12" dy=".8em" y="691.6999968945969" x="1459.4999960958917">@RequestMapping来处理生产和消费者</text></g><g id="kity_g_131" style="cursor: pointer;"><path id="kity_path_132" fill="none" stroke="none" d="M1685.9999888479665,690.9999967873085h12a2,2,0,0,1,2,2v13a2,2,0,0,1,-2,2h-12a2,2,0,0,1,-2,-2v-13a2,2,0,0,1,2,-2z"></path><path id="kity_path_133" fill="black" stroke="none" d="M1694.9999888896898,701.999996793269H1688.9999888896898V700.999996793269h6L1694.9999888896898,701.999996793269L1694.9999888896898,701.999996793269zM1694.9999888896898,699.999996793269H1688.9999888896898V698.999996793269h6V699.999996793269zM1694.9999888896898,697.999996793269H1688.9999888896898V696.999996793269h6V697.999996793269zM1694.4999888896898,703.999996793269H1687.9999888896898V694.999996793269h8v7.5M1694.9999888896898,704.999996793269l2,-2V693.999996793269H1686.9999888896898v11"></path></g></g><g id="minder_node11"><g id="node_expander9" style="cursor: pointer;" display="none"><path id="kity_path_219" fill="white" stroke="gray" d="M1449.4999962866266,756.9999961018549A6,6,0,1,1,1437.4999962866266,756.9999961018549A6,6,0,1,1,1449.4999962866266,756.9999961018549"></path><path id="kity_path_220" fill="none" stroke="gray"></path></g><path id="node_outline10" fill="none" stroke="none" d="M1454.4999960958917,743.4999961078154h214a5,5,0,0,1,5,5v17a5,5,0,0,1,-5,5h-214a5,5,0,0,1,-5,-5v-17a5,5,0,0,1,5,-5z"></path><g id="node_text10" fill="black"><text id="kity_text_87" text-rendering="inherit" font-size="12" dy=".8em" y="748.6999962151037" x="1459.4999960958917">@RequestMapping来处理消息头</text></g><g id="kity_g_134" style="cursor: pointer;"><path id="kity_path_135" fill="none" stroke="none" d="M1649.9999909937337,747.9999961078154h12a2,2,0,0,1,2,2v13a2,2,0,0,1,-2,2h-12a2,2,0,0,1,-2,-2v-13a2,2,0,0,1,2,-2z"></path><path id="kity_path_136" fill="black" stroke="none" d="M1658.999991035457,758.9999961137759H1652.999991035457V757.9999961137759h6L1658.999991035457,758.9999961137759L1658.999991035457,758.9999961137759zM1658.999991035457,756.9999961137759H1652.999991035457V755.9999961137759h6V756.9999961137759zM1658.999991035457,754.9999961137759H1652.999991035457V753.9999961137759h6V754.9999961137759zM1658.499991035457,760.9999961137759H1651.999991035457V751.9999961137759h8v7.5M1658.999991035457,761.9999961137759l2,-2V750.9999961137759H1650.999991035457v11"></path></g></g><g id="minder_node12"><g id="node_expander10" style="cursor: pointer;" display="none"><path id="kity_path_222" fill="white" stroke="gray" d="M1449.4999962866266,813.9999954223618A6,6,0,1,1,1437.4999962866266,813.9999954223618A6,6,0,1,1,1449.4999962866266,813.9999954223618"></path><path id="kity_path_223" fill="none" stroke="gray"></path></g><path id="node_outline11" fill="none" stroke="none" d="M1454.4999960958917,800.4999954283223h227a5,5,0,0,1,5,5v17a5,5,0,0,1,-5,5h-227a5,5,0,0,1,-5,-5v-17a5,5,0,0,1,5,-5z"></path><g id="node_text11" fill="black"><text id="kity_text_89" text-rendering="inherit" font-size="12" dy=".8em" y="805.6999955356107" x="1459.4999960958917">@RequestMapping来处理请求参数</text></g><g id="kity_g_137" style="cursor: pointer;"><path id="kity_path_138" fill="none" stroke="none" d="M1663.0000024259039,804.9999954283223h12a2,2,0,0,1,2,2v13a2,2,0,0,1,-2,2h-12a2,2,0,0,1,-2,-2v-13a2,2,0,0,1,2,-2z"></path><path id="kity_path_139" fill="black" stroke="none" d="M1672.0000024676272,815.9999954342828H1666.0000024676272V814.9999954342828h6L1672.0000024676272,815.9999954342828L1672.0000024676272,815.9999954342828zM1672.0000024676272,813.9999954342828H1666.0000024676272V812.9999954342828h6V813.9999954342828zM1672.0000024676272,811.9999954342828H1666.0000024676272V810.9999954342828h6V811.9999954342828zM1671.5000024676272,817.9999954342828H1665.0000024676272V808.9999954342828h8v7.5M1672.0000024676272,818.9999954342828l2,-2V807.9999954342828H1664.0000024676272v11"></path></g></g><g id="minder_node13"><g id="node_expander11" style="cursor: pointer;" display="none"><path id="kity_path_225" fill="white" stroke="gray" d="M1449.4999962866266,870.9999947428687A6,6,0,1,1,1437.4999962866266,870.9999947428687A6,6,0,1,1,1449.4999962866266,870.9999947428687"></path><path id="kity_path_226" fill="none" stroke="gray"></path></g><path id="node_outline12" fill="none" stroke="none" d="M1454.4999960958917,857.4999947488292h249a5,5,0,0,1,5,5v17a5,5,0,0,1,-5,5h-249a5,5,0,0,1,-5,-5v-17a5,5,0,0,1,5,-5z"></path><g id="node_text12" fill="black"><text id="kity_text_91" text-rendering="inherit" font-size="12" dy=".8em" y="862.6999948561175" x="1459.4999960958917">@RequestMapping 处理动态(模板) URI</text></g><g id="kity_g_140" style="cursor: pointer;"><path id="kity_path_141" fill="none" stroke="none" d="M1684.9999950110864,861.9999947488292h12a2,2,0,0,1,2,2v13a2,2,0,0,1,-2,2h-12a2,2,0,0,1,-2,-2v-13a2,2,0,0,1,2,-2z"></path><path id="kity_path_142" fill="black" stroke="none" d="M1693.9999950528097,872.9999947547897H1687.9999950528097V871.9999947547897h6L1693.9999950528097,872.9999947547897L1693.9999950528097,872.9999947547897zM1693.9999950528097,870.9999947547897H1687.9999950528097V869.9999947547897h6V870.9999947547897zM1693.9999950528097,868.9999947547897H1687.9999950528097V867.9999947547897h6V868.9999947547897zM1693.4999950528097,874.9999947547897H1686.9999950528097V865.9999947547897h8v7.5M1693.9999950528097,875.9999947547897l2,-2V864.9999947547897H1685.9999950528097v11"></path></g></g><g id="minder_node14"><g id="node_expander12" style="cursor: pointer;" display="none"><path id="kity_path_228" fill="white" stroke="gray" d="M1449.4999962866266,927.9999940633755A6,6,0,1,1,1437.4999962866266,927.9999940633755A6,6,0,1,1,1449.4999962866266,927.9999940633755"></path><path id="kity_path_229" fill="none" stroke="gray"></path></g><path id="node_outline13" fill="none" stroke="none" d="M1454.4999960958917,914.499994069336h227a5,5,0,0,1,5,5v17a5,5,0,0,1,-5,5h-227a5,5,0,0,1,-5,-5v-17a5,5,0,0,1,5,-5z"></path><g id="node_text13" fill="black"><text id="kity_text_93" text-rendering="inherit" font-size="12" dy=".8em" y="919.6999941766244" x="1459.4999960958917">@RequestMapping默认的处理方法</text></g><g id="kity_g_143" style="cursor: pointer;"><path id="kity_path_144" fill="none" stroke="none" d="M1663.0000024259039,918.999994069336h12a2,2,0,0,1,2,2v13a2,2,0,0,1,-2,2h-12a2,2,0,0,1,-2,-2v-13a2,2,0,0,1,2,-2z"></path><path id="kity_path_145" fill="black" stroke="none" d="M1672.0000024676272,929.9999940752965H1666.0000024676272V928.9999940752965h6L1672.0000024676272,929.9999940752965L1672.0000024676272,929.9999940752965zM1672.0000024676272,927.9999940752965H1666.0000024676272V926.9999940752965h6V927.9999940752965zM1672.0000024676272,925.9999940752965H1666.0000024676272V924.9999940752965h6V925.9999940752965zM1671.5000024676272,931.9999940752965H1665.0000024676272V922.9999940752965h8v7.5M1672.0000024676272,932.9999940752965l2,-2V921.9999940752965H1664.0000024676272v11"></path></g></g><g id="minder_node15"><g id="node_expander20" style="cursor: pointer;"><path id="kity_path_252" fill="white" stroke="gray" d="M1242.4999977529012,1209.999990701673A6,6,0,1,1,1230.4999977529012,1209.999990701673A6,6,0,1,1,1242.4999977529012,1209.999990701673"></path><path id="kity_path_253" fill="none" stroke="gray" d="M1231.9999977529012,1209.999990701673L1240.9999977529012,1209.999990701673"></path></g><path id="node_outline21" fill="rgb(238, 243, 246)" stroke="rgb(115, 161, 191)" d="M1246.499998432394,1195.4999907076333h188a3,3,0,0,1,3,3v23a3,3,0,0,1,-3,3h-188a3,3,0,0,1,-3,-3v-23a3,3,0,0,1,3,-3z" stroke-width="1"></path><g id="node_text21" fill="black"><text id="kity_text_109" text-rendering="inherit" font-size="14" dy=".8em" y="1200.399990832803" x="1263.499998432394">SpringMVC设计理念</text></g><g id="kity_g_164" style="cursor: pointer;"><path id="kity_path_165" fill="none" stroke="none" d="M1403.999999362226,1200.9999907076333h12a2,2,0,0,1,2,2v13a2,2,0,0,1,-2,2h-12a2,2,0,0,1,-2,-2v-13a2,2,0,0,1,2,-2z"></path><path id="kity_path_166" fill="black" stroke="none" d="M1412.9999994039492,1211.999990713594H1406.9999994039492V1210.999990713594h6L1412.9999994039492,1211.999990713594L1412.9999994039492,1211.999990713594zM1412.9999994039492,1209.999990713594H1406.9999994039492V1208.999990713594h6V1209.999990713594zM1412.9999994039492,1207.999990713594H1406.9999994039492V1206.999990713594h6V1207.999990713594zM1412.4999994039492,1213.999990713594H1405.9999994039492V1204.999990713594h8v7.5M1412.9999994039492,1214.999990713594l2,-2V1203.999990713594H1404.9999994039492v11"></path></g></g><g id="minder_node16"><g id="node_expander14" style="cursor: pointer;" display="none"><path id="kity_path_234" fill="white" stroke="gray" d="M1477.4999972403007,1037.4999917566756A6,6,0,1,1,1465.4999972403007,1037.4999917566756A6,6,0,1,1,1477.4999972403007,1037.4999917566756"></path><path id="kity_path_235" fill="none" stroke="gray"></path></g><path id="node_outline15" fill="none" stroke="none" d="M1482.4999952495054,980.4999922454335h210a5,5,0,0,1,5,5v104a5,5,0,0,1,-5,5h-210a5,5,0,0,1,-5,-5v-104a5,5,0,0,1,5,-5z"></path><g id="node_text15" fill="black"><text id="kity_text_97" text-rendering="inherit" font-size="12" dy=".8em" y="1072.699992352722" x="1530.4999952495054">&#xa0;MVC模式的优势</text></g><g id="kity_g_149" style="cursor: pointer;"><path id="kity_path_150" fill="none" stroke="none" d="M1629.9999925196125,1071.9999922454335h12a2,2,0,0,1,2,2v13a2,2,0,0,1,-2,2h-12a2,2,0,0,1,-2,-2v-13a2,2,0,0,1,2,-2z"></path><path id="kity_path_151" fill="black" stroke="none" d="M1638.9999925613358,1082.9999922513941H1632.9999925613358V1081.9999922513941h6L1638.9999925613358,1082.9999922513941L1638.9999925613358,1082.9999922513941zM1638.9999925613358,1080.9999922513941H1632.9999925613358V1079.9999922513941h6V1080.9999922513941zM1638.9999925613358,1078.9999922513941H1632.9999925613358V1077.9999922513941h6V1078.9999922513941zM1638.4999925613358,1084.9999922513941H1631.9999925613358V1075.9999922513941h8v7.5M1638.9999925613358,1085.9999922513941l2,-2V1074.9999922513941H1630.9999925613358v11"></path></g><image id="kity_image_170" xlink:href="http://kityminder-img.gz.bcebos.com/6c1836c310ec37f14e172b091b6dd3329eef5f00" x="1487.4999952495054" y="985.4999922454335" width="200" height="82" xlink:title="MVC模型框架"></image></g><g id="minder_node17"><g id="node_expander15" style="cursor: pointer;" display="none"><path id="kity_path_237" fill="white" stroke="gray" d="M1477.4999959528404,1137.9999915599801A6,6,0,1,1,1465.4999959528404,1137.9999915599801A6,6,0,1,1,1477.4999959528404,1137.9999915599801"></path><path id="kity_path_238" fill="none" stroke="gray"></path></g><path id="node_outline16" fill="none" stroke="none" d="M1482.4999957621055,1124.4999915659405h158a5,5,0,0,1,5,5v17a5,5,0,0,1,-5,5h-158a5,5,0,0,1,-5,-5v-17a5,5,0,0,1,5,-5z"></path><g id="node_text16" fill="black"><text id="kity_text_99" text-rendering="inherit" font-size="12" dy=".8em" y="1129.6999916732289" x="1487.4999957621055">Servlet处理与Web请求</text></g><g id="kity_g_152" style="cursor: pointer;"><path id="kity_path_153" fill="none" stroke="none" d="M1621.9999970495653,1128.9999915659405h12a2,2,0,0,1,2,2v13a2,2,0,0,1,-2,2h-12a2,2,0,0,1,-2,-2v-13a2,2,0,0,1,2,-2z"></path><path id="kity_path_154" fill="black" stroke="none" d="M1630.9999970912886,1139.999991571901H1624.9999970912886V1138.999991571901h6L1630.9999970912886,1139.999991571901L1630.9999970912886,1139.999991571901zM1630.9999970912886,1137.999991571901H1624.9999970912886V1136.999991571901h6V1137.999991571901zM1630.9999970912886,1135.999991571901H1624.9999970912886V1134.999991571901h6V1135.999991571901zM1630.4999970912886,1141.999991571901H1623.9999970912886V1132.999991571901h8v7.5M1630.9999970912886,1142.999991571901l2,-2V1131.999991571901H1622.9999970912886v11"></path></g></g><g id="minder_node18"><g id="node_expander19" style="cursor: pointer;"><path id="kity_path_249" fill="white" stroke="gray" d="M1477.4999959528404,1428.4999880969492A6,6,0,1,1,1465.4999959528404,1428.4999880969492A6,6,0,1,1,1477.4999959528404,1428.4999880969492"></path><path id="kity_path_250" fill="none" stroke="gray" d="M1466.9999959528404,1428.4999880969492L1475.9999959528404,1428.4999880969492"></path></g><path id="node_outline20" fill="none" stroke="none" d="M1482.4999957621055,1417.4999880969492h127a5,5,0,0,1,5,5v12a5,5,0,0,1,-5,5h-127a5,5,0,0,1,-5,-5v-12a5,5,0,0,1,5,-5z"></path><g id="node_text20" fill="black"><text id="kity_text_107" text-rendering="inherit" font-size="12" dy=".8em" y="1420.6999882042376" x="1487.4999957621055">&#xa0;SpringMVC请求响应</text></g></g><g id="minder_node19"><g id="node_expander16" style="cursor: pointer;" display="none"><path id="kity_path_240" fill="white" stroke="gray" d="M1654.4999938428352,1249.9999897241564A6,6,0,1,1,1642.4999938428352,1249.9999897241564A6,6,0,1,1,1654.4999938428352,1249.9999897241564"></path><path id="kity_path_241" fill="none" stroke="gray"></path></g><path id="node_outline17" fill="none" stroke="none" d="M1659.4999936521003,1182.4999895870656h212a5,5,0,0,1,5,5v125a5,5,0,0,1,-5,5h-212a5,5,0,0,1,-5,-5v-125a5,5,0,0,1,5,-5z"></path><g id="node_text17" fill="black"><text id="kity_text_101" text-rendering="inherit" font-size="12" dy=".8em" y="1295.699989694354" x="1664.4999936521003">SpringMVC请求处理流程(高层次)</text></g><g id="kity_g_155" style="cursor: pointer;"><path id="kity_path_156" fill="none" stroke="none" d="M1852.9999825656364,1294.9999895870656h12a2,2,0,0,1,2,2v13a2,2,0,0,1,-2,2h-12a2,2,0,0,1,-2,-2v-13a2,2,0,0,1,2,-2z"></path><path id="kity_path_157" fill="black" stroke="none" d="M1861.9999826073597,1305.9999895930262H1855.9999826073597V1304.9999895930262h6L1861.9999826073597,1305.9999895930262L1861.9999826073597,1305.9999895930262zM1861.9999826073597,1303.9999895930262H1855.9999826073597V1302.9999895930262h6V1303.9999895930262zM1861.9999826073597,1301.9999895930262H1855.9999826073597V1300.9999895930262h6V1301.9999895930262zM1861.4999826073597,1307.9999895930262H1854.9999826073597V1298.9999895930262h8v7.5M1861.9999826073597,1308.9999895930262l2,-2V1297.9999895930262H1853.9999826073597v11"></path></g><image id="kity_image_171" xlink:href="http://kityminder-img.gz.bcebos.com/efbec4ecf050741a6726f6baffcfadd484b5a478" x="1665.4999936521003" y="1187.4999895870656" width="200" height="103" xlink:title="SpringMVC处理请求响应"></image></g><g id="minder_node20"><g id="node_expander17" style="cursor: pointer;" display="none"><path id="kity_path_243" fill="white" stroke="gray" d="M1654.4999947011422,1414.999987757203A6,6,0,1,1,1642.4999947011422,1414.999987757203A6,6,0,1,1,1654.4999947011422,1414.999987757203"></path><path id="kity_path_244" fill="none" stroke="gray"></path></g><path id="node_outline18" fill="none" stroke="none" d="M1659.4999932467888,1347.499987620112h210a5,5,0,0,1,5,5v125a5,5,0,0,1,-5,5h-210a5,5,0,0,1,-5,-5v-125a5,5,0,0,1,5,-5z"></path><g id="node_text18" fill="black"><text id="kity_text_103" text-rendering="inherit" font-size="12" dy=".8em" y="1460.6999877274004" x="1698.4999932467888">特定组件的请求流程</text></g><g id="kity_g_158" style="cursor: pointer;"><path id="kity_path_159" fill="none" stroke="none" d="M1815.9999894440123,1459.999987620112h12a2,2,0,0,1,2,2v13a2,2,0,0,1,-2,2h-12a2,2,0,0,1,-2,-2v-13a2,2,0,0,1,2,-2z"></path><path id="kity_path_160" fill="black" stroke="none" d="M1824.9999894857356,1470.9999876260727H1818.9999894857356V1469.9999876260727h6L1824.9999894857356,1470.9999876260727L1824.9999894857356,1470.9999876260727zM1824.9999894857356,1468.9999876260727H1818.9999894857356V1467.9999876260727h6V1468.9999876260727zM1824.9999894857356,1466.9999876260727H1818.9999894857356V1465.9999876260727h6V1466.9999876260727zM1824.4999894857356,1472.9999876260727H1817.9999894857356V1463.9999876260727h8v7.5M1824.9999894857356,1473.9999876260727l2,-2V1462.9999876260727H1816.9999894857356v11"></path></g><image id="kity_image_172" xlink:href="http://kityminder-img.gz.bcebos.com/7d014728aa36b3749b509d74f4b8bb36133e7cdf" x="1664.4999932467888" y="1352.499987620112" width="200" height="103" xlink:title="SpringMVC特定组件请求流程"></image></g><g id="minder_node21"><g id="node_expander18" style="cursor: pointer;" display="none"><path id="kity_path_246" fill="white" stroke="gray" d="M1654.4999949872445,1593.9999847650492A6,6,0,1,1,1642.4999949872445,1593.9999847650492A6,6,0,1,1,1654.4999949872445,1593.9999847650492"></path><path id="kity_path_247" fill="none" stroke="gray"></path></g><path id="node_outline19" fill="none" stroke="none" d="M1659.4999931752632,1512.4999853193722h210a5,5,0,0,1,5,5v153a5,5,0,0,1,-5,5h-210a5,5,0,0,1,-5,-5v-153a5,5,0,0,1,5,-5z" stroke-width="3"></path><g id="node_text19" fill="black"><text id="kity_text_105" text-rendering="inherit" font-size="12" dy=".8em" y="1653.6999854266605" x="1704.4999931752632">核心类的请求流程</text></g><g id="kity_g_161" style="cursor: pointer;"><path id="kity_path_162" fill="none" stroke="none" d="M1809.9999900877424,1652.9999853193722h12a2,2,0,0,1,2,2v13a2,2,0,0,1,-2,2h-12a2,2,0,0,1,-2,-2v-13a2,2,0,0,1,2,-2z"></path><path id="kity_path_163" fill="black" stroke="none" d="M1818.9999901294657,1663.9999853253328H1812.9999901294657V1662.9999853253328h6L1818.9999901294657,1663.9999853253328L1818.9999901294657,1663.9999853253328zM1818.9999901294657,1661.9999853253328H1812.9999901294657V1660.9999853253328h6V1661.9999853253328zM1818.9999901294657,1659.9999853253328H1812.9999901294657V1658.9999853253328h6V1659.9999853253328zM1818.4999901294657,1665.9999853253328H1811.9999901294657V1656.9999853253328h8v7.5M1818.9999901294657,1666.9999853253328l2,-2V1655.9999853253328H1810.9999901294657v11"></path></g><image id="kity_image_173" xlink:href="http://kityminder-img.gz.bcebos.com/bd915f5c4d2ed9c60063acf26027fda85bcfb8ed" x="1664.4999931752632" y="1517.4999853193722" width="200" height="131" xlink:title="SpringMVC核心类的请求流程"></image></g><g id="minder_node22"><g id="node_expander21" style="cursor: pointer;"><path id="kity_path_260" fill="white" stroke="gray" d="M855.5000033676599,358.5000008523463A6,6,0,1,1,843.5000033676599,358.5000008523463A6,6,0,1,1,855.5000033676599,358.5000008523463"></path><path id="kity_path_261" fill="none" stroke="gray" d="M845.0000033676599,358.5000008523463L854.0000033676599,358.5000008523463"></path></g><path id="node_outline22" fill="rgb(238, 243, 246)" stroke="rgb(115, 161, 191)" d="M704.5000048935392,345.5000008523463h135a3,3,0,0,1,3,3v20a3,3,0,0,1,-3,3h-135a3,3,0,0,1,-3,-3v-20a3,3,0,0,1,3,-3z" stroke-width="1"></path><g id="node_text22" fill="black"><text id="kity_text_257" text-rendering="inherit" font-size="14" dy=".8em" y="349.4000009775161" x="721.5000048935392">Spring的控制器</text></g></g><g id="minder_node23"><g id="node_expander22" style="cursor: pointer;"><path id="kity_path_268" fill="white" stroke="gray" d="M673.5000046789626,176.00000302791628A6,6,0,1,1,661.5000046789626,176.00000302791628A6,6,0,1,1,673.5000046789626,176.00000302791628"></path><path id="kity_path_269" fill="none" stroke="gray" d="M663.0000046789626,176.00000302791628L672.0000046789626,176.00000302791628"></path></g><path id="node_outline23" fill="none" stroke="none" d="M516.5000072777254,162.50000303387674h140a5,5,0,0,1,5,5v17a5,5,0,0,1,-5,5h-140a5,5,0,0,1,-5,-5v-17a5,5,0,0,1,5,-5z" stroke-width="3"></path><g id="node_text23" fill="black"><text id="kity_text_265" text-rendering="inherit" font-size="12" dy=".8em" y="167.7000031411651" x="521.5000072777254">控制器上的方法签名</text></g><g id="kity_g_278" style="cursor: pointer;"><path id="kity_path_279" fill="none" stroke="none" d="M638.0000096380688,167.00000303387674h12a2,2,0,0,1,2,2v13a2,2,0,0,1,-2,2h-12a2,2,0,0,1,-2,-2v-13a2,2,0,0,1,2,-2z"></path><path id="kity_path_280" fill="black" stroke="none" d="M647.0000096797921,178.00000303983722H641.0000096797921V177.00000303983722h6L647.0000096797921,178.00000303983722L647.0000096797921,178.00000303983722zM647.0000096797921,176.00000303983722H641.0000096797921V175.00000303983722h6V176.00000303983722zM647.0000096797921,174.00000303983722H641.0000096797921V173.00000303983722h6V174.00000303983722zM646.5000096797921,180.00000303983722H640.0000096797921V171.00000303983722h8v7.5M647.0000096797921,181.00000303983722l2,-2V170.00000303983722H639.0000096797921v11"></path></g></g><g id="minder_node24"><g id="node_expander23" style="cursor: pointer;" display="none"><path id="kity_path_276" fill="white" stroke="gray" d="M483.5000045120703,34.00000472068851A6,6,0,1,1,471.5000045120703,34.00000472068851A6,6,0,1,1,483.5000045120703,34.00000472068851"></path><path id="kity_path_277" fill="none" stroke="gray"></path></g><path id="node_outline24" fill="none" stroke="none" d="M339.5000093877304,20.500004726648967h127a5,5,0,0,1,5,5v17a5,5,0,0,1,-5,5h-127a5,5,0,0,1,-5,-5v-17a5,5,0,0,1,5,-5z" stroke-width="3"></path><g id="node_text24" fill="black"><text id="kity_text_273" text-rendering="inherit" font-size="12" dy=".8em" y="25.700004833937335" x="344.5000093877304">@RequestParam</text></g><g id="kity_g_281" style="cursor: pointer;"><path id="kity_path_282" fill="none" stroke="none" d="M448.00000947117655,25.000004726648974h12a2,2,0,0,1,2,2v13a2,2,0,0,1,-2,2h-12a2,2,0,0,1,-2,-2v-13a2,2,0,0,1,2,-2z"></path><path id="kity_path_283" fill="black" stroke="none" d="M457.0000095128998,36.00000473260947H451.0000095128998V35.00000473260947h6L457.0000095128998,36.00000473260947L457.0000095128998,36.00000473260947zM457.0000095128998,34.00000473260947H451.0000095128998V33.00000473260947h6V34.00000473260947zM457.0000095128998,32.00000473260947H451.0000095128998V31.00000473260947h6V32.00000473260947zM456.5000095128998,38.00000473260947H450.0000095128998V29.00000473260947h8v7.5M457.0000095128998,39.00000473260947l2,-2V28.00000473260947H449.0000095128998v11"></path></g></g><g id="minder_node25"><g id="node_expander24" style="cursor: pointer;" display="none"><path id="kity_path_290" fill="white" stroke="gray" d="M483.500010377167,91.00000404119547A6,6,0,1,1,471.500010377167,91.00000404119547A6,6,0,1,1,483.500010377167,91.00000404119547"></path><path id="kity_path_291" fill="none" stroke="gray"></path></g><path id="node_outline25" fill="none" stroke="none" d="M334.50000944733506,77.50000404715593h132a5,5,0,0,1,5,5v17a5,5,0,0,1,-5,5h-132a5,5,0,0,1,-5,-5v-17a5,5,0,0,1,5,-5z" stroke-width="3"></path><g id="node_text25" fill="black"><text id="kity_text_287" text-rendering="inherit" font-size="12" dy=".8em" y="82.70000415444429" x="339.50000944733506">@RequestHeader</text></g><g id="kity_g_292" style="cursor: pointer;"><path id="kity_path_293" fill="none" stroke="none" d="M448.00000618100034,82.00000404715593h12a2,2,0,0,1,2,2v13a2,2,0,0,1,-2,2h-12a2,2,0,0,1,-2,-2v-13a2,2,0,0,1,2,-2z"></path><path id="kity_path_294" fill="black" stroke="none" d="M457.0000062227236,93.00000405311641H451.0000062227236V92.00000405311641h6L457.0000062227236,93.00000405311641L457.0000062227236,93.00000405311641zM457.0000062227236,91.00000405311641H451.0000062227236V90.00000405311641h6V91.00000405311641zM457.0000062227236,89.00000405311641H451.0000062227236V88.00000405311641h6V89.00000405311641zM456.5000062227236,95.00000405311641H450.0000062227236V86.00000405311641h8v7.5M457.0000062227236,96.00000405311641l2,-2V85.00000405311641H449.0000062227236v11"></path></g></g><g id="minder_node26"><g id="node_expander25" style="cursor: pointer;" display="none"><path id="kity_path_301" fill="white" stroke="gray" d="M483.5000079452976,148.00000336170243A6,6,0,1,1,471.5000079452976,148.00000336170243A6,6,0,1,1,483.5000079452976,148.00000336170243"></path><path id="kity_path_302" fill="none" stroke="gray"></path></g><path id="node_outline26" fill="none" stroke="none" d="M347.50000929236296,134.50000336766288h119a5,5,0,0,1,5,5v17a5,5,0,0,1,-5,5h-119a5,5,0,0,1,-5,-5v-17a5,5,0,0,1,5,-5z" stroke-width="3"></path><g id="node_text26" fill="black"><text id="kity_text_298" text-rendering="inherit" font-size="12" dy=".8em" y="139.70000347495125" x="352.50000929236296">@CookileValue</text></g><g id="kity_g_303" style="cursor: pointer;"><path id="kity_path_304" fill="none" stroke="none" d="M448.000003749131,139.00000336766288h12a2,2,0,0,1,2,2v13a2,2,0,0,1,-2,2h-12a2,2,0,0,1,-2,-2v-13a2,2,0,0,1,2,-2z"></path><path id="kity_path_305" fill="black" stroke="none" d="M457.00000379085424,150.00000337362337H451.00000379085424V149.00000337362337h6L457.00000379085424,150.00000337362337L457.00000379085424,150.00000337362337zM457.00000379085424,148.00000337362337H451.00000379085424V147.00000337362337h6V148.00000337362337zM457.00000379085424,146.00000337362337H451.00000379085424V145.00000337362337h6V146.00000337362337zM456.50000379085424,152.00000337362337H450.00000379085424V143.00000337362337h8v7.5M457.00000379085424,153.00000337362337l2,-2V142.00000337362337H449.00000379085424v11"></path></g></g><g id="minder_node27"><g id="node_expander26" style="cursor: pointer;" display="none"><path id="kity_path_312" fill="white" stroke="gray" d="M483.50000808834864,205.00000268220916A6,6,0,1,1,471.50000808834864,205.00000268220916A6,6,0,1,1,483.50000808834864,205.00000268220916"></path><path id="kity_path_313" fill="none" stroke="gray"></path></g><path id="node_outline27" fill="none" stroke="none" d="M350.50000925660004,191.50000268816962h116a5,5,0,0,1,5,5v17a5,5,0,0,1,-5,5h-116a5,5,0,0,1,-5,-5v-17a5,5,0,0,1,5,-5z" stroke-width="3"></path><g id="node_text27" fill="black"><text id="kity_text_309" text-rendering="inherit" font-size="12" dy=".8em" y="196.70000279545798" x="355.50000925660004">@PathVariable</text></g><g id="kity_g_314" style="cursor: pointer;"><path id="kity_path_315" fill="none" stroke="none" d="M448.000003892182,196.00000268816962h12a2,2,0,0,1,2,2v13a2,2,0,0,1,-2,2h-12a2,2,0,0,1,-2,-2v-13a2,2,0,0,1,2,-2z"></path><path id="kity_path_316" fill="black" stroke="none" d="M457.00000393390525,207.0000026941301H451.00000393390525V206.0000026941301h6L457.00000393390525,207.0000026941301L457.00000393390525,207.0000026941301zM457.00000393390525,205.0000026941301H451.00000393390525V204.0000026941301h6V205.0000026941301zM457.00000393390525,203.0000026941301H451.00000393390525V202.0000026941301h6V203.0000026941301zM456.50000393390525,209.0000026941301H450.00000393390525V200.0000026941301h8v7.5M457.00000393390525,210.0000026941301l2,-2V199.0000026941301H449.00000393390525v11"></path></g></g><g id="minder_node28"><g id="node_expander27" style="cursor: pointer;" display="none"><path id="kity_path_323" fill="white" stroke="gray" d="M483.50000637173514,262.0000020027161A6,6,0,1,1,471.50000637173514,262.0000020027161A6,6,0,1,1,483.50000637173514,262.0000020027161"></path><path id="kity_path_324" fill="none" stroke="gray"></path></g><path id="node_outline28" fill="none" stroke="none" d="M378.5000089228141,248.50000200867657h88a5,5,0,0,1,5,5v17a5,5,0,0,1,-5,5h-88a5,5,0,0,1,-5,-5v-17a5,5,0,0,1,5,-5z" stroke-width="3"></path><g id="node_text28" fill="black"><text id="kity_text_320" text-rendering="inherit" font-size="12" dy=".8em" y="253.70000211596494" x="383.5000089228141">POJO对象</text></g><g id="kity_g_325" style="cursor: pointer;"><path id="kity_path_326" fill="none" stroke="none" d="M448.00000675320496,253.00000200867657h12a2,2,0,0,1,2,2v13a2,2,0,0,1,-2,2h-12a2,2,0,0,1,-2,-2v-13a2,2,0,0,1,2,-2z"></path><path id="kity_path_327" fill="black" stroke="none" d="M457.0000067949282,264.00000201463706H451.0000067949282V263.00000201463706h6L457.0000067949282,264.00000201463706L457.0000067949282,264.00000201463706zM457.0000067949282,262.00000201463706H451.0000067949282V261.00000201463706h6V262.00000201463706zM457.0000067949282,260.00000201463706H451.0000067949282V259.00000201463706h6V260.00000201463706zM456.5000067949282,266.00000201463706H450.0000067949282V257.00000201463706h8v7.5M457.0000067949282,267.00000201463706l2,-2V256.00000201463706H449.0000067949282v11"></path></g></g><g id="minder_node29"><g id="node_expander28" style="cursor: pointer;" display="none"><path id="kity_path_334" fill="white" stroke="gray" d="M483.5000122368318,319.00000132322305A6,6,0,1,1,471.5000122368318,319.00000132322305A6,6,0,1,1,483.5000122368318,319.00000132322305"></path><path id="kity_path_335" fill="none" stroke="gray"></path></g><path id="node_outline29" fill="none" stroke="none" d="M373.50000898241876,305.50000132918353h93a5,5,0,0,1,5,5v17a5,5,0,0,1,-5,5h-93a5,5,0,0,1,-5,-5v-17a5,5,0,0,1,5,-5z" stroke-width="3"></path><g id="node_text29" fill="black"><text id="kity_text_331" text-rendering="inherit" font-size="12" dy=".8em" y="310.7000014364719" x="378.50000898241876">Servlet API</text></g><g id="kity_g_336" style="cursor: pointer;"><path id="kity_path_337" fill="none" stroke="none" d="M448.0000080406652,310.00000132918353h12a2,2,0,0,1,2,2v13a2,2,0,0,1,-2,2h-12a2,2,0,0,1,-2,-2v-13a2,2,0,0,1,2,-2z"></path><path id="kity_path_338" fill="black" stroke="none" d="M457.00000808238843,321.000001335144H451.00000808238843V320.000001335144h6L457.00000808238843,321.000001335144L457.00000808238843,321.000001335144zM457.00000808238843,319.000001335144H451.00000808238843V318.000001335144h6V319.000001335144zM457.00000808238843,317.000001335144H451.00000808238843V316.000001335144h6V317.000001335144zM456.50000808238843,323.000001335144H450.00000808238843V314.000001335144h8v7.5M457.00000808238843,324.000001335144l2,-2V313.000001335144H449.00000808238843v11"></path></g></g><g id="minder_node30"><g id="node_expander29" style="cursor: pointer;" display="none"><path id="kity_path_345" fill="white" stroke="gray" d="M673.49999681115,375.00000065565087A6,6,0,1,1,661.49999681115,375.00000065565087A6,6,0,1,1,673.49999681115,375.00000065565087"></path><path id="kity_path_346" fill="none" stroke="gray"></path></g><path id="node_outline30" fill="none" stroke="none" d="M479.5000077188,361.50000066161135h177a5,5,0,0,1,5,5v17a5,5,0,0,1,-5,5h-177a5,5,0,0,1,-5,-5v-17a5,5,0,0,1,5,-5z" stroke-width="3"></path><g id="node_text30" fill="black"><text id="kity_text_342" text-rendering="inherit" font-size="12" dy=".8em" y="366.7000007688997" x="484.5000077188">控制器方法支持的参数类型</text></g><g id="kity_g_347" style="cursor: pointer;"><path id="kity_path_348" fill="none" stroke="none" d="M638.0000017702563,366.00000066161135h12a2,2,0,0,1,2,2v13a2,2,0,0,1,-2,2h-12a2,2,0,0,1,-2,-2v-13a2,2,0,0,1,2,-2z"></path><path id="kity_path_349" fill="black" stroke="none" d="M647.0000018119795,377.00000066757184H641.0000018119795V376.00000066757184h6L647.0000018119795,377.00000066757184L647.0000018119795,377.00000066757184zM647.0000018119795,375.00000066757184H641.0000018119795V374.00000066757184h6V375.00000066757184zM647.0000018119795,373.00000066757184H641.0000018119795V372.00000066757184h6V373.00000066757184zM646.5000018119795,379.00000066757184H640.0000018119795V370.00000066757184h8v7.5M647.0000018119795,380.00000066757184l2,-2V369.00000066757184H639.0000018119795v11"></path></g></g><g id="minder_node31"><g id="node_expander30" style="cursor: pointer;"><path id="kity_path_356" fill="white" stroke="gray" d="M673.4999972403034,543.4999986469738A6,6,0,1,1,661.4999972403034,543.4999986469738A6,6,0,1,1,673.4999972403034,543.4999986469738"></path><path id="kity_path_357" fill="none" stroke="gray" d="M662.9999972403034,543.4999986469738L671.9999972403034,543.4999986469738"></path></g><path id="node_outline31" fill="none" stroke="none" d="M488.5000076115116,532.4999986469738h168a5,5,0,0,1,5,5v12a5,5,0,0,1,-5,5h-168a5,5,0,0,1,-5,-5v-12a5,5,0,0,1,5,-5z" stroke-width="3"></path><g id="node_text31" fill="black"><text id="kity_text_353" text-rendering="inherit" font-size="12" dy=".8em" y="535.6999987542622" x="493.5000076115116">控制器方法支持的返回值类型</text></g></g><g id="minder_node32"><g id="node_expander31" style="cursor: pointer;" display="none"><path id="kity_path_364" fill="white" stroke="gray" d="M455.5000112831576,431.9999999761577A6,6,0,1,1,443.5000112831576,431.9999999761577A6,6,0,1,1,455.5000112831576,431.9999999761577"></path><path id="kity_path_365" fill="none" stroke="gray"></path></g><path id="node_outline32" fill="none" stroke="none" d="M318.50000963806997,418.4999999821182h120a5,5,0,0,1,5,5v17a5,5,0,0,1,-5,5h-120a5,5,0,0,1,-5,-5v-17a5,5,0,0,1,5,-5z" stroke-width="3"></path><g id="node_text32" fill="black"><text id="kity_text_361" text-rendering="inherit" font-size="12" dy=".8em" y="423.70000008940656" x="323.50000963806997">ModelAndView</text></g><g id="kity_g_374" style="cursor: pointer;"><path id="kity_path_375" fill="none" stroke="none" d="M420.000007086991,422.9999999821182h12a2,2,0,0,1,2,2v13a2,2,0,0,1,-2,2h-12a2,2,0,0,1,-2,-2v-13a2,2,0,0,1,2,-2z"></path><path id="kity_path_376" fill="black" stroke="none" d="M429.00000712871423,433.9999999880787H423.00000712871423V432.9999999880787h6L429.00000712871423,433.9999999880787L429.00000712871423,433.9999999880787zM429.00000712871423,431.9999999880787H423.00000712871423V430.9999999880787h6V431.9999999880787zM429.00000712871423,429.9999999880787H423.00000712871423V428.9999999880787h6V429.9999999880787zM428.50000712871423,435.9999999880787H422.00000712871423V426.9999999880787h8v7.5M429.00000712871423,436.9999999880787l2,-2V425.9999999880787H421.00000712871423v11"></path></g></g><g id="minder_node33"><g id="node_expander32" style="cursor: pointer;" display="none"><path id="kity_path_372" fill="white" stroke="gray" d="M455.50000813603265,488.99999929666467A6,6,0,1,1,443.50000813603265,488.99999929666467A6,6,0,1,1,455.50000813603265,488.99999929666467"></path><path id="kity_path_373" fill="none" stroke="gray"></path></g><path id="node_outline33" fill="none" stroke="none" d="M316.5000096619119,475.4999993026251h122a5,5,0,0,1,5,5v17a5,5,0,0,1,-5,5h-122a5,5,0,0,1,-5,-5v-17a5,5,0,0,1,5,-5z" stroke-width="3"></path><g id="node_text33" fill="black"><text id="kity_text_369" text-rendering="inherit" font-size="12" dy=".8em" y="480.69999940991346" x="321.5000096619119">&#xa0;Map以及Model</text></g><g id="kity_g_377" style="cursor: pointer;"><path id="kity_path_378" fill="none" stroke="none" d="M420.000003939866,479.9999993026251h12a2,2,0,0,1,2,2v13a2,2,0,0,1,-2,2h-12a2,2,0,0,1,-2,-2v-13a2,2,0,0,1,2,-2z"></path><path id="kity_path_379" fill="black" stroke="none" d="M429.00000398158926,490.9999993085856H423.00000398158926V489.9999993085856h6L429.00000398158926,490.9999993085856L429.00000398158926,490.9999993085856zM429.00000398158926,488.9999993085856H423.00000398158926V487.9999993085856h6V488.9999993085856zM429.00000398158926,486.9999993085856H423.00000398158926V485.9999993085856h6V486.9999993085856zM428.50000398158926,492.9999993085856H422.00000398158926V483.9999993085856h8v7.5M429.00000398158926,493.9999993085856l2,-2V482.9999993085856H421.00000398158926v11"></path></g></g><g id="minder_node34"><g id="node_expander33" style="cursor: pointer;"><path id="kity_path_386" fill="white" stroke="gray" d="M455.50000656247005,571.9999983072273A6,6,0,1,1,443.50000656247005,571.9999983072273A6,6,0,1,1,455.50000656247005,571.9999983072273"></path><path id="kity_path_387" fill="none" stroke="gray" d="M445.00000656247005,571.9999983072273L454.00000656247005,571.9999983072273"></path></g><path id="node_outline34" fill="none" stroke="none" d="M347.50000929236296,558.4999983131878h91a5,5,0,0,1,5,5v17a5,5,0,0,1,-5,5h-91a5,5,0,0,1,-5,-5v-17a5,5,0,0,1,5,-5z" stroke-width="3"></path><g id="node_text34" fill="black"><text id="kity_text_383" text-rendering="inherit" font-size="12" dy=".8em" y="563.6999984204762" x="352.50000929236296">String类型</text></g><g id="kity_g_407" style="cursor: pointer;"><path id="kity_path_408" fill="none" stroke="none" d="M420.00000694393987,562.9999983131878h12a2,2,0,0,1,2,2v13a2,2,0,0,1,-2,2h-12a2,2,0,0,1,-2,-2v-13a2,2,0,0,1,2,-2z"></path><path id="kity_path_409" fill="black" stroke="none" d="M429.0000069856631,573.9999983191483H423.0000069856631V572.9999983191483h6L429.0000069856631,573.9999983191483L429.0000069856631,573.9999983191483zM429.0000069856631,571.9999983191483H423.0000069856631V570.9999983191483h6V571.9999983191483zM429.0000069856631,569.9999983191483H423.0000069856631V568.9999983191483h6V569.9999983191483zM428.5000069856631,575.9999983191483H422.0000069856631V566.9999983191483h8v7.5M429.0000069856631,576.9999983191483l2,-2V565.9999983191483H421.0000069856631v11"></path></g></g><g id="minder_node35"><g id="node_expander34" style="cursor: pointer;" display="none"><path id="kity_path_394" fill="white" stroke="gray" d="M314.50001224875325,543.4999986469738A6,6,0,1,1,302.50001224875325,543.4999986469738A6,6,0,1,1,314.50001224875325,543.4999986469738"></path><path id="kity_path_395" fill="none" stroke="gray"></path></g><path id="node_outline35" fill="none" stroke="none" d="M226.50001073479564,532.4999986469738h71a5,5,0,0,1,5,5v12a5,5,0,0,1,-5,5h-71a5,5,0,0,1,-5,-5v-12a5,5,0,0,1,5,-5z" stroke-width="3"></path><g id="node_text35" fill="black"><text id="kity_text_391" text-rendering="inherit" font-size="12" dy=".8em" y="535.6999987542622" x="231.50001073479564">逻辑视图名</text></g></g><g id="minder_node36"><g id="node_expander35" style="cursor: pointer;" display="none"><path id="kity_path_402" fill="white" stroke="gray" d="M314.50001482367384,597.999997997283A6,6,0,1,1,302.50001482367384,597.999997997283A6,6,0,1,1,314.50001482367384,597.999997997283"></path><path id="kity_path_403" fill="none" stroke="gray"></path></g><path id="node_outline36" fill="none" stroke="none" d="M24.500013142823946,584.4999980032435h273a5,5,0,0,1,5,5v17a5,5,0,0,1,-5,5h-273a5,5,0,0,1,-5,-5v-17a5,5,0,0,1,5,-5z" stroke-width="3"></path><g id="node_text36" fill="black"><text id="kity_text_399" text-rendering="inherit" font-size="12" dy=".8em" y="589.6999981105319" x="29.500013142823946">@ResponseBody注解标注之后作为响应内容</text></g><g id="kity_g_404" style="cursor: pointer;"><path id="kity_path_405" fill="none" stroke="none" d="M279.0000106275072,588.9999980032435h12a2,2,0,0,1,2,2v13a2,2,0,0,1,-2,2h-12a2,2,0,0,1,-2,-2v-13a2,2,0,0,1,2,-2z"></path><path id="kity_path_406" fill="black" stroke="none" d="M288.00001066923045,599.999998009204H282.00001066923045V598.999998009204h6L288.00001066923045,599.999998009204L288.00001066923045,599.999998009204zM288.00001066923045,597.999998009204H282.00001066923045V596.999998009204h6V597.999998009204zM288.00001066923045,595.999998009204H282.00001066923045V594.999998009204h6V595.999998009204zM287.50001066923045,601.999998009204H281.00001066923045V592.999998009204h8v7.5M288.00001066923045,602.999998009204l2,-2V591.999998009204H280.00001066923045v11"></path></g></g><g id="minder_node37"><g id="node_expander36" style="cursor: pointer;" display="none"><path id="kity_path_416" fill="white" stroke="gray" d="M455.50000970959513,654.99999731779A6,6,0,1,1,443.50000970959513,654.99999731779A6,6,0,1,1,455.50000970959513,654.99999731779"></path><path id="kity_path_417" fill="none" stroke="gray" d="M445.00000970959513,654.99999731779L454.00000970959513,654.99999731779"></path></g><path id="node_outline37" fill="none" stroke="none" d="M381.5000088870513,641.4999973237504h57a5,5,0,0,1,5,5v17a5,5,0,0,1,-5,5h-57a5,5,0,0,1,-5,-5v-17a5,5,0,0,1,5,-5z" stroke-width="3"></path><g id="node_text37" fill="black"><text id="kity_text_413" text-rendering="inherit" font-size="12" dy=".8em" y="646.6999974310388" x="386.5000088870513">void</text></g><g id="kity_g_426" style="cursor: pointer;"><path id="kity_path_427" fill="none" stroke="none" d="M420.0000078022467,645.9999973237504h12a2,2,0,0,1,2,2v13a2,2,0,0,1,-2,2h-12a2,2,0,0,1,-2,-2v-13a2,2,0,0,1,2,-2z"></path><path id="kity_path_428" fill="black" stroke="none" d="M429.00000784396997,656.9999973297109H423.00000784396997V655.9999973297109h6L429.00000784396997,656.9999973297109L429.00000784396997,656.9999973297109zM429.00000784396997,654.9999973297109H423.00000784396997V653.9999973297109h6V654.9999973297109zM429.00000784396997,652.9999973297109H423.00000784396997V651.9999973297109h6V652.9999973297109zM428.50000784396997,658.9999973297109H422.00000784396997V649.9999973297109h8v7.5M429.00000784396997,659.9999973297109l2,-2V648.9999973297109H421.00000784396997v11"></path></g></g><g id="minder_node39"><g id="node_expander38" style="cursor: pointer;"><path id="kity_path_435" fill="white" stroke="gray" d="M855.5000079452963,1197.4999908506845A6,6,0,1,1,843.5000079452963,1197.4999908506845A6,6,0,1,1,855.5000079452963,1197.4999908506845"></path><path id="kity_path_436" fill="none" stroke="gray" d="M845.0000079452963,1197.4999908506845L854.0000079452963,1197.4999908506845"></path></g><path id="node_outline39" fill="rgb(238, 243, 246)" stroke="rgb(115, 161, 191)" d="M672.5000052750089,1184.4999908506845h167a3,3,0,0,1,3,3v20a3,3,0,0,1,-3,3h-167a3,3,0,0,1,-3,-3v-20a3,3,0,0,1,3,-3z" stroke-width="1"></path><g id="node_text39" fill="black"><text id="kity_text_432" text-rendering="inherit" font-size="14" dy=".8em" y="1188.3999909758543" x="689.5000052750089">SpringMVC常用特性</text></g></g><g id="minder_node41"><g id="node_expander40" style="cursor: pointer;"><path id="kity_path_451" fill="white" stroke="gray" d="M641.5000079214552,864.9999948143943A6,6,0,1,1,629.5000079214552,864.9999948143943A6,6,0,1,1,641.5000079214552,864.9999948143943"></path><path id="kity_path_452" fill="none" stroke="gray" d="M631.0000079214552,864.9999948143943L640.0000079214552,864.9999948143943"></path></g><path id="node_outline41" fill="none" stroke="none" d="M544.5000069439394,851.4999948203548h80a5,5,0,0,1,5,5v17a5,5,0,0,1,-5,5h-80a5,5,0,0,1,-5,-5v-17a5,5,0,0,1,5,-5z" stroke-width="3"></path><g id="node_text41" fill="black"><text id="kity_text_448" text-rendering="inherit" font-size="12" dy=".8em" y="856.6999949276432" x="549.5000069439394">上传文件</text></g><g id="kity_g_453" style="cursor: pointer;"><path id="kity_path_454" fill="none" stroke="none" d="M606.000008302925,855.9999948203548h12a2,2,0,0,1,2,2v13a2,2,0,0,1,-2,2h-12a2,2,0,0,1,-2,-2v-13a2,2,0,0,1,2,-2z"></path><path id="kity_path_455" fill="black" stroke="none" d="M615.0000083446482,866.9999948263153H609.0000083446482V865.9999948263153h6L615.0000083446482,866.9999948263153L615.0000083446482,866.9999948263153zM615.0000083446482,864.9999948263153H609.0000083446482V863.9999948263153h6V864.9999948263153zM615.0000083446482,862.9999948263153H609.0000083446482V861.9999948263153h6V862.9999948263153zM614.5000083446482,868.9999948263153H608.0000083446482V859.9999948263153h8v7.5M615.0000083446482,869.9999948263153l2,-2V858.9999948263153H607.0000083446482v11"></path></g></g><g id="minder_node43"><g id="node_expander42" style="cursor: pointer;" display="none"><path id="kity_path_470" fill="white" stroke="gray" d="M511.5000100433808,765.4999949991691A6,6,0,1,1,499.5000100433808,765.4999949991691A6,6,0,1,1,511.5000100433808,765.4999949991691"></path><path id="kity_path_471" fill="none" stroke="gray"></path></g><path id="node_outline43" fill="none" stroke="none" d="M284.50000987648855,708.499995487927h210a5,5,0,0,1,5,5v104a5,5,0,0,1,-5,5h-210a5,5,0,0,1,-5,-5v-104a5,5,0,0,1,5,-5z" stroke-width="3"></path><g id="node_text43" fill="black"><text id="kity_text_467" text-rendering="inherit" font-size="12" dy=".8em" y="800.6999955952153" x="303.50000987648855">Multipart形式数据请求详解</text></g><image id="kity_image_472" xlink:href="http://kityminder-img.gz.bcebos.com/e29c0ee83c56f6d8b5f1b7b573122d39857187b6" x="289.50000987648855" y="713.499995487927" width="200" height="82" xlink:title="Multipart形式数据请求详解"></image><g id="kity_g_481" style="cursor: pointer;"><path id="kity_path_482" fill="none" stroke="none" d="M461.00000674128387,799.999995487927h12a2,2,0,0,1,2,2v13a2,2,0,0,1,-2,2h-12a2,2,0,0,1,-2,-2v-13a2,2,0,0,1,2,-2z"></path><path id="kity_path_483" fill="black" stroke="none" d="M470.0000067830071,810.9999954938875H464.0000067830071V809.9999954938875h6L470.0000067830071,810.9999954938875L470.0000067830071,810.9999954938875zM470.0000067830071,808.9999954938875H464.0000067830071V807.9999954938875h6V808.9999954938875zM470.0000067830071,806.9999954938875H464.0000067830071V805.9999954938875h6V806.9999954938875zM469.5000067830071,812.9999954938875H463.0000067830071V803.9999954938875h8v7.5M470.0000067830071,813.9999954938875l2,-2V802.9999954938875H462.0000067830071v11"></path></g></g><g id="minder_node44"><g id="node_expander43" style="cursor: pointer;"><path id="kity_path_479" fill="white" stroke="gray" d="M511.500016337631,893.9999944686873A6,6,0,1,1,499.500016337631,893.9999944686873A6,6,0,1,1,511.500016337631,893.9999944686873"></path><path id="kity_path_480" fill="none" stroke="gray" d="M501.000016337631,893.9999944686873L510.000016337631,893.9999944686873"></path></g><path id="node_outline44" fill="none" stroke="none" d="M302.5000098288049,880.4999944746478h192a5,5,0,0,1,5,5v17a5,5,0,0,1,-5,5h-192a5,5,0,0,1,-5,-5v-17a5,5,0,0,1,5,-5z" stroke-width="3"></path><g id="node_text44" fill="black"><text id="kity_text_476" text-rendering="inherit" font-size="12" dy=".8em" y="885.6999945819362" x="307.5000098288049">Spring中配置Mutipart解析器</text></g><g id="kity_g_484" style="cursor: pointer;"><path id="kity_path_485" fill="none" stroke="none" d="M476.00001214146437,884.9999944746478h12a2,2,0,0,1,2,2v13a2,2,0,0,1,-2,2h-12a2,2,0,0,1,-2,-2v-13a2,2,0,0,1,2,-2z"></path><path id="kity_path_486" fill="black" stroke="none" d="M485.0000121831876,895.9999944806083H479.0000121831876V894.9999944806083h6L485.0000121831876,895.9999944806083L485.0000121831876,895.9999944806083zM485.0000121831876,893.9999944806083H479.0000121831876V892.9999944806083h6V893.9999944806083zM485.0000121831876,891.9999944806083H479.0000121831876V890.9999944806083h6V891.9999944806083zM484.5000121831876,897.9999944806083H478.0000121831876V888.9999944806083h8v7.5M485.0000121831876,898.9999944806083l2,-2V887.9999944806083H477.0000121831876v11"></path></g></g><g id="minder_node45"><g id="node_expander44" style="cursor: pointer;" display="none"><path id="kity_path_493" fill="white" stroke="gray" d="M269.50001321434854,865.9999948024733A6,6,0,1,1,257.50001321434854,865.9999948024733A6,6,0,1,1,269.50001321434854,865.9999948024733"></path><path id="kity_path_494" fill="none" stroke="gray"></path></g><path id="node_outline45" fill="none" stroke="none" d="M62.500012689828395,852.4999948084338h190a5,5,0,0,1,5,5v17a5,5,0,0,1,-5,5h-190a5,5,0,0,1,-5,-5v-17a5,5,0,0,1,5,-5z" stroke-width="3"></path><g id="node_text45" fill="black"><text id="kity_text_490" text-rendering="inherit" font-size="12" dy=".8em" y="857.6999949157222" x="67.5000126898284">commonsMultipartResolver</text></g><g id="kity_g_506" style="cursor: pointer;"><path id="kity_path_507" fill="none" stroke="none" d="M234.0000090181819,856.9999948084338h12a2,2,0,0,1,2,2v13a2,2,0,0,1,-2,2h-12a2,2,0,0,1,-2,-2v-13a2,2,0,0,1,2,-2z"></path><path id="kity_path_508" fill="black" stroke="none" d="M243.00000905990515,867.9999948143943H237.00000905990515V866.9999948143943h6L243.00000905990515,867.9999948143943L243.00000905990515,867.9999948143943zM243.00000905990515,865.9999948143943H237.00000905990515V864.9999948143943h6V865.9999948143943zM243.00000905990515,863.9999948143943H237.00000905990515V862.9999948143943h6V863.9999948143943zM242.50000905990515,869.9999948143943H236.00000905990515V860.9999948143943h8v7.5M243.00000905990515,870.9999948143943l2,-2V859.9999948143943H235.00000905990515v11"></path></g></g><g id="minder_node46"><g id="node_expander45" style="cursor: pointer;" display="none"><path id="kity_path_501" fill="white" stroke="gray" d="M269.500017648934,922.9999941229802A6,6,0,1,1,257.500017648934,922.9999941229802A6,6,0,1,1,269.500017648934,922.9999941229802"></path><path id="kity_path_502" fill="none" stroke="gray"></path></g><path id="node_outline46" fill="none" stroke="none" d="M27.500013107061136,909.4999941289407h225a5,5,0,0,1,5,5v17a5,5,0,0,1,-5,5h-225a5,5,0,0,1,-5,-5v-17a5,5,0,0,1,5,-5z" stroke-width="3"></path><g id="node_text46" fill="black"><text id="kity_text_498" text-rendering="inherit" font-size="12" dy=".8em" y="914.699994236229" x="32.500013107061136">StandardServletMultipartResolver</text></g><g id="kity_g_503" style="cursor: pointer;"><path id="kity_path_504" fill="none" stroke="none" d="M234.00001345276738,913.9999941289407h12a2,2,0,0,1,2,2v13a2,2,0,0,1,-2,2h-12a2,2,0,0,1,-2,-2v-13a2,2,0,0,1,2,-2z"></path><path id="kity_path_505" fill="black" stroke="none" d="M243.00001349449062,924.9999941349012H237.00001349449062V923.9999941349012h6L243.00001349449062,924.9999941349012L243.00001349449062,924.9999941349012zM243.00001349449062,922.9999941349012H237.00001349449062V921.9999941349012h6V922.9999941349012zM243.00001349449062,920.9999941349012H237.00001349449062V919.9999941349012h6V920.9999941349012zM242.50001349449062,926.9999941349012H236.00001349449062V917.9999941349012h8v7.5M243.00001349449062,927.9999941349012l2,-2V916.9999941349012H235.00001349449062v11"></path></g></g><g id="minder_node47"><g id="node_expander46" style="cursor: pointer;"><path id="kity_path_515" fill="white" stroke="gray" d="M511.49999988675006,1007.999993109701A6,6,0,1,1,499.49999988675006,1007.999993109701A6,6,0,1,1,511.49999988675006,1007.999993109701"></path><path id="kity_path_516" fill="none" stroke="gray" d="M500.99999988675006,1007.999993109701L509.99999988675006,1007.999993109701"></path></g><path id="node_outline47" fill="none" stroke="none" d="M341.5000093638886,994.4999931156615h153a5,5,0,0,1,5,5v17a5,5,0,0,1,-5,5h-153a5,5,0,0,1,-5,-5v-17a5,5,0,0,1,5,-5z" stroke-width="3"></path><g id="node_text47" fill="black"><text id="kity_text_512" text-rendering="inherit" font-size="12" dy=".8em" y="999.6999932229498" x="346.5000093638886">编写上传文件的控制器</text></g><g id="kity_g_517" style="cursor: pointer;"><path id="kity_path_518" fill="none" stroke="none" d="M476.0000048458563,998.9999931156615h12a2,2,0,0,1,2,2v13a2,2,0,0,1,-2,2h-12a2,2,0,0,1,-2,-2v-13a2,2,0,0,1,2,-2z"></path><path id="kity_path_519" fill="black" stroke="none" d="M485.00000488757956,1009.999993121622H479.00000488757956V1008.999993121622h6L485.00000488757956,1009.999993121622L485.00000488757956,1009.999993121622zM485.00000488757956,1007.999993121622H479.00000488757956V1006.999993121622h6V1007.999993121622zM485.00000488757956,1005.999993121622H479.00000488757956V1004.999993121622h6V1005.999993121622zM484.50000488757956,1011.999993121622H478.00000488757956V1002.999993121622h8v7.5M485.00000488757956,1012.999993121622l2,-2V1001.999993121622H477.00000488757956v11"></path></g></g><g id="minder_node48"><g id="node_expander47" style="cursor: pointer;" display="none"><path id="kity_path_526" fill="white" stroke="gray" d="M308.50001074671627,979.9999934434871A6,6,0,1,1,296.50001074671627,979.9999934434871A6,6,0,1,1,308.50001074671627,979.9999934434871"></path><path id="kity_path_527" fill="none" stroke="gray"></path></g><path id="node_outline48" fill="none" stroke="none" d="M187.50001119971193,966.4999934494476h104a5,5,0,0,1,5,5v17a5,5,0,0,1,-5,5h-104a5,5,0,0,1,-5,-5v-17a5,5,0,0,1,5,-5z" stroke-width="3"></path><g id="node_text48" fill="black"><text id="kity_text_523" text-rendering="inherit" font-size="12" dy=".8em" y="971.699993556736" x="192.50001119971193">创建一个视图</text></g><g id="kity_g_539" style="cursor: pointer;"><path id="kity_path_540" fill="none" stroke="none" d="M273.00000655054964,970.9999934494476h12a2,2,0,0,1,2,2v13a2,2,0,0,1,-2,2h-12a2,2,0,0,1,-2,-2v-13a2,2,0,0,1,2,-2z"></path><path id="kity_path_541" fill="black" stroke="none" d="M282.0000065922729,981.9999934554081H276.0000065922729V980.9999934554081h6L282.0000065922729,981.9999934554081L282.0000065922729,981.9999934554081zM282.0000065922729,979.9999934554081H276.0000065922729V978.9999934554081h6V979.9999934554081zM282.0000065922729,977.9999934554081H276.0000065922729V976.9999934554081h6V977.9999934554081zM281.5000065922729,983.9999934554081H275.0000065922729V974.9999934554081h8v7.5M282.0000065922729,984.9999934554081l2,-2V973.9999934554081H274.0000065922729v11"></path></g></g><g id="minder_node49"><g id="node_expander48" style="cursor: pointer;" display="none"><path id="kity_path_534" fill="white" stroke="gray" d="M308.50001432299484,1036.9999927639942A6,6,0,1,1,296.50001432299484,1036.9999927639942A6,6,0,1,1,308.50001432299484,1036.9999927639942"></path><path id="kity_path_535" fill="none" stroke="gray"></path></g><path id="node_outline49" fill="none" stroke="none" d="M198.50001106858178,1023.4999927699546h93a5,5,0,0,1,5,5v17a5,5,0,0,1,-5,5h-93a5,5,0,0,1,-5,-5v-17a5,5,0,0,1,5,-5z" stroke-width="3"></path><g id="node_text49" fill="black"><text id="kity_text_531" text-rendering="inherit" font-size="12" dy=".8em" y="1028.699992877243" x="203.50001106858178">创建处理器</text></g><g id="kity_g_536" style="cursor: pointer;"><path id="kity_path_537" fill="none" stroke="none" d="M273.0000101268282,1027.9999927699546h12a2,2,0,0,1,2,2v13a2,2,0,0,1,-2,2h-12a2,2,0,0,1,-2,-2v-13a2,2,0,0,1,2,-2z"></path><path id="kity_path_538" fill="black" stroke="none" d="M282.00001016855146,1038.9999927759152H276.00001016855146V1037.9999927759152h6L282.00001016855146,1038.9999927759152L282.00001016855146,1038.9999927759152zM282.00001016855146,1036.9999927759152H276.00001016855146V1035.9999927759152h6V1036.9999927759152zM282.00001016855146,1034.9999927759152H276.00001016855146V1033.9999927759152h6V1034.9999927759152zM281.50001016855146,1040.9999927759152H275.00001016855146V1031.9999927759152h8v7.5M282.00001016855146,1041.9999927759152l2,-2V1030.9999927759152H274.00001016855146v11"></path></g></g><g id="minder_node51"><g id="node_expander50" style="cursor: pointer;"><path id="kity_path_556" fill="white" stroke="gray" d="M641.5000079214552,1225.999990510938A6,6,0,1,1,629.5000079214552,1225.999990510938A6,6,0,1,1,641.5000079214552,1225.999990510938"></path><path id="kity_path_557" fill="none" stroke="gray" d="M631.0000079214552,1225.999990510938L640.0000079214552,1225.999990510938"></path></g><path id="node_outline51" fill="none" stroke="none" d="M544.5000069439394,1212.4999905168984h80a5,5,0,0,1,5,5v17a5,5,0,0,1,-5,5h-80a5,5,0,0,1,-5,-5v-17a5,5,0,0,1,5,-5z" stroke-width="3"></path><g id="node_text51" fill="black"><text id="kity_text_553" text-rendering="inherit" font-size="12" dy=".8em" y="1217.6999906241867" x="549.5000069439394">异常处理</text></g><g id="kity_g_558" style="cursor: pointer;"><path id="kity_path_559" fill="none" stroke="none" d="M606.000008302925,1216.9999905168984h12a2,2,0,0,1,2,2v13a2,2,0,0,1,-2,2h-12a2,2,0,0,1,-2,-2v-13a2,2,0,0,1,2,-2z"></path><path id="kity_path_560" fill="black" stroke="none" d="M615.0000083446482,1227.999990522859H609.0000083446482V1226.999990522859h6L615.0000083446482,1227.999990522859L615.0000083446482,1227.999990522859zM615.0000083446482,1225.999990522859H609.0000083446482V1224.999990522859h6V1225.999990522859zM615.0000083446482,1223.999990522859H609.0000083446482V1222.999990522859h6V1223.999990522859zM614.5000083446482,1229.999990522859H608.0000083446482V1220.999990522859h8v7.5M615.0000083446482,1230.999990522859l2,-2V1219.999990522859H607.0000083446482v11"></path></g></g><g id="minder_node52"><g id="node_expander51" style="cursor: pointer;" display="none"><path id="kity_path_567" fill="white" stroke="gray" d="M511.5000113308412,1168.9999932646726A6,6,0,1,1,499.5000113308412,1168.9999932646726A6,6,0,1,1,511.5000113308412,1168.9999932646726"></path><path id="kity_path_568" fill="none" stroke="gray"></path></g><path id="node_outline52" fill="none" stroke="none" d="M284.5000095546235,1079.4999902904008h210a5,5,0,0,1,5,5v169a5,5,0,0,1,-5,5h-210a5,5,0,0,1,-5,-5v-169a5,5,0,0,1,5,-5z" stroke-width="3"></path><g id="node_text52" fill="black"><text id="kity_text_564" text-rendering="inherit" font-size="12" dy=".8em" y="1236.6999903976891" x="330.5000095546235">异常映射为状态码</text></g><g id="kity_g_569" style="cursor: pointer;"><path id="kity_path_570" fill="none" stroke="none" d="M434.0000096380696,1235.9999902904008h12a2,2,0,0,1,2,2v13a2,2,0,0,1,-2,2h-12a2,2,0,0,1,-2,-2v-13a2,2,0,0,1,2,-2z"></path><path id="kity_path_571" fill="black" stroke="none" d="M443.00000967979287,1246.9999902963614H437.00000967979287V1245.9999902963614h6L443.00000967979287,1246.9999902963614L443.00000967979287,1246.9999902963614zM443.00000967979287,1244.9999902963614H437.00000967979287V1243.9999902963614h6V1244.9999902963614zM443.00000967979287,1242.9999902963614H437.00000967979287V1241.9999902963614h6V1242.9999902963614zM442.50000967979287,1248.9999902963614H436.00000967979287V1239.9999902963614h8v7.5M443.00000967979287,1249.9999902963614l2,-2V1238.9999902963614H435.00000967979287v11"></path></g><image id="kity_image_572" xlink:href="http://kityminder-img.gz.bcebos.com/13263759008813b292026d8748073e6d1ec0a40e" x="289.5000095546235" y="1084.4999902904008" width="200" height="147" xlink:title="异常映射的状态码"></image></g><g id="minder_node53"><g id="node_expander52" style="cursor: pointer;" display="none"><path id="kity_path_579" fill="white" stroke="gray" d="M511.50000532269337,1301.9999896049471A6,6,0,1,1,499.50000532269337,1301.9999896049471A6,6,0,1,1,511.50000532269337,1301.9999896049471"></path><path id="kity_path_580" fill="none" stroke="gray"></path></g><path id="node_outline53" fill="none" stroke="none" d="M391.500008767842,1288.4999896109075h103a5,5,0,0,1,5,5v17a5,5,0,0,1,-5,5h-103a5,5,0,0,1,-5,-5v-17a5,5,0,0,1,5,-5z" stroke-width="3"></path><g id="node_text53" fill="black"><text id="kity_text_576" text-rendering="inherit" font-size="12" dy=".8em" y="1293.6999897181959" x="396.500008767842">异常处理方法</text></g><g id="kity_g_581" style="cursor: pointer;"><path id="kity_path_582" fill="none" stroke="none" d="M476.00001028179963,1292.9999896109075h12a2,2,0,0,1,2,2v13a2,2,0,0,1,-2,2h-12a2,2,0,0,1,-2,-2v-13a2,2,0,0,1,2,-2z"></path><path id="kity_path_583" fill="black" stroke="none" d="M485.0000103235229,1303.999989616868H479.0000103235229V1302.999989616868h6L485.0000103235229,1303.999989616868L485.0000103235229,1303.999989616868zM485.0000103235229,1301.999989616868H479.0000103235229V1300.999989616868h6V1301.999989616868zM485.0000103235229,1299.999989616868H479.0000103235229V1298.999989616868h6V1299.999989616868zM484.5000103235229,1305.999989616868H478.0000103235229V1296.999989616868h8v7.5M485.0000103235229,1306.999989616868l2,-2V1295.999989616868H477.0000103235229v11"></path></g></g><g id="minder_node54"><g id="node_expander53" style="cursor: pointer;" display="none"><path id="kity_path_590" fill="white" stroke="gray" d="M511.50000417828426,1358.999988925454A6,6,0,1,1,499.50000417828426,1358.999988925454A6,6,0,1,1,511.50000417828426,1358.999988925454"></path><path id="kity_path_591" fill="none" stroke="gray"></path></g><path id="node_outline54" fill="none" stroke="none" d="M367.5000090539444,1345.4999889314145h127a5,5,0,0,1,5,5v17a5,5,0,0,1,-5,5h-127a5,5,0,0,1,-5,-5v-17a5,5,0,0,1,5,-5z" stroke-width="3"></path><g id="node_text54" fill="black"><text id="kity_text_587" text-rendering="inherit" font-size="12" dy=".8em" y="1350.6999890387028" x="372.5000090539444">异常处理方法进阶</text></g><g id="kity_g_592" style="cursor: pointer;"><path id="kity_path_593" fill="none" stroke="none" d="M476.0000091373905,1349.9999889314145h12a2,2,0,0,1,2,2v13a2,2,0,0,1,-2,2h-12a2,2,0,0,1,-2,-2v-13a2,2,0,0,1,2,-2z"></path><path id="kity_path_594" fill="black" stroke="none" d="M485.00000917911376,1360.999988937375H479.00000917911376V1359.999988937375h6L485.00000917911376,1360.999988937375L485.00000917911376,1360.999988937375zM485.00000917911376,1358.999988937375H479.00000917911376V1357.999988937375h6V1358.999988937375zM485.00000917911376,1356.999988937375H479.00000917911376V1355.999988937375h6V1356.999988937375zM484.50000917911376,1362.999988937375H478.00000917911376V1353.999988937375h8v7.5M485.00000917911376,1363.999988937375l2,-2V1352.999988937375H477.00000917911376v11"></path></g></g><g id="minder_node55"><g id="node_expander54" style="cursor: pointer;"><path id="kity_path_601" fill="white" stroke="gray" d="M641.5000037729721,1444.999987900254A6,6,0,1,1,629.5000037729721,1444.999987900254A6,6,0,1,1,641.5000037729721,1444.999987900254"></path><path id="kity_path_602" fill="none" stroke="gray" d="M631.0000037729721,1444.999987900254L640.0000037729721,1444.999987900254"></path></g><path id="node_outline55" fill="none" stroke="none" d="M521.5000072181208,1431.4999879062143h103a5,5,0,0,1,5,5v17a5,5,0,0,1,-5,5h-103a5,5,0,0,1,-5,-5v-17a5,5,0,0,1,5,-5z" stroke-width="3"></path><g id="node_text55" fill="black"><text id="kity_text_598" text-rendering="inherit" font-size="12" dy=".8em" y="1436.6999880135027" x="526.5000072181208">静态资源处理</text></g><g id="kity_g_603" style="cursor: pointer;"><path id="kity_path_604" fill="none" stroke="none" d="M606.0000087320784,1435.9999879062143h12a2,2,0,0,1,2,2v13a2,2,0,0,1,-2,2h-12a2,2,0,0,1,-2,-2v-13a2,2,0,0,1,2,-2z"></path><path id="kity_path_605" fill="black" stroke="none" d="M615.0000087738017,1446.999987912175H609.0000087738017V1445.999987912175h6L615.0000087738017,1446.999987912175L615.0000087738017,1446.999987912175zM615.0000087738017,1444.999987912175H609.0000087738017V1443.999987912175h6V1444.999987912175zM615.0000087738017,1442.999987912175H609.0000087738017V1441.999987912175h6V1442.999987912175zM614.5000087738017,1448.999987912175H608.0000087738017V1439.999987912175h8v7.5M615.0000087738017,1449.999987912175l2,-2V1438.999987912175H607.0000087738017v11"></path></g></g><g id="minder_node57"><g id="node_expander56" style="cursor: pointer;" display="none"><path id="kity_path_620" fill="white" stroke="gray" d="M488.5000037372099,1416.99998823404A6,6,0,1,1,476.5000037372099,1416.99998823404A6,6,0,1,1,488.5000037372099,1416.99998823404"></path><path id="kity_path_621" fill="none" stroke="gray"></path></g><path id="node_outline57" fill="none" stroke="none" d="M265.50001026987934,1403.4999882400004h206a5,5,0,0,1,5,5v17a5,5,0,0,1,-5,5h-206a5,5,0,0,1,-5,-5v-17a5,5,0,0,1,5,-5z" stroke-width="3"></path><g id="node_text57" fill="black"><text id="kity_text_617" text-rendering="inherit" font-size="12" dy=".8em" y="1408.6999883472888" x="270.50001026987934">默认Servlet由Web容器进行处理</text></g><g id="kity_g_622" style="cursor: pointer;"><path id="kity_path_623" fill="none" stroke="none" d="M452.9999995410433,1407.9999882400004h12a2,2,0,0,1,2,2v13a2,2,0,0,1,-2,2h-12a2,2,0,0,1,-2,-2v-13a2,2,0,0,1,2,-2z"></path><path id="kity_path_624" fill="black" stroke="none" d="M461.9999995827665,1418.999988245961H455.9999995827665V1417.999988245961h6L461.9999995827665,1418.999988245961L461.9999995827665,1418.999988245961zM461.9999995827665,1416.999988245961H455.9999995827665V1415.999988245961h6V1416.999988245961zM461.9999995827665,1414.999988245961H455.9999995827665V1413.999988245961h6V1414.999988245961zM461.4999995827665,1420.999988245961H454.9999995827665V1411.999988245961h8v7.5M461.9999995827665,1421.999988245961l2,-2V1410.999988245961H453.9999995827665v11"></path></g></g><g id="minder_node58"><g id="node_expander57" style="cursor: pointer;" display="none"><path id="kity_path_631" fill="white" stroke="gray" d="M488.5000117480737,1473.999987554547A6,6,0,1,1,476.5000117480737,1473.999987554547A6,6,0,1,1,488.5000117480737,1473.999987554547"></path><path id="kity_path_632" fill="none" stroke="gray"></path></g><path id="node_outline58" fill="none" stroke="none" d="M305.50000979304207,1460.4999875605074h166a5,5,0,0,1,5,5v17a5,5,0,0,1,-5,5h-166a5,5,0,0,1,-5,-5v-17a5,5,0,0,1,5,-5z" stroke-width="3"></path><g id="node_text58" fill="black"><text id="kity_text_628" text-rendering="inherit" font-size="12" dy=".8em" y="1465.6999876677958" x="310.50000979304207">&#xa0;采用Spring的Resources</text></g><g id="kity_g_633" style="cursor: pointer;"><path id="kity_path_634" fill="none" stroke="none" d="M453.00000755190706,1464.9999875605074h12a2,2,0,0,1,2,2v13a2,2,0,0,1,-2,2h-12a2,2,0,0,1,-2,-2v-13a2,2,0,0,1,2,-2z"></path><path id="kity_path_635" fill="black" stroke="none" d="M462.0000075936303,1475.999987566468H456.0000075936303V1474.999987566468h6L462.0000075936303,1475.999987566468L462.0000075936303,1475.999987566468zM462.0000075936303,1473.999987566468H456.0000075936303V1472.999987566468h6V1473.999987566468zM462.0000075936303,1471.999987566468H456.0000075936303V1470.999987566468h6V1471.999987566468zM461.5000075936303,1477.999987566468H455.0000075936303V1468.999987566468h8v7.5M462.0000075936303,1478.999987566468l2,-2V1467.999987566468H454.0000075936303v11"></path></g></g><g id="minder_node59"><g id="node_expander58" style="cursor: pointer;"><path id="kity_path_642" fill="white" stroke="gray" d="M641.5000039160234,1529.9999868869747A6,6,0,1,1,629.5000039160234,1529.9999868869747A6,6,0,1,1,641.5000039160234,1529.9999868869747"></path><path id="kity_path_643" fill="none" stroke="gray" d="M631.0000039160234,1529.9999868869747L640.0000039160234,1529.9999868869747"></path></g><path id="node_outline59" fill="none" stroke="none" d="M556.5000068008883,1516.499986892935h68a5,5,0,0,1,5,5v17a5,5,0,0,1,-5,5h-68a5,5,0,0,1,-5,-5v-17a5,5,0,0,1,5,-5z" stroke-width="3"></path><g id="node_text59" fill="black"><text id="kity_text_639" text-rendering="inherit" font-size="12" dy=".8em" y="1521.6999870002235" x="561.5000068008883">拦截器</text></g><g id="kity_g_644" style="cursor: pointer;"><path id="kity_path_645" fill="none" stroke="none" d="M606.0000042974932,1520.999986892935h12a2,2,0,0,1,2,2v13a2,2,0,0,1,-2,2h-12a2,2,0,0,1,-2,-2v-13a2,2,0,0,1,2,-2z"></path><path id="kity_path_646" fill="black" stroke="none" d="M615.0000043392165,1531.9999868988957H609.0000043392165V1530.9999868988957h6L615.0000043392165,1531.9999868988957L615.0000043392165,1531.9999868988957zM615.0000043392165,1529.9999868988957H609.0000043392165V1528.9999868988957h6V1529.9999868988957zM615.0000043392165,1527.9999868988957H609.0000043392165V1526.9999868988957h6V1527.9999868988957zM614.5000043392165,1533.9999868988957H608.0000043392165V1524.9999868988957h8v7.5M615.0000043392165,1534.9999868988957l2,-2V1523.9999868988957H607.0000043392165v11"></path></g></g><g id="minder_node61"><g id="node_expander60" style="cursor: pointer;" display="none"><path id="kity_path_661" fill="white" stroke="gray" d="M523.500008040665,1529.9999868869747A6,6,0,1,1,511.50000804066497,1529.9999868869747A6,6,0,1,1,523.500008040665,1529.9999868869747"></path><path id="kity_path_662" fill="none" stroke="gray"></path></g><path id="node_outline61" fill="none" stroke="none" d="M399.50000867247456,1516.499986892935h107a5,5,0,0,1,5,5v17a5,5,0,0,1,-5,5h-107a5,5,0,0,1,-5,-5v-17a5,5,0,0,1,5,-5z" stroke-width="3"></path><g id="node_text61" fill="black"><text id="kity_text_658" text-rendering="inherit" font-size="12" dy=".8em" y="1521.6999870002235" x="404.50000867247456">&#xa0;自定义拦截器</text></g><g id="kity_g_663" style="cursor: pointer;"><path id="kity_path_664" fill="none" stroke="none" d="M488.00000384449834,1520.999986892935h12a2,2,0,0,1,2,2v13a2,2,0,0,1,-2,2h-12a2,2,0,0,1,-2,-2v-13a2,2,0,0,1,2,-2z"></path><path id="kity_path_665" fill="black" stroke="none" d="M497.0000038862216,1531.9999868988957H491.0000038862216V1530.9999868988957h6L497.0000038862216,1531.9999868988957L497.0000038862216,1531.9999868988957zM497.0000038862216,1529.9999868988957H491.0000038862216V1528.9999868988957h6V1529.9999868988957zM497.0000038862216,1527.9999868988957H491.0000038862216V1526.9999868988957h6V1527.9999868988957zM496.5000038862216,1533.9999868988957H490.0000038862216V1524.9999868988957h8v7.5M497.0000038862216,1534.9999868988957l2,-2V1523.9999868988957H489.0000038862216v11"></path></g></g></g></g></svg>