<svg id="kity_svg_6" xmlns="http://www.w3.org/2000/svg" xmlns:xlink="http://www.w3.org/1999/xlink" version="1.1" width="1503" height="1272" style="background: rgb(251, 251, 251); visibility: visible;" viewBox="0 0 1503 1272"><defs id="kity_defs_7"><linearGradient id="kity_linearGradient_17" x1="0" y1="0" x2="0" y2="1"><stop id="kity_stop_18" offset="0" stop-color="rgb(255, 255, 255)"></stop><stop id="kity_stop_19" offset="1" stop-color="rgb(204, 204, 204)"></stop></linearGradient><marker id="kity_marker_2" orient="auto" refX="6" refY="0" viewBox="-7 -7 14 14" markerWidth="7" markerHeight="7" markerUnits="userSpaceOnUse"><path id="kity_path_3" fill="rgb(115, 161, 191)" stroke="none" d="M6,0A6,6,0,1,1,-6,0A6,6,0,1,1,6,0"></path></marker></defs><g id="kity_g_8"><g id="minder1" text-rendering="geometricPrecision"><g id="minder_connect_group1"><path id="kity_path_53" fill="none" stroke="rgb(115, 161, 191)" stroke-width="1" d="M732.0000147745013,635.0000041350722A185.5,232,0,0,1,917.5000147745013,403.00000413507223"></path><path id="kity_path_116" fill="none" stroke="rgb(115, 161, 191)" stroke-width="1" d="M732.0000147745013,635.0000041350722A185.5,232,0,0,0,917.5000147745013,867.0000041350722"></path><path id="kity_path_192" fill="none" stroke="rgb(115, 161, 191)" stroke-width="1" d="M1082.5000147745013,403.00000413507223C1097.5000147745013,403.00000413507223,1097.5000147745013,391.50000413507223,1112.5000147745013,391.50000413507223L1254.5000147745013,391.50000413507223"></path><path id="kity_path_193" fill="none" stroke="rgb(115, 161, 191)" stroke-width="1" d="M1082.5000147745013,403.00000413507223C1097.5000147745013,403.00000413507223,1097.5000147745013,448.50000413507223,1112.5000147745013,448.50000413507223L1224.5000147745013,448.50000413507223"></path><path id="kity_path_214" fill="none" stroke="rgb(115, 161, 191)" stroke-width="1" d="M1076.5000147745013,867.0000041350722C1091.5000147745013,867.0000041350722,1091.5000147745013,515.5000041350722,1106.5000147745013,515.5000041350722L1208.5000147745013,515.5000041350722"></path><path id="kity_path_215" fill="none" stroke="rgb(115, 161, 191)" stroke-width="1" d="M1076.5000147745013,867.0000041350722C1091.5000147745013,867.0000041350722,1091.5000147745013,572.5000041350722,1106.5000147745013,572.5000041350722L1249.5000147745013,572.5000041350722"></path><path id="kity_path_216" fill="none" stroke="rgb(115, 161, 191)" stroke-width="1" d="M1076.5000147745013,867.0000041350722C1091.5000147745013,867.0000041350722,1091.5000147745013,629.5000041350722,1106.5000147745013,629.5000041350722L1251.5000147745013,629.5000041350722"></path><path id="kity_path_217" fill="none" stroke="rgb(115, 161, 191)" stroke-width="1" d="M1076.5000147745013,867.0000041350722C1091.5000147745013,867.0000041350722,1091.5000147745013,686.5000041350722,1106.5000147745013,686.5000041350722L1206.5000147745013,686.5000041350722"></path><path id="kity_path_218" fill="none" stroke="rgb(115, 161, 191)" stroke-width="1" d="M1278.5000147745013,772.5000041350722C1293.5000147745013,772.5000041350722,1293.5000147745013,744.5000041350722,1308.5000147745013,744.5000041350722L1456.5000147745013,744.5000041350722"></path><path id="kity_path_219" fill="none" stroke="rgb(115, 161, 191)" stroke-width="1" d="M1076.5000147745013,867.0000041350722C1091.5000147745013,867.0000041350722,1091.5000147745013,772.5000041350722,1106.5000147745013,772.5000041350722L1278.5000147745013,772.5000041350722"></path><path id="kity_path_224" fill="none" stroke="rgb(115, 161, 191)" stroke-width="1" d="M1278.5000147745013,772.5000041350722C1293.5000147745013,772.5000041350722,1293.5000147745013,801.5000041350722,1308.5000147745013,801.5000041350722L1443.5000147745013,801.5000041350722"></path><path id="kity_path_235" fill="none" stroke="rgb(115, 161, 191)" stroke-width="1" d="M1076.5000147745013,867.0000041350722C1091.5000147745013,867.0000041350722,1091.5000147745013,886.5000041350722,1106.5000147745013,886.5000041350722L1302.5000147745013,886.5000041350722"></path><path id="kity_path_246" fill="none" stroke="rgb(115, 161, 191)" stroke-width="1" d="M1302.5000147745013,886.5000041350722C1317.5000147745013,886.5000041350722,1317.5000147745013,858.5000041350722,1332.5000147745013,858.5000041350722L1481.5000147745013,858.5000041350722"></path><path id="kity_path_254" fill="none" stroke="rgb(115, 161, 191)" stroke-width="1" d="M1302.5000147745013,886.5000041350722C1317.5000147745013,886.5000041350722,1317.5000147745013,915.5000041350722,1332.5000147745013,915.5000041350722L1483.5000147745013,915.5000041350722"></path><path id="kity_path_268" fill="none" stroke="rgb(115, 161, 191)" stroke-width="1" d="M1076.5000147745013,867.0000041350722C1091.5000147745013,867.0000041350722,1091.5000147745013,966.5000041350722,1106.5000147745013,966.5000041350722L1273.5000147745013,966.5000041350722"></path><path id="kity_path_276" fill="none" stroke="rgb(115, 161, 191)" stroke-width="1" d="M1076.5000147745013,867.0000041350722C1091.5000147745013,867.0000041350722,1091.5000147745013,1023.5000041350722,1106.5000147745013,1023.5000041350722L1232.5000147745013,1023.5000041350722"></path><path id="kity_path_287" fill="none" stroke="rgb(115, 161, 191)" stroke-width="1" d="M1076.5000147745013,867.0000041350722C1091.5000147745013,867.0000041350722,1091.5000147745013,1080.5000041350722,1106.5000147745013,1080.5000041350722L1292.5000147745013,1080.5000041350722"></path><path id="kity_path_298" fill="none" stroke="rgb(115, 161, 191)" stroke-width="1" d="M1076.5000147745013,867.0000041350722C1091.5000147745013,867.0000041350722,1091.5000147745013,1137.5000041350722,1106.5000147745013,1137.5000041350722L1206.5000147745013,1137.5000041350722"></path><path id="kity_path_309" fill="none" stroke="rgb(115, 161, 191)" stroke-width="1" d="M1076.5000147745013,867.0000041350722C1091.5000147745013,867.0000041350722,1091.5000147745013,1194.5000041350722,1106.5000147745013,1194.5000041350722L1267.5000147745013,1194.5000041350722"></path><path id="kity_path_320" fill="none" stroke="rgb(115, 161, 191)" stroke-width="1" d="M1076.5000147745013,867.0000041350722C1091.5000147745013,867.0000041350722,1091.5000147745013,1251.5000041350722,1106.5000147745013,1251.5000041350722L1251.5000147745013,1251.5000041350722"></path><path id="kity_path_331" fill="none" stroke="rgb(115, 161, 191)" stroke-width="1" d="M732.0000147745013,635.0000041350722A185.5,318,0,0,0,546.5000147745013,317.00000413507223"></path><path id="kity_path_350" fill="none" stroke="rgb(115, 161, 191)" stroke-width="1" d="M334.5000147745013,317.00000413507223C319.5000147745013,317.00000413507223,319.5000147745013,49.50000413507223,304.5000147745013,49.50000413507223L160.50001477450132,49.50000413507223"></path><path id="kity_path_361" fill="none" stroke="rgb(115, 161, 191)" stroke-width="1" d="M334.5000147745013,317.00000413507223C319.5000147745013,317.00000413507223,319.5000147745013,106.50000413507223,304.5000147745013,106.50000413507223L192.50001477450132,106.50000413507223"></path><path id="kity_path_372" fill="none" stroke="rgb(115, 161, 191)" stroke-width="1" d="M334.5000147745013,317.00000413507223C319.5000147745013,317.00000413507223,319.5000147745013,163.50000413507223,304.5000147745013,163.50000413507223L134.50001477450132,163.50000413507223"></path><path id="kity_path_383" fill="none" stroke="rgb(115, 161, 191)" stroke-width="1" d="M334.5000147745013,317.00000413507223C319.5000147745013,317.00000413507223,319.5000147745013,220.50000413507223,304.5000147745013,220.50000413507223L237.50001477450132,220.50000413507223"></path><path id="kity_path_394" fill="none" stroke="rgb(115, 161, 191)" stroke-width="1" d="M334.5000147745013,317.00000413507223C319.5000147745013,317.00000413507223,319.5000147745013,334.50000413507223,304.5000147745013,334.50000413507223L193.50001477450132,334.50000413507223"></path><path id="kity_path_405" fill="none" stroke="rgb(115, 161, 191)" stroke-width="1" d="M193.50001477450132,334.50000413507223C178.50001477450132,334.50000413507223,178.50001477450132,277.50000413507223,163.50001477450132,277.50000413507223L62.500014774501324,277.50000413507223"></path><path id="kity_path_413" fill="none" stroke="rgb(115, 161, 191)" stroke-width="1" d="M193.50001477450132,334.50000413507223C178.50001477450132,334.50000413507223,178.50001477450132,334.50000413507223,163.50001477450132,334.50000413507223L63.500014774501324,334.50000413507223"></path><path id="kity_path_421" fill="none" stroke="rgb(115, 161, 191)" stroke-width="1" d="M193.50001477450132,334.50000413507223C178.50001477450132,334.50000413507223,178.50001477450132,391.50000413507223,163.50001477450132,391.50000413507223L76.50001477450132,391.50000413507223"></path><path id="kity_path_438" fill="none" stroke="rgb(115, 161, 191)" stroke-width="1" d="M334.5000147745013,317.00000413507223C319.5000147745013,317.00000413507223,319.5000147745013,448.50000413507223,304.5000147745013,448.50000413507223L115.50001477450132,448.50000413507223"></path><path id="kity_path_449" fill="none" stroke="rgb(115, 161, 191)" stroke-width="1" d="M334.5000147745013,317.00000413507223C319.5000147745013,317.00000413507223,319.5000147745013,617.5000041350722,304.5000147745013,617.5000041350722L209.50001477450132,617.5000041350722"></path><path id="kity_path_457" fill="none" stroke="rgb(115, 161, 191)" stroke-width="1" d="M209.50001477450132,617.5000041350722C194.50001477450132,617.5000041350722,194.50001477450132,506.50000413507223,179.50001477450132,506.50000413507223L78.50001477450132,506.50000413507223"></path><path id="kity_path_468" fill="none" stroke="rgb(115, 161, 191)" stroke-width="1" d="M209.50001477450132,617.5000041350722C194.50001477450132,617.5000041350722,194.50001477450132,563.5000041350722,179.50001477450132,563.5000041350722L79.50001477450132,563.5000041350722"></path><path id="kity_path_479" fill="none" stroke="rgb(115, 161, 191)" stroke-width="1" d="M209.50001477450132,617.5000041350722C194.50001477450132,617.5000041350722,194.50001477450132,620.5000041350722,179.50001477450132,620.5000041350722L79.50001477450132,620.5000041350722"></path><path id="kity_path_490" fill="none" stroke="rgb(115, 161, 191)" stroke-width="1" d="M209.50001477450132,617.5000041350722C194.50001477450132,617.5000041350722,194.50001477450132,677.5000041350722,179.50001477450132,677.5000041350722L67.50001477450132,677.5000041350722"></path><path id="kity_path_501" fill="none" stroke="rgb(115, 161, 191)" stroke-width="1" d="M209.50001477450132,617.5000041350722C194.50001477450132,617.5000041350722,194.50001477450132,734.5000041350722,179.50001477450132,734.5000041350722L66.50001477450132,734.5000041350722"></path><path id="kity_path_512" fill="none" stroke="rgb(115, 161, 191)" stroke-width="1" d="M732.0000147745013,635.0000041350722A185.5,319.5,0,0,1,546.5000147745013,954.5000041350722"></path><path id="kity_path_528" fill="none" stroke="rgb(115, 161, 191)" stroke-width="1" d="M367.5000147745013,954.5000041350722C352.5000147745013,954.5000041350722,352.5000147745013,800.5000041350722,337.5000147745013,800.5000041350722L214.50001477450132,800.5000041350722"></path><path id="kity_path_547" fill="none" stroke="rgb(115, 161, 191)" stroke-width="1" d="M367.5000147745013,954.5000041350722C352.5000147745013,954.5000041350722,352.5000147745013,968.5000041350722,337.5000147745013,968.5000041350722L235.50001477450132,968.5000041350722"></path><path id="kity_path_555" fill="none" stroke="rgb(115, 161, 191)" stroke-width="1" d="M235.50001477450132,968.5000041350722C220.50001477450132,968.5000041350722,220.50001477450132,857.5000041350722,205.50001477450132,857.5000041350722L146.50001477450132,857.5000041350722"></path><path id="kity_path_566" fill="none" stroke="rgb(115, 161, 191)" stroke-width="1" d="M235.50001477450132,968.5000041350722C220.50001477450132,968.5000041350722,220.50001477450132,914.5000041350722,205.50001477450132,914.5000041350722L118.50001477450132,914.5000041350722"></path><path id="kity_path_577" fill="none" stroke="rgb(115, 161, 191)" stroke-width="1" d="M235.50001477450132,968.5000041350722C220.50001477450132,968.5000041350722,220.50001477450132,971.5000041350722,205.50001477450132,971.5000041350722L20.500014774501324,971.5000041350722"></path><path id="kity_path_588" fill="none" stroke="rgb(115, 161, 191)" stroke-width="1" d="M235.50001477450132,968.5000041350722C220.50001477450132,968.5000041350722,220.50001477450132,1028.5000041350722,205.50001477450132,1028.5000041350722L73.50001477450132,1028.5000041350722"></path><path id="kity_path_599" fill="none" stroke="rgb(115, 161, 191)" stroke-width="1" d="M235.50001477450132,968.5000041350722C220.50001477450132,968.5000041350722,220.50001477450132,1085.5000041350722,205.50001477450132,1085.5000041350722L111.50001477450132,1085.5000041350722"></path><path id="kity_path_610" fill="none" stroke="rgb(115, 161, 191)" stroke-width="1" d="M367.5000147745013,954.5000041350722C352.5000147745013,954.5000041350722,352.5000147745013,1142.5000041350722,337.5000147745013,1142.5000041350722L236.50001477450132,1142.5000041350722"></path></g><g id="minder_node1"><path id="node_outline1" fill="rgb(115, 161, 191)" stroke="rgb(115, 161, 191)" d="M669.5000147745013,614.5000041350722h125a5,5,0,0,1,5,5v31a5,5,0,0,1,-5,5h-125a5,5,0,0,1,-5,-5v-31a5,5,0,0,1,5,-5z" stroke-width="3"></path><g id="node_text1" fill="white"><text id="kity_text_22" text-rendering="inherit" font-size="16" dy=".8em" y="624.1000040993094" x="688.5000147745013">Mybatis</text></g><g id="kity_g_60" style="cursor: pointer;"><path id="kity_path_61" fill="none" stroke="none" d="M762.0000158324838,626.0000041350722h12a2,2,0,0,1,2,2v13a2,2,0,0,1,-2,2h-12a2,2,0,0,1,-2,-2v-13a2,2,0,0,1,2,-2z"></path><path id="kity_path_62" fill="white" stroke="none" d="M771.0000158697367,637.0000040382147H765.0000158697367V636.0000040382147h6L771.0000158697367,637.0000040382147L771.0000158697367,637.0000040382147zM771.0000158697367,635.0000040382147H765.0000158697367V634.0000040382147h6V635.0000040382147zM771.0000158697367,633.0000040382147H765.0000158697367V632.0000040382147h6V633.0000040382147zM770.5000158697367,639.0000040382147H764.0000158697367V630.0000040382147h8v7.5M771.0000158697367,640.0000040382147l2,-2V629.0000040382147H763.0000158697367v11"></path></g></g><g id="kity_g_14" display="none"><path id="kity_path_15" fill="rgba(0, 92, 153, 0.5)" stroke="none" d="M1122.5000147745013,625.5000041350722h132v15h-132z"></path><path id="kity_path_16" fill="none" stroke="rgb(0, 76, 128)" d="M1122.5000147745013,625.5000041350722L1254.5000147745013,625.5000041350722" stroke-width="1"></path></g><g id="minder_node4" opacity="1"><g id="node_expander3" style="cursor: pointer;"><path id="kity_path_58" fill="white" stroke="gray" d="M918.5000181123614,403.0000006854534A6,6,0,1,1,906.5000181123614,403.0000006854534A6,6,0,1,1,918.5000181123614,403.0000006854534"></path><path id="kity_path_59" fill="none" stroke="gray" d="M908.0000181123614,403.0000006854534L917.0000181123614,403.0000006854534"></path></g><path id="node_outline4" fill="rgb(238, 243, 246)" stroke="rgb(115, 161, 191)" d="M922.5000185146928,388.50000067800283h157a3,3,0,0,1,3,3v23a3,3,0,0,1,-3,3h-157a3,3,0,0,1,-3,-3v-23a3,3,0,0,1,3,-3z" stroke-width="1"></path><g id="node_text4" fill="black"><text id="kity_text_55" text-rendering="inherit" font-size="14" dy=".8em" y="393.4000006467104" x="939.5000185146928">MyBatis与JDBC</text></g><g id="kity_g_82" style="cursor: pointer;"><path id="kity_path_83" fill="none" stroke="none" d="M1049.000020109117,394.00000067800283h12a2,2,0,0,1,2,2v13a2,2,0,0,1,-2,2h-12a2,2,0,0,1,-2,-2v-13a2,2,0,0,1,2,-2z"></path><path id="kity_path_84" fill="black" stroke="none" d="M1058.00002014637,405.0000005811453H1052.00002014637V404.0000005811453h6L1058.00002014637,405.0000005811453L1058.00002014637,405.0000005811453zM1058.00002014637,403.0000005811453H1052.00002014637V402.0000005811453h6V403.0000005811453zM1058.00002014637,401.0000005811453H1052.00002014637V400.0000005811453h6V401.0000005811453zM1057.50002014637,407.0000005811453H1051.00002014637V398.0000005811453h8v7.5M1058.00002014637,408.0000005811453l2,-2V397.0000005811453H1050.00002014637v11"></path></g></g><g id="kity_g_12" display="none"><path id="kity_path_13" fill="none" stroke="rgb(66, 94, 112)" d="M1127.5000147745013,593.5000041350722h122a5,5,0,0,1,5,5v17a5,5,0,0,1,-5,5h-122a5,5,0,0,1,-5,-5v-17a5,5,0,0,1,5,-5z" stroke-width="5"></path></g><g id="minder_node10" opacity="1"><g id="node_expander9" style="cursor: pointer;"><path id="kity_path_121" fill="white" stroke="gray" d="M918.5000181123614,867.0000075995922A6,6,0,1,1,906.5000181123614,867.0000075995922A6,6,0,1,1,918.5000181123614,867.0000075995922"></path><path id="kity_path_122" fill="none" stroke="gray" d="M908.0000181123614,867.0000075995922L917.0000181123614,867.0000075995922"></path></g><path id="node_outline10" fill="rgb(238, 243, 246)" stroke="rgb(115, 161, 191)" d="M922.5000185146928,852.5000075921416h151a3,3,0,0,1,3,3v23a3,3,0,0,1,-3,3h-151a3,3,0,0,1,-3,-3v-23a3,3,0,0,1,3,-3z" stroke-width="1"></path><g id="node_text10" fill="black"><text id="kity_text_118" text-rendering="inherit" font-size="14" dy=".8em" y="857.4000075608492" x="939.5000185146928">Mybatis的配置</text></g><g id="kity_g_154" style="cursor: pointer;"><path id="kity_path_155" fill="none" stroke="none" d="M1043.00002001971,858.0000075921416h12a2,2,0,0,1,2,2v13a2,2,0,0,1,-2,2h-12a2,2,0,0,1,-2,-2v-13a2,2,0,0,1,2,-2z"></path><path id="kity_path_156" fill="black" stroke="none" d="M1052.000020056963,869.0000074952841H1046.000020056963V868.0000074952841h6L1052.000020056963,869.0000074952841L1052.000020056963,869.0000074952841zM1052.000020056963,867.0000074952841H1046.000020056963V866.0000074952841h6V867.0000074952841zM1052.000020056963,865.0000074952841H1046.000020056963V864.0000074952841h6V865.0000074952841zM1051.500020056963,871.0000074952841H1045.000020056963V862.0000074952841h8v7.5M1052.000020056963,872.0000074952841l2,-2V861.0000074952841H1044.000020056963v11"></path></g></g><g id="minder_node7"><g id="node_expander6" style="cursor: pointer;" display="none"><path id="kity_path_91" fill="white" stroke="gray" d="M1122.5000211521983,375.0000002682209A6,6,0,1,1,1110.5000211521983,375.0000002682209A6,6,0,1,1,1122.5000211521983,375.0000002682209"></path><path id="kity_path_92" fill="none" stroke="gray"></path></g><path id="node_outline7" fill="none" stroke="none" d="M1127.500021390617,361.5000002607703h122a5,5,0,0,1,5,5v17a5,5,0,0,1,-5,5h-122a5,5,0,0,1,-5,-5v-17a5,5,0,0,1,5,-5z" stroke-width="3"></path><g id="node_text7" fill="black"><text id="kity_text_88" text-rendering="inherit" font-size="12" dy=".8em" y="366.70000023394823" x="1132.500021390617">JDBC的执行流程</text></g><g id="kity_g_93" style="cursor: pointer;"><path id="kity_path_94" fill="none" stroke="none" d="M1231.0000228211284,366.0000002607703h12a2,2,0,0,1,2,2v13a2,2,0,0,1,-2,2h-12a2,2,0,0,1,-2,-2v-13a2,2,0,0,1,2,-2z"></path><path id="kity_path_95" fill="black" stroke="none" d="M1240.0000228583813,377.0000001639128H1234.0000228583813V376.0000001639128h6L1240.0000228583813,377.0000001639128L1240.0000228583813,377.0000001639128zM1240.0000228583813,375.0000001639128H1234.0000228583813V374.0000001639128h6V375.0000001639128zM1240.0000228583813,373.0000001639128H1234.0000228583813V372.0000001639128h6V373.0000001639128zM1239.5000228583813,379.0000001639128H1233.0000228583813V370.0000001639128h8v7.5M1240.0000228583813,380.0000001639128l2,-2V369.0000001639128H1232.0000228583813v11"></path></g></g><g id="minder_node9" opacity="1"><g id="node_expander8" style="cursor: pointer;" display="none"><path id="kity_path_113" fill="white" stroke="gray" d="M1122.5000211521983,432.0000011175871A6,6,0,1,1,1110.5000211521983,432.0000011175871A6,6,0,1,1,1122.5000211521983,432.0000011175871"></path><path id="kity_path_114" fill="none" stroke="gray"></path></g><path id="node_outline9" fill="none" stroke="none" d="M1127.500021390617,418.5000011101365h92a5,5,0,0,1,5,5v17a5,5,0,0,1,-5,5h-92a5,5,0,0,1,-5,-5v-17a5,5,0,0,1,5,-5z" stroke-width="3"></path><g id="node_text9" fill="black"><text id="kity_text_107" text-rendering="inherit" font-size="12" dy=".8em" y="423.7000010833144" x="1132.500021390617">阻抗不匹配</text></g><g id="kity_g_108" style="cursor: pointer;"><path id="kity_path_109" fill="none" stroke="none" d="M1201.0000223740935,423.0000011101365h12a2,2,0,0,1,2,2v13a2,2,0,0,1,-2,2h-12a2,2,0,0,1,-2,-2v-13a2,2,0,0,1,2,-2z"></path><path id="kity_path_110" fill="black" stroke="none" d="M1210.0000224113464,434.00000101327896H1204.0000224113464V433.00000101327896h6L1210.0000224113464,434.00000101327896L1210.0000224113464,434.00000101327896zM1210.0000224113464,432.00000101327896H1204.0000224113464V431.00000101327896h6V432.00000101327896zM1210.0000224113464,430.00000101327896H1204.0000224113464V429.00000101327896h6V430.00000101327896zM1209.5000224113464,436.00000101327896H1203.0000224113464V427.00000101327896h8v7.5M1210.0000224113464,437.00000101327896l2,-2V426.00000101327896H1202.0000224113464v11"></path></g></g><g id="minder_node11"><g id="node_expander10" style="cursor: pointer;" display="none"><path id="kity_path_129" fill="white" stroke="gray" d="M1116.5000210627913,499.0000021159649A6,6,0,1,1,1104.5000210627913,499.0000021159649A6,6,0,1,1,1116.5000210627913,499.0000021159649"></path><path id="kity_path_130" fill="none" stroke="gray"></path></g><path id="node_outline11" fill="none" stroke="none" d="M1121.50002130121,485.5000021085143h82a5,5,0,0,1,5,5v17a5,5,0,0,1,-5,5h-82a5,5,0,0,1,-5,-5v-17a5,5,0,0,1,5,-5z" stroke-width="3"></path><g id="node_text11" fill="black"><text id="kity_text_126" text-rendering="inherit" font-size="12" dy=".8em" y="490.7000020816922" x="1126.50002130121">XML配置</text></g><g id="kity_g_132" style="cursor: pointer;"><path id="kity_path_133" fill="none" stroke="none" d="M1185.000022135675,490.0000021085143h12a2,2,0,0,1,2,2v13a2,2,0,0,1,-2,2h-12a2,2,0,0,1,-2,-2v-13a2,2,0,0,1,2,-2z"></path><path id="kity_path_134" fill="black" stroke="none" d="M1194.0000221729279,501.00000201165676H1188.0000221729279V500.00000201165676h6L1194.0000221729279,501.00000201165676L1194.0000221729279,501.00000201165676zM1194.0000221729279,499.00000201165676H1188.0000221729279V498.00000201165676h6V499.00000201165676zM1194.0000221729279,497.00000201165676H1188.0000221729279V496.00000201165676h6V497.00000201165676zM1193.5000221729279,503.00000201165676H1187.0000221729279V494.00000201165676h8v7.5M1194.0000221729279,504.00000201165676l2,-2V493.00000201165676H1186.0000221729279v11"></path></g></g><g id="minder_node12"><g id="node_expander11" style="cursor: pointer;" display="none"><path id="kity_path_141" fill="white" stroke="gray" d="M1116.5000210627913,556.0000029653311A6,6,0,1,1,1104.5000210627913,556.0000029653311A6,6,0,1,1,1116.5000210627913,556.0000029653311"></path><path id="kity_path_142" fill="none" stroke="gray"></path></g><path id="node_outline12" fill="none" stroke="none" d="M1121.50002130121,542.5000029578805h123a5,5,0,0,1,5,5v17a5,5,0,0,1,-5,5h-123a5,5,0,0,1,-5,-5v-17a5,5,0,0,1,5,-5z" stroke-width="3"></path><g id="node_text12" fill="black"><text id="kity_text_138" text-rendering="inherit" font-size="12" dy=".8em" y="547.7000029310584" x="1126.50002130121">属性(properties)</text></g><g id="kity_g_143" style="cursor: pointer;"><path id="kity_path_144" fill="none" stroke="none" d="M1226.0000227466226,547.0000029578805h12a2,2,0,0,1,2,2v13a2,2,0,0,1,-2,2h-12a2,2,0,0,1,-2,-2v-13a2,2,0,0,1,2,-2z"></path><path id="kity_path_145" fill="black" stroke="none" d="M1235.0000227838755,558.000002861023H1229.0000227838755V557.000002861023h6L1235.0000227838755,558.000002861023L1235.0000227838755,558.000002861023zM1235.0000227838755,556.000002861023H1229.0000227838755V555.000002861023h6V556.000002861023zM1235.0000227838755,554.000002861023H1229.0000227838755V553.000002861023h6V554.000002861023zM1234.5000227838755,560.000002861023H1228.0000227838755V551.000002861023h8v7.5M1235.0000227838755,561.000002861023l2,-2V550.000002861023H1227.0000227838755v11"></path></g></g><g id="minder_node13"><g id="node_expander12" style="cursor: pointer;" display="none"><path id="kity_path_152" fill="white" stroke="gray" d="M1116.5000210627913,613.0000038146973A6,6,0,1,1,1104.5000210627913,613.0000038146973A6,6,0,1,1,1116.5000210627913,613.0000038146973"></path><path id="kity_path_153" fill="none" stroke="gray"></path></g><path id="node_outline13" fill="none" stroke="none" d="M1121.50002130121,599.5000038072467h125a5,5,0,0,1,5,5v17a5,5,0,0,1,-5,5h-125a5,5,0,0,1,-5,-5v-17a5,5,0,0,1,5,-5z" stroke-width="3"></path><g id="node_text13" fill="black"><text id="kity_text_149" text-rendering="inherit" font-size="12" dy=".8em" y="604.7000037804246" x="1126.50002130121">settings核心配置</text></g><g id="kity_g_157" style="cursor: pointer;"><path id="kity_path_158" fill="none" stroke="none" d="M1228.0000227764249,604.0000038072467h12a2,2,0,0,1,2,2v13a2,2,0,0,1,-2,2h-12a2,2,0,0,1,-2,-2v-13a2,2,0,0,1,2,-2z"></path><path id="kity_path_159" fill="black" stroke="none" d="M1237.0000228136778,615.0000037103891H1231.0000228136778V614.0000037103891h6L1237.0000228136778,615.0000037103891L1237.0000228136778,615.0000037103891zM1237.0000228136778,613.0000037103891H1231.0000228136778V612.0000037103891h6V613.0000037103891zM1237.0000228136778,611.0000037103891H1231.0000228136778V610.0000037103891h6V611.0000037103891zM1236.5000228136778,617.0000037103891H1230.0000228136778V608.0000037103891h8v7.5M1237.0000228136778,618.0000037103891l2,-2V607.0000037103891H1229.0000228136778v11"></path></g></g><g id="minder_node14"><g id="node_expander13" style="cursor: pointer;" display="none"><path id="kity_path_166" fill="white" stroke="gray" d="M1116.5000210627913,670.0000046640635A6,6,0,1,1,1104.5000210627913,670.0000046640635A6,6,0,1,1,1116.5000210627913,670.0000046640635"></path><path id="kity_path_167" fill="none" stroke="gray"></path></g><path id="node_outline14" fill="none" stroke="none" d="M1121.50002130121,656.5000046566129h80a5,5,0,0,1,5,5v17a5,5,0,0,1,-5,5h-80a5,5,0,0,1,-5,-5v-17a5,5,0,0,1,5,-5z" stroke-width="3"></path><g id="node_text14" fill="black"><text id="kity_text_163" text-rendering="inherit" font-size="12" dy=".8em" y="661.7000046297908" x="1126.50002130121">配置日志</text></g><g id="kity_g_168" style="cursor: pointer;"><path id="kity_path_169" fill="none" stroke="none" d="M1183.0000221058726,661.0000046566129h12a2,2,0,0,1,2,2v13a2,2,0,0,1,-2,2h-12a2,2,0,0,1,-2,-2v-13a2,2,0,0,1,2,-2z"></path><path id="kity_path_170" fill="black" stroke="none" d="M1192.0000221431255,672.0000045597553H1186.0000221431255V671.0000045597553h6L1192.0000221431255,672.0000045597553L1192.0000221431255,672.0000045597553zM1192.0000221431255,670.0000045597553H1186.0000221431255V669.0000045597553h6V670.0000045597553zM1192.0000221431255,668.0000045597553H1186.0000221431255V667.0000045597553h6V668.0000045597553zM1191.5000221431255,674.0000045597553H1185.0000221431255V665.0000045597553h8v7.5M1192.0000221431255,675.0000045597553l2,-2V664.0000045597553H1184.0000221431255v11"></path></g></g><g id="minder_node16"><g id="node_expander15" style="cursor: pointer;" display="none"><path id="kity_path_200" fill="white" stroke="gray" d="M1318.500024072826,728.0000055283308A6,6,0,1,1,1306.500024072826,728.0000055283308A6,6,0,1,1,1318.500024072826,728.0000055283308"></path><path id="kity_path_201" fill="none" stroke="gray"></path></g><path id="node_outline16" fill="none" stroke="none" d="M1323.5000243112445,714.5000055208802h128a5,5,0,0,1,5,5v17a5,5,0,0,1,-5,5h-128a5,5,0,0,1,-5,-5v-17a5,5,0,0,1,5,-5z" stroke-width="3"></path><g id="node_text16" fill="black"><text id="kity_text_197" text-rendering="inherit" font-size="12" dy=".8em" y="719.7000054940581" x="1328.5000243112445">默认内建类型别名</text></g><g id="kity_g_220" style="cursor: pointer;"><path id="kity_path_221" fill="none" stroke="none" d="M1433.000025831163,719.0000055208802h12a2,2,0,0,1,2,2v13a2,2,0,0,1,-2,2h-12a2,2,0,0,1,-2,-2v-13a2,2,0,0,1,2,-2z"></path><path id="kity_path_222" fill="black" stroke="none" d="M1442.0000258684158,730.0000054240227H1436.0000258684158V729.0000054240227h6L1442.0000258684158,730.0000054240227L1442.0000258684158,730.0000054240227zM1442.0000258684158,728.0000054240227H1436.0000258684158V727.0000054240227h6V728.0000054240227zM1442.0000258684158,726.0000054240227H1436.0000258684158V725.0000054240227h6V726.0000054240227zM1441.5000258684158,732.0000054240227H1435.0000258684158V723.0000054240227h8v7.5M1442.0000258684158,733.0000054240227l2,-2V722.0000054240227H1434.0000258684158v11"></path></g></g><g id="minder_node15"><g id="node_expander14" style="cursor: pointer;"><path id="kity_path_177" fill="white" stroke="gray" d="M1116.5000210627913,756.0000059455633A6,6,0,1,1,1104.5000210627913,756.0000059455633A6,6,0,1,1,1116.5000210627913,756.0000059455633"></path><path id="kity_path_178" fill="none" stroke="gray" d="M1106.0000210627913,756.0000059455633L1115.0000210627913,756.0000059455633"></path></g><path id="node_outline15" fill="none" stroke="none" d="M1121.50002130121,742.5000059381127h152a5,5,0,0,1,5,5v17a5,5,0,0,1,-5,5h-152a5,5,0,0,1,-5,-5v-17a5,5,0,0,1,5,-5z" stroke-width="3"></path><g id="node_text15" fill="black"><text id="kity_text_174" text-rendering="inherit" font-size="12" dy=".8em" y="747.7000059112906" x="1126.50002130121">类型别名(typeAliases)</text></g><g id="kity_g_179" style="cursor: pointer;"><path id="kity_path_180" fill="none" stroke="none" d="M1255.0000231787562,747.0000059381127h12a2,2,0,0,1,2,2v13a2,2,0,0,1,-2,2h-12a2,2,0,0,1,-2,-2v-13a2,2,0,0,1,2,-2z"></path><path id="kity_path_181" fill="black" stroke="none" d="M1264.0000232160091,758.0000058412552H1258.0000232160091V757.0000058412552h6L1264.0000232160091,758.0000058412552L1264.0000232160091,758.0000058412552zM1264.0000232160091,756.0000058412552H1258.0000232160091V755.0000058412552h6V756.0000058412552zM1264.0000232160091,754.0000058412552H1258.0000232160091V753.0000058412552h6V754.0000058412552zM1263.5000232160091,760.0000058412552H1257.0000232160091V751.0000058412552h8v7.5M1264.0000232160091,761.0000058412552l2,-2V750.0000058412552H1256.0000232160091v11"></path></g></g><g id="minder_node17"><g id="node_expander16" style="cursor: pointer;" display="none"><path id="kity_path_229" fill="white" stroke="gray" d="M1318.500024072826,785.000006377697A6,6,0,1,1,1306.500024072826,785.000006377697A6,6,0,1,1,1318.500024072826,785.000006377697"></path><path id="kity_path_230" fill="none" stroke="gray"></path></g><path id="node_outline17" fill="none" stroke="none" d="M1323.5000243112445,771.5000063702464h115a5,5,0,0,1,5,5v17a5,5,0,0,1,-5,5h-115a5,5,0,0,1,-5,-5v-17a5,5,0,0,1,5,-5z" stroke-width="3"></path><g id="node_text17" fill="black"><text id="kity_text_226" text-rendering="inherit" font-size="12" dy=".8em" y="776.7000063434243" x="1328.5000243112445">自定义类型别名</text></g><g id="kity_g_231" style="cursor: pointer;"><path id="kity_path_232" fill="none" stroke="none" d="M1420.0000256374478,776.0000063702464h12a2,2,0,0,1,2,2v13a2,2,0,0,1,-2,2h-12a2,2,0,0,1,-2,-2v-13a2,2,0,0,1,2,-2z"></path><path id="kity_path_233" fill="black" stroke="none" d="M1429.0000256747007,787.0000062733889H1423.0000256747007V786.0000062733889h6L1429.0000256747007,787.0000062733889L1429.0000256747007,787.0000062733889zM1429.0000256747007,785.0000062733889H1423.0000256747007V784.0000062733889h6V785.0000062733889zM1429.0000256747007,783.0000062733889H1423.0000256747007V782.0000062733889h6V783.0000062733889zM1428.5000256747007,789.0000062733889H1422.0000256747007V780.0000062733889h8v7.5M1429.0000256747007,790.0000062733889l2,-2V779.0000062733889H1421.0000256747007v11"></path></g></g><g id="minder_node18" opacity="1"><g id="node_expander17" style="cursor: pointer;"><path id="kity_path_240" fill="white" stroke="gray" d="M1116.5000210627913,870.0000076442957A6,6,0,1,1,1104.5000210627913,870.0000076442957A6,6,0,1,1,1116.5000210627913,870.0000076442957"></path><path id="kity_path_241" fill="none" stroke="gray" d="M1106.0000210627913,870.0000076442957L1115.0000210627913,870.0000076442957"></path></g><path id="node_outline18" fill="none" stroke="none" d="M1121.50002130121,856.5000076368451h176a5,5,0,0,1,5,5v17a5,5,0,0,1,-5,5h-176a5,5,0,0,1,-5,-5v-17a5,5,0,0,1,5,-5z" stroke-width="3"></path><g id="node_text18" fill="black"><text id="kity_text_237" text-rendering="inherit" font-size="12" dy=".8em" y="861.700007610023" x="1126.50002130121">类型处理器(typeHandlers)</text></g><g id="kity_g_242" style="cursor: pointer;"><path id="kity_path_243" fill="none" stroke="none" d="M1279.000023536384,861.0000076368451h12a2,2,0,0,1,2,2v13a2,2,0,0,1,-2,2h-12a2,2,0,0,1,-2,-2v-13a2,2,0,0,1,2,-2z"></path><path id="kity_path_244" fill="black" stroke="none" d="M1288.000023573637,872.0000075399876H1282.000023573637V871.0000075399876h6L1288.000023573637,872.0000075399876L1288.000023573637,872.0000075399876zM1288.000023573637,870.0000075399876H1282.000023573637V869.0000075399876h6V870.0000075399876zM1288.000023573637,868.0000075399876H1282.000023573637V867.0000075399876h6V868.0000075399876zM1287.500023573637,874.0000075399876H1281.000023573637V865.0000075399876h8v7.5M1288.000023573637,875.0000075399876l2,-2V864.0000075399876H1280.000023573637v11"></path></g></g><g id="minder_node19"><g id="node_expander18" style="cursor: pointer;" display="none"><path id="kity_path_251" fill="white" stroke="gray" d="M1342.5000244304538,842.0000072270632A6,6,0,1,1,1330.5000244304538,842.0000072270632A6,6,0,1,1,1342.5000244304538,842.0000072270632"></path><path id="kity_path_252" fill="none" stroke="gray"></path></g><path id="node_outline19" fill="none" stroke="none" d="M1347.5000246688724,828.5000072196126h129a5,5,0,0,1,5,5v17a5,5,0,0,1,-5,5h-129a5,5,0,0,1,-5,-5v-17a5,5,0,0,1,5,-5z" stroke-width="3"></path><g id="node_text19" fill="black"><text id="kity_text_248" text-rendering="inherit" font-size="12" dy=".8em" y="833.7000071927905" x="1352.5000246688724">默认的类型处理器</text></g><g id="kity_g_261" style="cursor: pointer;"><path id="kity_path_262" fill="none" stroke="none" d="M1458.000026203692,833.0000072196126h12a2,2,0,0,1,2,2v13a2,2,0,0,1,-2,2h-12a2,2,0,0,1,-2,-2v-13a2,2,0,0,1,2,-2z"></path><path id="kity_path_263" fill="black" stroke="none" d="M1467.0000262409449,844.000007122755H1461.0000262409449V843.000007122755h6L1467.0000262409449,844.000007122755L1467.0000262409449,844.000007122755zM1467.0000262409449,842.000007122755H1461.0000262409449V841.000007122755h6V842.000007122755zM1467.0000262409449,840.000007122755H1461.0000262409449V839.000007122755h6V840.000007122755zM1466.5000262409449,846.000007122755H1460.0000262409449V837.000007122755h8v7.5M1467.0000262409449,847.000007122755l2,-2V836.000007122755H1459.0000262409449v11"></path></g></g><g id="minder_node20"><g id="node_expander19" style="cursor: pointer;" display="none"><path id="kity_path_259" fill="white" stroke="gray" d="M1342.5000244304538,899.0000080764294A6,6,0,1,1,1330.5000244304538,899.0000080764294A6,6,0,1,1,1342.5000244304538,899.0000080764294"></path><path id="kity_path_260" fill="none" stroke="gray"></path></g><path id="node_outline20" fill="none" stroke="none" d="M1347.5000246688724,885.5000080689788h131a5,5,0,0,1,5,5v17a5,5,0,0,1,-5,5h-131a5,5,0,0,1,-5,-5v-17a5,5,0,0,1,5,-5z" stroke-width="3"></path><g id="node_text20" fill="black"><text id="kity_text_256" text-rendering="inherit" font-size="12" dy=".8em" y="890.7000080421567" x="1352.5000246688724">&#xa0;自定义类型处理器</text></g><g id="kity_g_264" style="cursor: pointer;"><path id="kity_path_265" fill="none" stroke="none" d="M1460.0000262334943,890.0000080689788h12a2,2,0,0,1,2,2v13a2,2,0,0,1,-2,2h-12a2,2,0,0,1,-2,-2v-13a2,2,0,0,1,2,-2z"></path><path id="kity_path_266" fill="black" stroke="none" d="M1469.0000262707472,901.0000079721212H1463.0000262707472V900.0000079721212h6L1469.0000262707472,901.0000079721212L1469.0000262707472,901.0000079721212zM1469.0000262707472,899.0000079721212H1463.0000262707472V898.0000079721212h6V899.0000079721212zM1469.0000262707472,897.0000079721212H1463.0000262707472V896.0000079721212h6V897.0000079721212zM1468.5000262707472,903.0000079721212H1462.0000262707472V894.0000079721212h8v7.5M1469.0000262707472,904.0000079721212l2,-2V893.0000079721212H1461.0000262707472v11"></path></g></g><g id="minder_node21"><g id="node_expander20" style="cursor: pointer;" display="none"><path id="kity_path_273" fill="white" stroke="gray" d="M1116.5000210627913,952.5000088736415A6,6,0,1,1,1104.5000210627913,952.5000088736415A6,6,0,1,1,1116.5000210627913,952.5000088736415"></path><path id="kity_path_274" fill="none" stroke="gray"></path></g><path id="node_outline21" fill="none" stroke="none" d="M1121.50002130121,941.5000088736415h147a5,5,0,0,1,5,5v12a5,5,0,0,1,-5,5h-147a5,5,0,0,1,-5,-5v-12a5,5,0,0,1,5,-5z" stroke-width="3"></path><g id="node_text21" fill="black"><text id="kity_text_270" text-rendering="inherit" font-size="12" dy=".8em" y="944.7000088468194" x="1126.50002130121">对象工厂(ObjectFactory)</text></g></g><g id="minder_node22"><g id="node_expander21" style="cursor: pointer;" display="none"><path id="kity_path_281" fill="white" stroke="gray" d="M1116.5000210627913,1007.0000096857548A6,6,0,1,1,1104.5000210627913,1007.0000096857548A6,6,0,1,1,1116.5000210627913,1007.0000096857548"></path><path id="kity_path_282" fill="none" stroke="gray"></path></g><path id="node_outline22" fill="none" stroke="none" d="M1121.50002130121,993.5000096783042h106a5,5,0,0,1,5,5v17a5,5,0,0,1,-5,5h-106a5,5,0,0,1,-5,-5v-17a5,5,0,0,1,5,-5z" stroke-width="3"></path><g id="node_text22" fill="black"><text id="kity_text_278" text-rendering="inherit" font-size="12" dy=".8em" y="998.7000096514821" x="1126.50002130121">插件(plugins)</text></g><g id="kity_g_283" style="cursor: pointer;"><path id="kity_path_284" fill="none" stroke="none" d="M1209.0000224933028,998.0000096783042h12a2,2,0,0,1,2,2v13a2,2,0,0,1,-2,2h-12a2,2,0,0,1,-2,-2v-13a2,2,0,0,1,2,-2z"></path><path id="kity_path_285" fill="black" stroke="none" d="M1218.0000225305557,1009.0000095814466H1212.0000225305557V1008.0000095814466h6L1218.0000225305557,1009.0000095814466L1218.0000225305557,1009.0000095814466zM1218.0000225305557,1007.0000095814466H1212.0000225305557V1006.0000095814466h6V1007.0000095814466zM1218.0000225305557,1005.0000095814466H1212.0000225305557V1004.0000095814466h6V1005.0000095814466zM1217.5000225305557,1011.0000095814466H1211.0000225305557V1002.0000095814466h8v7.5M1218.0000225305557,1012.0000095814466l2,-2V1001.0000095814466H1210.0000225305557v11"></path></g></g><g id="minder_node23"><g id="node_expander22" style="cursor: pointer;" display="none"><path id="kity_path_292" fill="white" stroke="gray" d="M1116.5000210627913,1064.000010535121A6,6,0,1,1,1104.5000210627913,1064.000010535121A6,6,0,1,1,1116.5000210627913,1064.000010535121"></path><path id="kity_path_293" fill="none" stroke="gray"></path></g><path id="node_outline23" fill="none" stroke="none" d="M1121.50002130121,1050.5000105276704h166a5,5,0,0,1,5,5v17a5,5,0,0,1,-5,5h-166a5,5,0,0,1,-5,-5v-17a5,5,0,0,1,5,-5z" stroke-width="3"></path><g id="node_text23" fill="black"><text id="kity_text_289" text-rendering="inherit" font-size="12" dy=".8em" y="1055.7000105008483" x="1126.50002130121">配置环境(enviornments)</text></g><g id="kity_g_294" style="cursor: pointer;"><path id="kity_path_295" fill="none" stroke="none" d="M1269.0000233873725,1055.0000105276704h12a2,2,0,0,1,2,2v13a2,2,0,0,1,-2,2h-12a2,2,0,0,1,-2,-2v-13a2,2,0,0,1,2,-2z"></path><path id="kity_path_296" fill="black" stroke="none" d="M1278.0000234246254,1066.0000104308128H1272.0000234246254V1065.0000104308128h6L1278.0000234246254,1066.0000104308128L1278.0000234246254,1066.0000104308128zM1278.0000234246254,1064.0000104308128H1272.0000234246254V1063.0000104308128h6V1064.0000104308128zM1278.0000234246254,1062.0000104308128H1272.0000234246254V1061.0000104308128h6V1062.0000104308128zM1277.5000234246254,1068.0000104308128H1271.0000234246254V1059.0000104308128h8v7.5M1278.0000234246254,1069.0000104308128l2,-2V1058.0000104308128H1270.0000234246254v11"></path></g></g><g id="minder_node24"><g id="node_expander23" style="cursor: pointer;" display="none"><path id="kity_path_303" fill="white" stroke="gray" d="M1116.5000210627913,1121.0000113844872A6,6,0,1,1,1104.5000210627913,1121.0000113844872A6,6,0,1,1,1116.5000210627913,1121.0000113844872"></path><path id="kity_path_304" fill="none" stroke="gray"></path></g><path id="node_outline24" fill="none" stroke="none" d="M1121.50002130121,1107.5000113770366h80a5,5,0,0,1,5,5v17a5,5,0,0,1,-5,5h-80a5,5,0,0,1,-5,-5v-17a5,5,0,0,1,5,-5z" stroke-width="3"></path><g id="node_text24" fill="black"><text id="kity_text_300" text-rendering="inherit" font-size="12" dy=".8em" y="1112.7000113502145" x="1126.50002130121">事务管理</text></g><g id="kity_g_305" style="cursor: pointer;"><path id="kity_path_306" fill="none" stroke="none" d="M1183.0000221058726,1112.0000113770366h12a2,2,0,0,1,2,2v13a2,2,0,0,1,-2,2h-12a2,2,0,0,1,-2,-2v-13a2,2,0,0,1,2,-2z"></path><path id="kity_path_307" fill="black" stroke="none" d="M1192.0000221431255,1123.000011280179H1186.0000221431255V1122.000011280179h6L1192.0000221431255,1123.000011280179L1192.0000221431255,1123.000011280179zM1192.0000221431255,1121.000011280179H1186.0000221431255V1120.000011280179h6V1121.000011280179zM1192.0000221431255,1119.000011280179H1186.0000221431255V1118.000011280179h6V1119.000011280179zM1191.5000221431255,1125.000011280179H1185.0000221431255V1116.000011280179h8v7.5M1192.0000221431255,1126.000011280179l2,-2V1115.000011280179H1184.0000221431255v11"></path></g></g><g id="minder_node25"><g id="node_expander24" style="cursor: pointer;" display="none"><path id="kity_path_314" fill="white" stroke="gray" d="M1116.5000210627913,1178.0000122338533A6,6,0,1,1,1104.5000210627913,1178.0000122338533A6,6,0,1,1,1116.5000210627913,1178.0000122338533"></path><path id="kity_path_315" fill="none" stroke="gray"></path></g><path id="node_outline25" fill="none" stroke="none" d="M1121.50002130121,1164.5000122264028h141a5,5,0,0,1,5,5v17a5,5,0,0,1,-5,5h-141a5,5,0,0,1,-5,-5v-17a5,5,0,0,1,5,-5z" stroke-width="3"></path><g id="node_text25" fill="black"><text id="kity_text_311" text-rendering="inherit" font-size="12" dy=".8em" y="1169.7000121995807" x="1126.50002130121">数据源(dataSource)</text></g><g id="kity_g_316" style="cursor: pointer;"><path id="kity_path_317" fill="none" stroke="none" d="M1244.0000230148435,1169.0000122264028h12a2,2,0,0,1,2,2v13a2,2,0,0,1,-2,2h-12a2,2,0,0,1,-2,-2v-13a2,2,0,0,1,2,-2z"></path><path id="kity_path_318" fill="black" stroke="none" d="M1253.0000230520964,1180.0000121295452H1247.0000230520964V1179.0000121295452h6L1253.0000230520964,1180.0000121295452L1253.0000230520964,1180.0000121295452zM1253.0000230520964,1178.0000121295452H1247.0000230520964V1177.0000121295452h6V1178.0000121295452zM1253.0000230520964,1176.0000121295452H1247.0000230520964V1175.0000121295452h6V1176.0000121295452zM1252.5000230520964,1182.0000121295452H1246.0000230520964V1173.0000121295452h8v7.5M1253.0000230520964,1183.0000121295452l2,-2V1172.0000121295452H1245.0000230520964v11"></path></g></g><g id="minder_node26"><g id="node_expander25" style="cursor: pointer;" display="none"><path id="kity_path_325" fill="white" stroke="gray" d="M1116.5000210627913,1235.0000130832195A6,6,0,1,1,1104.5000210627913,1235.0000130832195A6,6,0,1,1,1116.5000210627913,1235.0000130832195"></path><path id="kity_path_326" fill="none" stroke="gray"></path></g><path id="node_outline26" fill="none" stroke="none" d="M1121.50002130121,1221.500013075769h125a5,5,0,0,1,5,5v17a5,5,0,0,1,-5,5h-125a5,5,0,0,1,-5,-5v-17a5,5,0,0,1,5,-5z" stroke-width="3"></path><g id="node_text26" fill="black"><text id="kity_text_322" text-rendering="inherit" font-size="12" dy=".8em" y="1226.7000130489469" x="1126.50002130121">映射器(mappers)</text></g><g id="kity_g_327" style="cursor: pointer;"><path id="kity_path_328" fill="none" stroke="none" d="M1228.0000227764249,1226.000013075769h12a2,2,0,0,1,2,2v13a2,2,0,0,1,-2,2h-12a2,2,0,0,1,-2,-2v-13a2,2,0,0,1,2,-2z"></path><path id="kity_path_329" fill="black" stroke="none" d="M1237.0000228136778,1237.0000129789114H1231.0000228136778V1236.0000129789114h6L1237.0000228136778,1237.0000129789114L1237.0000228136778,1237.0000129789114zM1237.0000228136778,1235.0000129789114H1231.0000228136778V1234.0000129789114h6V1235.0000129789114zM1237.0000228136778,1233.0000129789114H1231.0000228136778V1232.0000129789114h6V1233.0000129789114zM1236.5000228136778,1239.0000129789114H1230.0000228136778V1230.0000129789114h8v7.5M1237.0000228136778,1240.0000129789114l2,-2V1229.0000129789114H1229.0000228136778v11"></path></g></g><g id="minder_node27"><g id="node_expander26" style="cursor: pointer;"><path id="kity_path_336" fill="white" stroke="gray" d="M557.5000127330422,316.99999940395355A6,6,0,1,1,545.5000127330422,316.99999940395355A6,6,0,1,1,557.5000127330422,316.99999940395355"></path><path id="kity_path_337" fill="none" stroke="gray" d="M547.0000127330422,316.99999940395355L556.0000127330422,316.99999940395355"></path></g><path id="node_outline27" fill="rgb(238, 243, 246)" stroke="rgb(115, 161, 191)" d="M337.5000097975135,302.499999396503h204a3,3,0,0,1,3,3v23a3,3,0,0,1,-3,3h-204a3,3,0,0,1,-3,-3v-23a3,3,0,0,1,3,-3z" stroke-width="1"></path><g id="node_text27" fill="black"><text id="kity_text_333" text-rendering="inherit" font-size="14" dy=".8em" y="307.39999936521053" x="354.5000097975135">Mybatis的Mapper映射</text></g><g id="kity_g_338" style="cursor: pointer;"><path id="kity_path_339" fill="none" stroke="none" d="M511.0000120922923,307.999999396503h12a2,2,0,0,1,2,2v13a2,2,0,0,1,-2,2h-12a2,2,0,0,1,-2,-2v-13a2,2,0,0,1,2,-2z"></path><path id="kity_path_340" fill="black" stroke="none" d="M520.0000121295452,318.9999992996454H514.0000121295452V317.9999992996454h6L520.0000121295452,318.9999992996454L520.0000121295452,318.9999992996454zM520.0000121295452,316.9999992996454H514.0000121295452V315.9999992996454h6V316.9999992996454zM520.0000121295452,314.9999992996454H514.0000121295452V313.9999992996454h6V314.9999992996454zM519.5000121295452,320.9999992996454H513.0000121295452V311.9999992996454h8v7.5M520.0000121295452,321.9999992996454l2,-2V310.9999992996454H512.0000121295452v11"></path></g></g><g id="minder_node29"><g id="node_expander28" style="cursor: pointer;" display="none"><path id="kity_path_355" fill="white" stroke="gray" d="M306.5000089928508,32.99999517202377A6,6,0,1,1,294.5000089928508,32.99999517202377A6,6,0,1,1,306.5000089928508,32.99999517202377"></path><path id="kity_path_356" fill="none" stroke="gray"></path></g><path id="node_outline29" fill="none" stroke="none" d="M165.50000705569983,19.499995164573193h124a5,5,0,0,1,5,5v17a5,5,0,0,1,-5,5h-124a5,5,0,0,1,-5,-5v-17a5,5,0,0,1,5,-5z" stroke-width="3"></path><g id="node_text29" fill="black"><text id="kity_text_352" text-rendering="inherit" font-size="12" dy=".8em" y="24.699995137751102" x="170.50000705569983">Mapper文件结构</text></g><g id="kity_g_357" style="cursor: pointer;"><path id="kity_path_358" fill="none" stroke="none" d="M271.0000085160136,23.999995164573193h12a2,2,0,0,1,2,2v13a2,2,0,0,1,-2,2h-12a2,2,0,0,1,-2,-2v-13a2,2,0,0,1,2,-2z"></path><path id="kity_path_359" fill="black" stroke="none" d="M280.0000085532665,34.999995067715645H274.0000085532665V33.999995067715645h6L280.0000085532665,34.999995067715645L280.0000085532665,34.999995067715645zM280.0000085532665,32.999995067715645H274.0000085532665V31.999995067715645h6V32.999995067715645zM280.0000085532665,30.999995067715645H274.0000085532665V29.999995067715645h6V30.999995067715645zM279.5000085532665,36.999995067715645H273.0000085532665V27.999995067715645h8v7.5M280.0000085532665,37.999995067715645l2,-2V26.999995067715645H272.0000085532665v11"></path></g></g><g id="minder_node30"><g id="node_expander29" style="cursor: pointer;" display="none"><path id="kity_path_366" fill="white" stroke="gray" d="M306.5000089928508,89.99999602138996A6,6,0,1,1,294.5000089928508,89.99999602138996A6,6,0,1,1,306.5000089928508,89.99999602138996"></path><path id="kity_path_367" fill="none" stroke="gray"></path></g><path id="node_outline30" fill="none" stroke="none" d="M197.50000753253698,76.49999601393938h92a5,5,0,0,1,5,5v17a5,5,0,0,1,-5,5h-92a5,5,0,0,1,-5,-5v-17a5,5,0,0,1,5,-5z" stroke-width="3"></path><g id="node_text30" fill="black"><text id="kity_text_363" text-rendering="inherit" font-size="12" dy=".8em" y="81.69999598711729" x="202.50000753253698">sekect命令</text></g><g id="kity_g_368" style="cursor: pointer;"><path id="kity_path_369" fill="none" stroke="none" d="M271.0000085160136,80.99999601393938h12a2,2,0,0,1,2,2v13a2,2,0,0,1,-2,2h-12a2,2,0,0,1,-2,-2v-13a2,2,0,0,1,2,-2z"></path><path id="kity_path_370" fill="black" stroke="none" d="M280.0000085532665,91.99999591708183H274.0000085532665V90.99999591708183h6L280.0000085532665,91.99999591708183L280.0000085532665,91.99999591708183zM280.0000085532665,89.99999591708183H274.0000085532665V88.99999591708183h6V89.99999591708183zM280.0000085532665,87.99999591708183H274.0000085532665V86.99999591708183h6V87.99999591708183zM279.5000085532665,93.99999591708183H273.0000085532665V84.99999591708183h8v7.5M280.0000085532665,94.99999591708183l2,-2V83.99999591708183H272.0000085532665v11"></path></g></g><g id="minder_node31"><g id="node_expander30" style="cursor: pointer;" display="none"><path id="kity_path_377" fill="white" stroke="gray" d="M306.5000089928508,146.99999687075615A6,6,0,1,1,294.5000089928508,146.99999687075615A6,6,0,1,1,306.5000089928508,146.99999687075615"></path><path id="kity_path_378" fill="none" stroke="gray"></path></g><path id="node_outline31" fill="none" stroke="none" d="M139.50000666826963,133.49999686330557h150a5,5,0,0,1,5,5v17a5,5,0,0,1,-5,5h-150a5,5,0,0,1,-5,-5v-17a5,5,0,0,1,5,-5z" stroke-width="3"></path><g id="node_text31" fill="black"><text id="kity_text_374" text-rendering="inherit" font-size="12" dy=".8em" y="138.69999683648348" x="144.50000666826963">Insert Update Delete</text></g><g id="kity_g_379" style="cursor: pointer;"><path id="kity_path_380" fill="none" stroke="none" d="M271.0000085160136,137.99999686330557h12a2,2,0,0,1,2,2v13a2,2,0,0,1,-2,2h-12a2,2,0,0,1,-2,-2v-13a2,2,0,0,1,2,-2z"></path><path id="kity_path_381" fill="black" stroke="none" d="M280.0000085532665,148.99999676644802H274.0000085532665V147.99999676644802h6L280.0000085532665,148.99999676644802L280.0000085532665,148.99999676644802zM280.0000085532665,146.99999676644802H274.0000085532665V145.99999676644802h6V146.99999676644802zM280.0000085532665,144.99999676644802H274.0000085532665V143.99999676644802h6V144.99999676644802zM279.5000085532665,150.99999676644802H273.0000085532665V141.99999676644802h8v7.5M280.0000085532665,151.99999676644802l2,-2V140.99999676644802H272.0000085532665v11"></path></g></g><g id="minder_node32"><g id="node_expander31" style="cursor: pointer;" display="none"><path id="kity_path_388" fill="white" stroke="gray" d="M306.5000089928508,203.99999772012234A6,6,0,1,1,294.5000089928508,203.99999772012234A6,6,0,1,1,306.5000089928508,203.99999772012234"></path><path id="kity_path_389" fill="none" stroke="gray"></path></g><path id="node_outline32" fill="none" stroke="none" d="M242.50000820308924,190.49999771267176h47a5,5,0,0,1,5,5v17a5,5,0,0,1,-5,5h-47a5,5,0,0,1,-5,-5v-17a5,5,0,0,1,5,-5z" stroke-width="3"></path><g id="node_text32" fill="black"><text id="kity_text_385" text-rendering="inherit" font-size="12" dy=".8em" y="195.69999768584967" x="247.50000820308924">sql</text></g><g id="kity_g_390" style="cursor: pointer;"><path id="kity_path_391" fill="none" stroke="none" d="M271.0000085160136,194.99999771267176h12a2,2,0,0,1,2,2v13a2,2,0,0,1,-2,2h-12a2,2,0,0,1,-2,-2v-13a2,2,0,0,1,2,-2z"></path><path id="kity_path_392" fill="black" stroke="none" d="M280.0000085532665,205.9999976158142H274.0000085532665V204.9999976158142h6L280.0000085532665,205.9999976158142L280.0000085532665,205.9999976158142zM280.0000085532665,203.9999976158142H274.0000085532665V202.9999976158142h6V203.9999976158142zM280.0000085532665,201.9999976158142H274.0000085532665V200.9999976158142h6V201.9999976158142zM279.5000085532665,207.9999976158142H273.0000085532665V198.9999976158142h8v7.5M280.0000085532665,208.9999976158142l2,-2V197.9999976158142H272.0000085532665v11"></path></g></g><g id="minder_node33"><g id="node_expander32" style="cursor: pointer;"><path id="kity_path_399" fill="white" stroke="gray" d="M306.5000089928508,317.9999994188547A6,6,0,1,1,294.5000089928508,317.9999994188547A6,6,0,1,1,306.5000089928508,317.9999994188547"></path><path id="kity_path_400" fill="none" stroke="gray" d="M296.0000089928508,317.9999994188547L305.0000089928508,317.9999994188547"></path></g><path id="node_outline33" fill="none" stroke="none" d="M198.50000754743814,304.49999941140413h91a5,5,0,0,1,5,5v17a5,5,0,0,1,-5,5h-91a5,5,0,0,1,-5,-5v-17a5,5,0,0,1,5,-5z" stroke-width="3"></path><g id="node_text33" fill="black"><text id="kity_text_396" text-rendering="inherit" font-size="12" dy=".8em" y="309.69999938458204" x="203.50000754743814">parameter </text></g><g id="kity_g_401" style="cursor: pointer;"><path id="kity_path_402" fill="none" stroke="none" d="M271.0000085160136,308.99999941140413h12a2,2,0,0,1,2,2v13a2,2,0,0,1,-2,2h-12a2,2,0,0,1,-2,-2v-13a2,2,0,0,1,2,-2z"></path><path id="kity_path_403" fill="black" stroke="none" d="M280.0000085532665,319.9999993145466H274.0000085532665V318.9999993145466h6L280.0000085532665,319.9999993145466L280.0000085532665,319.9999993145466zM280.0000085532665,317.9999993145466H274.0000085532665V316.9999993145466h6V317.9999993145466zM280.0000085532665,315.9999993145466H274.0000085532665V314.9999993145466h6V315.9999993145466zM279.5000085532665,321.9999993145466H273.0000085532665V312.9999993145466h8v7.5M280.0000085532665,322.9999993145466l2,-2V311.9999993145466H272.0000085532665v11"></path></g></g><g id="minder_node34"><g id="node_expander33" style="cursor: pointer;" display="none"><path id="kity_path_410" fill="white" stroke="gray" d="M165.50000689178705,260.9999985694885A6,6,0,1,1,153.50000689178705,260.9999985694885A6,6,0,1,1,165.50000689178705,260.9999985694885"></path><path id="kity_path_411" fill="none" stroke="gray"></path></g><path id="node_outline34" fill="none" stroke="none" d="M67.50000559538603,247.49999856203794h81a5,5,0,0,1,5,5v17a5,5,0,0,1,-5,5h-81a5,5,0,0,1,-5,-5v-17a5,5,0,0,1,5,-5z" stroke-width="3"></path><g id="node_text34" fill="black"><text id="kity_text_407" text-rendering="inherit" font-size="12" dy=".8em" y="252.69999853521585" x="72.50000559538603">基本类型</text></g><g id="kity_g_428" style="cursor: pointer;"><path id="kity_path_429" fill="none" stroke="none" d="M130.0000064149499,251.99999856203794h12a2,2,0,0,1,2,2v13a2,2,0,0,1,-2,2h-12a2,2,0,0,1,-2,-2v-13a2,2,0,0,1,2,-2z"></path><path id="kity_path_430" fill="black" stroke="none" d="M139.0000064522028,262.9999984651804H133.0000064522028V261.9999984651804h6L139.0000064522028,262.9999984651804L139.0000064522028,262.9999984651804zM139.0000064522028,260.9999984651804H133.0000064522028V259.9999984651804h6V260.9999984651804zM139.0000064522028,258.9999984651804H133.0000064522028V257.9999984651804h6V258.9999984651804zM138.5000064522028,264.9999984651804H132.0000064522028V255.9999984651804h8v7.5M139.0000064522028,265.9999984651804l2,-2V254.9999984651804H131.0000064522028v11"></path></g></g><g id="minder_node35"><g id="node_expander34" style="cursor: pointer;" display="none"><path id="kity_path_418" fill="white" stroke="gray" d="M165.50000689178705,317.9999994188547A6,6,0,1,1,153.50000689178705,317.9999994188547A6,6,0,1,1,165.50000689178705,317.9999994188547"></path><path id="kity_path_419" fill="none" stroke="gray"></path></g><path id="node_outline35" fill="none" stroke="none" d="M68.50000561028719,304.49999941140413h80a5,5,0,0,1,5,5v17a5,5,0,0,1,-5,5h-80a5,5,0,0,1,-5,-5v-17a5,5,0,0,1,5,-5z" stroke-width="3"></path><g id="node_text35" fill="black"><text id="kity_text_415" text-rendering="inherit" font-size="12" dy=".8em" y="309.69999938458204" x="73.50000561028719">引用类型</text></g><g id="kity_g_431" style="cursor: pointer;"><path id="kity_path_432" fill="none" stroke="none" d="M130.0000064149499,308.99999941140413h12a2,2,0,0,1,2,2v13a2,2,0,0,1,-2,2h-12a2,2,0,0,1,-2,-2v-13a2,2,0,0,1,2,-2z"></path><path id="kity_path_433" fill="black" stroke="none" d="M139.0000064522028,319.9999993145466H133.0000064522028V318.9999993145466h6L139.0000064522028,319.9999993145466L139.0000064522028,319.9999993145466zM139.0000064522028,317.9999993145466H133.0000064522028V316.9999993145466h6V317.9999993145466zM139.0000064522028,315.9999993145466H133.0000064522028V314.9999993145466h6V315.9999993145466zM138.5000064522028,321.9999993145466H132.0000064522028V312.9999993145466h8v7.5M139.0000064522028,322.9999993145466l2,-2V311.9999993145466H131.0000064522028v11"></path></g></g><g id="minder_node36"><g id="node_expander35" style="cursor: pointer;" display="none"><path id="kity_path_426" fill="white" stroke="gray" d="M165.50000689178705,375.0000002682209A6,6,0,1,1,153.50000689178705,375.0000002682209A6,6,0,1,1,165.50000689178705,375.0000002682209"></path><path id="kity_path_427" fill="none" stroke="gray"></path></g><path id="node_outline36" fill="none" stroke="none" d="M81.50000580400229,361.5000002607703h67a5,5,0,0,1,5,5v17a5,5,0,0,1,-5,5h-67a5,5,0,0,1,-5,-5v-17a5,5,0,0,1,5,-5z" stroke-width="3"></path><g id="node_text36" fill="black"><text id="kity_text_423" text-rendering="inherit" font-size="12" dy=".8em" y="366.70000023394823" x="86.50000580400229">字符串</text></g><g id="kity_g_434" style="cursor: pointer;"><path id="kity_path_435" fill="none" stroke="none" d="M130.0000064149499,366.0000002607703h12a2,2,0,0,1,2,2v13a2,2,0,0,1,-2,2h-12a2,2,0,0,1,-2,-2v-13a2,2,0,0,1,2,-2z"></path><path id="kity_path_436" fill="black" stroke="none" d="M139.0000064522028,377.0000001639128H133.0000064522028V376.0000001639128h6L139.0000064522028,377.0000001639128L139.0000064522028,377.0000001639128zM139.0000064522028,375.0000001639128H133.0000064522028V374.0000001639128h6V375.0000001639128zM139.0000064522028,373.0000001639128H133.0000064522028V372.0000001639128h6V373.0000001639128zM138.5000064522028,379.0000001639128H132.0000064522028V370.0000001639128h8v7.5M139.0000064522028,380.0000001639128l2,-2V369.0000001639128H131.0000064522028v11"></path></g></g><g id="minder_node37"><g id="node_expander36" style="cursor: pointer;" display="none"><path id="kity_path_443" fill="white" stroke="gray" d="M306.5000089928508,432.0000011175871A6,6,0,1,1,294.5000089928508,432.0000011175871A6,6,0,1,1,306.5000089928508,432.0000011175871"></path><path id="kity_path_444" fill="none" stroke="gray"></path></g><path id="node_outline37" fill="none" stroke="none" d="M120.50000638514757,418.5000011101365h169a5,5,0,0,1,5,5v17a5,5,0,0,1,-5,5h-169a5,5,0,0,1,-5,-5v-17a5,5,0,0,1,5,-5z" stroke-width="3"></path><g id="node_text37" fill="black"><text id="kity_text_440" text-rendering="inherit" font-size="12" dy=".8em" y="423.7000010833144" x="125.50000638514757">resultMap(查询结果映射) </text></g><g id="kity_g_445" style="cursor: pointer;"><path id="kity_path_446" fill="none" stroke="none" d="M271.0000085160136,423.0000011101365h12a2,2,0,0,1,2,2v13a2,2,0,0,1,-2,2h-12a2,2,0,0,1,-2,-2v-13a2,2,0,0,1,2,-2z"></path><path id="kity_path_447" fill="black" stroke="none" d="M280.0000085532665,434.00000101327896H274.0000085532665V433.00000101327896h6L280.0000085532665,434.00000101327896L280.0000085532665,434.00000101327896zM280.0000085532665,432.00000101327896H274.0000085532665V431.00000101327896h6V432.00000101327896zM280.0000085532665,430.00000101327896H274.0000085532665V429.00000101327896h6V430.00000101327896zM279.5000085532665,436.00000101327896H273.0000085532665V427.00000101327896h8v7.5M280.0000085532665,437.00000101327896l2,-2V426.00000101327896H272.0000085532665v11"></path></g></g><g id="minder_node38"><g id="node_expander37" style="cursor: pointer;"><path id="kity_path_454" fill="white" stroke="gray" d="M306.5000089928508,603.5000036731362A6,6,0,1,1,294.5000089928508,603.5000036731362A6,6,0,1,1,306.5000089928508,603.5000036731362"></path><path id="kity_path_455" fill="none" stroke="gray" d="M296.0000089928508,603.5000036731362L305.0000089928508,603.5000036731362"></path></g><path id="node_outline38" fill="none" stroke="none" d="M214.50000778585672,592.5000036731362h75a5,5,0,0,1,5,5v12a5,5,0,0,1,-5,5h-75a5,5,0,0,1,-5,-5v-12a5,5,0,0,1,5,-5z" stroke-width="3"></path><g id="node_text38" fill="black"><text id="kity_text_451" text-rendering="inherit" font-size="12" dy=".8em" y="595.7000036463141" x="219.50000778585672">cache(缓存)</text></g></g><g id="minder_node39"><g id="node_expander38" style="cursor: pointer;" display="none"><path id="kity_path_462" fill="white" stroke="gray" d="M181.50000713020563,490.00000198185444A6,6,0,1,1,169.50000713020563,490.00000198185444A6,6,0,1,1,181.50000713020563,490.00000198185444"></path><path id="kity_path_463" fill="none" stroke="gray"></path></g><path id="node_outline39" fill="none" stroke="none" d="M83.50000583380461,476.50000197440386h81a5,5,0,0,1,5,5v17a5,5,0,0,1,-5,5h-81a5,5,0,0,1,-5,-5v-17a5,5,0,0,1,5,-5z" stroke-width="3"></path><g id="node_text39" fill="black"><text id="kity_text_459" text-rendering="inherit" font-size="12" dy=".8em" y="481.70000194758177" x="88.50000583380461">一级缓存</text></g><g id="kity_g_464" style="cursor: pointer;"><path id="kity_path_465" fill="none" stroke="none" d="M146.00000665336847,481.00000197440386h12a2,2,0,0,1,2,2v13a2,2,0,0,1,-2,2h-12a2,2,0,0,1,-2,-2v-13a2,2,0,0,1,2,-2z"></path><path id="kity_path_466" fill="black" stroke="none" d="M155.00000669062138,492.0000018775463H149.00000669062138V491.0000018775463h6L155.00000669062138,492.0000018775463L155.00000669062138,492.0000018775463zM155.00000669062138,490.0000018775463H149.00000669062138V489.0000018775463h6V490.0000018775463zM155.00000669062138,488.0000018775463H149.00000669062138V487.0000018775463h6V488.0000018775463zM154.50000669062138,494.0000018775463H148.00000669062138V485.0000018775463h8v7.5M155.00000669062138,495.0000018775463l2,-2V484.0000018775463H147.00000669062138v11"></path></g></g><g id="minder_node40"><g id="node_expander39" style="cursor: pointer;" display="none"><path id="kity_path_473" fill="white" stroke="gray" d="M181.50000713020563,547.0000028312206A6,6,0,1,1,169.50000713020563,547.0000028312206A6,6,0,1,1,181.50000713020563,547.0000028312206"></path><path id="kity_path_474" fill="none" stroke="gray"></path></g><path id="node_outline40" fill="none" stroke="none" d="M84.50000584870577,533.50000282377h80a5,5,0,0,1,5,5v17a5,5,0,0,1,-5,5h-80a5,5,0,0,1,-5,-5v-17a5,5,0,0,1,5,-5z" stroke-width="3"></path><g id="node_text40" fill="black"><text id="kity_text_470" text-rendering="inherit" font-size="12" dy=".8em" y="538.700002796948" x="89.50000584870577">二级缓存</text></g><g id="kity_g_475" style="cursor: pointer;"><path id="kity_path_476" fill="none" stroke="none" d="M146.00000665336847,538.00000282377h12a2,2,0,0,1,2,2v13a2,2,0,0,1,-2,2h-12a2,2,0,0,1,-2,-2v-13a2,2,0,0,1,2,-2z"></path><path id="kity_path_477" fill="black" stroke="none" d="M155.00000669062138,549.0000027269125H149.00000669062138V548.0000027269125h6L155.00000669062138,549.0000027269125L155.00000669062138,549.0000027269125zM155.00000669062138,547.0000027269125H149.00000669062138V546.0000027269125h6V547.0000027269125zM155.00000669062138,545.0000027269125H149.00000669062138V544.0000027269125h6V545.0000027269125zM154.50000669062138,551.0000027269125H148.00000669062138V542.0000027269125h8v7.5M155.00000669062138,552.0000027269125l2,-2V541.0000027269125H147.00000669062138v11"></path></g></g><g id="minder_node41"><g id="node_expander40" style="cursor: pointer;" display="none"><path id="kity_path_484" fill="white" stroke="gray" d="M181.50000713020563,604.0000036805868A6,6,0,1,1,169.50000713020563,604.0000036805868A6,6,0,1,1,181.50000713020563,604.0000036805868"></path><path id="kity_path_485" fill="none" stroke="gray"></path></g><path id="node_outline41" fill="none" stroke="none" d="M84.50000584870577,590.5000036731362h80a5,5,0,0,1,5,5v17a5,5,0,0,1,-5,5h-80a5,5,0,0,1,-5,-5v-17a5,5,0,0,1,5,-5z" stroke-width="3"></path><g id="node_text41" fill="black"><text id="kity_text_481" text-rendering="inherit" font-size="12" dy=".8em" y="595.7000036463141" x="89.50000584870577">缓存属性</text></g><g id="kity_g_486" style="cursor: pointer;"><path id="kity_path_487" fill="none" stroke="none" d="M146.00000665336847,595.0000036731362h12a2,2,0,0,1,2,2v13a2,2,0,0,1,-2,2h-12a2,2,0,0,1,-2,-2v-13a2,2,0,0,1,2,-2z"></path><path id="kity_path_488" fill="black" stroke="none" d="M155.00000669062138,606.0000035762787H149.00000669062138V605.0000035762787h6L155.00000669062138,606.0000035762787L155.00000669062138,606.0000035762787zM155.00000669062138,604.0000035762787H149.00000669062138V603.0000035762787h6V604.0000035762787zM155.00000669062138,602.0000035762787H149.00000669062138V601.0000035762787h6V602.0000035762787zM154.50000669062138,608.0000035762787H148.00000669062138V599.0000035762787h8v7.5M155.00000669062138,609.0000035762787l2,-2V598.0000035762787H147.00000669062138v11"></path></g></g><g id="minder_node42"><g id="node_expander41" style="cursor: pointer;" display="none"><path id="kity_path_495" fill="white" stroke="gray" d="M181.50000713020563,661.000004529953A6,6,0,1,1,169.50000713020563,661.000004529953A6,6,0,1,1,181.50000713020563,661.000004529953"></path><path id="kity_path_496" fill="none" stroke="gray"></path></g><path id="node_outline42" fill="none" stroke="none" d="M72.50000566989183,647.5000045225024h92a5,5,0,0,1,5,5v17a5,5,0,0,1,-5,5h-92a5,5,0,0,1,-5,-5v-17a5,5,0,0,1,5,-5z" stroke-width="3"></path><g id="node_text42" fill="black"><text id="kity_text_492" text-rendering="inherit" font-size="12" dy=".8em" y="652.7000044956803" x="77.50000566989183">自定义缓存</text></g><g id="kity_g_497" style="cursor: pointer;"><path id="kity_path_498" fill="none" stroke="none" d="M146.00000665336847,652.0000045225024h12a2,2,0,0,1,2,2v13a2,2,0,0,1,-2,2h-12a2,2,0,0,1,-2,-2v-13a2,2,0,0,1,2,-2z"></path><path id="kity_path_499" fill="black" stroke="none" d="M155.00000669062138,663.0000044256449H149.00000669062138V662.0000044256449h6L155.00000669062138,663.0000044256449L155.00000669062138,663.0000044256449zM155.00000669062138,661.0000044256449H149.00000669062138V660.0000044256449h6V661.0000044256449zM155.00000669062138,659.0000044256449H149.00000669062138V658.0000044256449h6V659.0000044256449zM154.50000669062138,665.0000044256449H148.00000669062138V656.0000044256449h8v7.5M155.00000669062138,666.0000044256449l2,-2V655.0000044256449H147.00000669062138v11"></path></g></g><g id="minder_node43"><g id="node_expander42" style="cursor: pointer;" display="none"><path id="kity_path_506" fill="white" stroke="gray" d="M181.50000713020563,718.0000053793192A6,6,0,1,1,169.50000713020563,718.0000053793192A6,6,0,1,1,181.50000713020563,718.0000053793192"></path><path id="kity_path_507" fill="none" stroke="gray"></path></g><path id="node_outline43" fill="none" stroke="none" d="M71.50000565499067,704.5000053718686h93a5,5,0,0,1,5,5v17a5,5,0,0,1,-5,5h-93a5,5,0,0,1,-5,-5v-17a5,5,0,0,1,5,-5z" stroke-width="3"></path><g id="node_text43" fill="black"><text id="kity_text_503" text-rendering="inherit" font-size="12" dy=".8em" y="709.7000053450465" x="76.50000565499067">第三方缓存</text></g><g id="kity_g_508" style="cursor: pointer;"><path id="kity_path_509" fill="none" stroke="none" d="M146.00000665336847,709.0000053718686h12a2,2,0,0,1,2,2v13a2,2,0,0,1,-2,2h-12a2,2,0,0,1,-2,-2v-13a2,2,0,0,1,2,-2z"></path><path id="kity_path_510" fill="black" stroke="none" d="M155.00000669062138,720.0000052750111H149.00000669062138V719.0000052750111h6L155.00000669062138,720.0000052750111L155.00000669062138,720.0000052750111zM155.00000669062138,718.0000052750111H149.00000669062138V717.0000052750111h6V718.0000052750111zM155.00000669062138,716.0000052750111H149.00000669062138V715.0000052750111h6V716.0000052750111zM154.50000669062138,722.0000052750111H148.00000669062138V713.0000052750111h8v7.5M155.00000669062138,723.0000052750111l2,-2V712.0000052750111H147.00000669062138v11"></path></g></g><g id="minder_node44"><g id="node_expander43" style="cursor: pointer;"><path id="kity_path_517" fill="white" stroke="gray" d="M557.5000127330422,954.5000089034438A6,6,0,1,1,545.5000127330422,954.5000089034438A6,6,0,1,1,557.5000127330422,954.5000089034438"></path><path id="kity_path_518" fill="none" stroke="gray" d="M547.0000127330422,954.5000089034438L556.0000127330422,954.5000089034438"></path></g><path id="node_outline44" fill="rgb(238, 243, 246)" stroke="rgb(115, 161, 191)" d="M370.5000102892518,941.5000089034438h171a3,3,0,0,1,3,3v20a3,3,0,0,1,-3,3h-171a3,3,0,0,1,-3,-3v-20a3,3,0,0,1,3,-3z" stroke-width="1"></path><g id="node_text44" fill="black"><text id="kity_text_514" text-rendering="inherit" font-size="14" dy=".8em" y="945.4000088721514" x="387.5000102892518">Mybatis动态SQL映射</text></g></g><g id="minder_node46"><g id="node_expander45" style="cursor: pointer;" display="none"><path id="kity_path_533" fill="white" stroke="gray" d="M339.5000094845891,784.0000063627958A6,6,0,1,1,327.5000094845891,784.0000063627958A6,6,0,1,1,339.5000094845891,784.0000063627958"></path><path id="kity_path_534" fill="none" stroke="gray"></path></g><path id="node_outline46" fill="none" stroke="none" d="M219.50000786036253,770.5000063553452h103a5,5,0,0,1,5,5v17a5,5,0,0,1,-5,5h-103a5,5,0,0,1,-5,-5v-17a5,5,0,0,1,5,-5z" stroke-width="3"></path><g id="node_text46" fill="black"><text id="kity_text_530" text-rendering="inherit" font-size="12" dy=".8em" y="775.7000063285232" x="224.50000786036253">动态SQL简介</text></g><g id="kity_g_535" style="cursor: pointer;"><path id="kity_path_536" fill="none" stroke="none" d="M304.00000900775194,775.0000063553452h12a2,2,0,0,1,2,2v13a2,2,0,0,1,-2,2h-12a2,2,0,0,1,-2,-2v-13a2,2,0,0,1,2,-2z"></path><path id="kity_path_537" fill="black" stroke="none" d="M313.00000904500484,786.0000062584877H307.00000904500484V785.0000062584877h6L313.00000904500484,786.0000062584877L313.00000904500484,786.0000062584877zM313.00000904500484,784.0000062584877H307.00000904500484V783.0000062584877h6V784.0000062584877zM313.00000904500484,782.0000062584877H307.00000904500484V781.0000062584877h6V782.0000062584877zM312.50000904500484,788.0000062584877H306.00000904500484V779.0000062584877h8v7.5M313.00000904500484,789.0000062584877l2,-2V778.0000062584877H305.00000904500484v11"></path></g></g><g id="minder_node48"><g id="node_expander47" style="cursor: pointer;"><path id="kity_path_552" fill="white" stroke="gray" d="M339.5000094845891,954.5000089034438A6,6,0,1,1,327.5000094845891,954.5000089034438A6,6,0,1,1,339.5000094845891,954.5000089034438"></path><path id="kity_path_553" fill="none" stroke="gray" d="M329.0000094845891,954.5000089034438L338.0000094845891,954.5000089034438"></path></g><path id="node_outline48" fill="none" stroke="none" d="M240.50000817328691,943.5000089034438h82a5,5,0,0,1,5,5v12a5,5,0,0,1,-5,5h-82a5,5,0,0,1,-5,-5v-12a5,5,0,0,1,5,-5z" stroke-width="3"></path><g id="node_text48" fill="black"><text id="kity_text_549" text-rendering="inherit" font-size="12" dy=".8em" y="946.7000088766217" x="245.50000817328691">动态SQL标记</text></g></g><g id="minder_node49"><g id="node_expander48" style="cursor: pointer;" display="none"><path id="kity_path_560" fill="white" stroke="gray" d="M207.50000751763582,841.000007212162A6,6,0,1,1,195.50000751763582,841.000007212162A6,6,0,1,1,207.50000751763582,841.000007212162"></path><path id="kity_path_561" fill="none" stroke="gray"></path></g><path id="node_outline49" fill="none" stroke="none" d="M151.50000684708357,827.5000072047114h39a5,5,0,0,1,5,5v17a5,5,0,0,1,-5,5h-39a5,5,0,0,1,-5,-5v-17a5,5,0,0,1,5,-5z" stroke-width="3"></path><g id="node_text49" fill="black"><text id="kity_text_557" text-rendering="inherit" font-size="12" dy=".8em" y="832.7000071778893" x="156.50000684708357">if</text></g><g id="kity_g_562" style="cursor: pointer;"><path id="kity_path_563" fill="none" stroke="none" d="M172.00000704079866,832.0000072047114h12a2,2,0,0,1,2,2v13a2,2,0,0,1,-2,2h-12a2,2,0,0,1,-2,-2v-13a2,2,0,0,1,2,-2z"></path><path id="kity_path_564" fill="black" stroke="none" d="M181.00000707805157,843.0000071078539H175.00000707805157V842.0000071078539h6L181.00000707805157,843.0000071078539L181.00000707805157,843.0000071078539zM181.00000707805157,841.0000071078539H175.00000707805157V840.0000071078539h6V841.0000071078539zM181.00000707805157,839.0000071078539H175.00000707805157V838.0000071078539h6V839.0000071078539zM180.50000707805157,845.0000071078539H174.00000707805157V836.0000071078539h8v7.5M181.00000707805157,846.0000071078539l2,-2V835.0000071078539H173.00000707805157v11"></path></g></g><g id="minder_node50"><g id="node_expander49" style="cursor: pointer;" display="none"><path id="kity_path_571" fill="white" stroke="gray" d="M207.50000751763582,898.0000080615282A6,6,0,1,1,195.50000751763582,898.0000080615282A6,6,0,1,1,207.50000751763582,898.0000080615282"></path><path id="kity_path_572" fill="none" stroke="gray"></path></g><path id="node_outline50" fill="none" stroke="none" d="M123.50000642985106,884.5000080540776h67a5,5,0,0,1,5,5v17a5,5,0,0,1,-5,5h-67a5,5,0,0,1,-5,-5v-17a5,5,0,0,1,5,-5z" stroke-width="3"></path><g id="node_text50" fill="black"><text id="kity_text_568" text-rendering="inherit" font-size="12" dy=".8em" y="889.7000080272555" x="128.50000642985106">where</text></g><g id="kity_g_573" style="cursor: pointer;"><path id="kity_path_574" fill="none" stroke="none" d="M172.00000704079866,889.0000080540776h12a2,2,0,0,1,2,2v13a2,2,0,0,1,-2,2h-12a2,2,0,0,1,-2,-2v-13a2,2,0,0,1,2,-2z"></path><path id="kity_path_575" fill="black" stroke="none" d="M181.00000707805157,900.0000079572201H175.00000707805157V899.0000079572201h6L181.00000707805157,900.0000079572201L181.00000707805157,900.0000079572201zM181.00000707805157,898.0000079572201H175.00000707805157V897.0000079572201h6V898.0000079572201zM181.00000707805157,896.0000079572201H175.00000707805157V895.0000079572201h6V896.0000079572201zM180.50000707805157,902.0000079572201H174.00000707805157V893.0000079572201h8v7.5M181.00000707805157,903.0000079572201l2,-2V892.0000079572201H173.00000707805157v11"></path></g></g><g id="minder_node51"><g id="node_expander50" style="cursor: pointer;" display="none"><path id="kity_path_582" fill="white" stroke="gray" d="M207.50000751763582,955.0000089108944A6,6,0,1,1,195.50000751763582,955.0000089108944A6,6,0,1,1,207.50000751763582,955.0000089108944"></path><path id="kity_path_583" fill="none" stroke="gray"></path></g><path id="node_outline51" fill="none" stroke="none" d="M25.500004969537258,941.5000089034438h165a5,5,0,0,1,5,5v17a5,5,0,0,1,-5,5h-165a5,5,0,0,1,-5,-5v-17a5,5,0,0,1,5,-5z" stroke-width="3"></path><g id="node_text51" fill="black"><text id="kity_text_579" text-rendering="inherit" font-size="12" dy=".8em" y="946.7000088766217" x="30.500004969537258">choose,when,otherwise</text></g><g id="kity_g_584" style="cursor: pointer;"><path id="kity_path_585" fill="none" stroke="none" d="M172.00000704079866,946.0000089034438h12a2,2,0,0,1,2,2v13a2,2,0,0,1,-2,2h-12a2,2,0,0,1,-2,-2v-13a2,2,0,0,1,2,-2z"></path><path id="kity_path_586" fill="black" stroke="none" d="M181.00000707805157,957.0000088065863H175.00000707805157V956.0000088065863h6L181.00000707805157,957.0000088065863L181.00000707805157,957.0000088065863zM181.00000707805157,955.0000088065863H175.00000707805157V954.0000088065863h6V955.0000088065863zM181.00000707805157,953.0000088065863H175.00000707805157V952.0000088065863h6V953.0000088065863zM180.50000707805157,959.0000088065863H174.00000707805157V950.0000088065863h8v7.5M181.00000707805157,960.0000088065863l2,-2V949.0000088065863H173.00000707805157v11"></path></g></g><g id="minder_node52"><g id="node_expander51" style="cursor: pointer;" display="none"><path id="kity_path_593" fill="white" stroke="gray" d="M207.50000751763582,1012.0000097602606A6,6,0,1,1,195.50000751763582,1012.0000097602606A6,6,0,1,1,207.50000751763582,1012.0000097602606"></path><path id="kity_path_594" fill="none" stroke="gray"></path></g><path id="node_outline52" fill="none" stroke="none" d="M78.5000057592988,998.50000975281h112a5,5,0,0,1,5,5v17a5,5,0,0,1,-5,5h-112a5,5,0,0,1,-5,-5v-17a5,5,0,0,1,5,-5z" stroke-width="3"></path><g id="node_text52" fill="black"><text id="kity_text_590" text-rendering="inherit" font-size="12" dy=".8em" y="1003.7000097259879" x="83.5000057592988">trim,where,set</text></g><g id="kity_g_595" style="cursor: pointer;"><path id="kity_path_596" fill="none" stroke="none" d="M172.00000704079866,1003.00000975281h12a2,2,0,0,1,2,2v13a2,2,0,0,1,-2,2h-12a2,2,0,0,1,-2,-2v-13a2,2,0,0,1,2,-2z"></path><path id="kity_path_597" fill="black" stroke="none" d="M181.00000707805157,1014.0000096559525H175.00000707805157V1013.0000096559525h6L181.00000707805157,1014.0000096559525L181.00000707805157,1014.0000096559525zM181.00000707805157,1012.0000096559525H175.00000707805157V1011.0000096559525h6V1012.0000096559525zM181.00000707805157,1010.0000096559525H175.00000707805157V1009.0000096559525h6V1010.0000096559525zM180.50000707805157,1016.0000096559525H174.00000707805157V1007.0000096559525h8v7.5M181.00000707805157,1017.0000096559525l2,-2V1006.0000096559525H173.00000707805157v11"></path></g></g><g id="minder_node53"><g id="node_expander52" style="cursor: pointer;" display="none"><path id="kity_path_604" fill="white" stroke="gray" d="M207.50000751763582,1069.0000106096268A6,6,0,1,1,195.50000751763582,1069.0000106096268A6,6,0,1,1,207.50000751763582,1069.0000106096268"></path><path id="kity_path_605" fill="none" stroke="gray"></path></g><path id="node_outline53" fill="none" stroke="none" d="M116.50000632554293,1055.5000106021762h74a5,5,0,0,1,5,5v17a5,5,0,0,1,-5,5h-74a5,5,0,0,1,-5,-5v-17a5,5,0,0,1,5,-5z" stroke-width="3"></path><g id="node_text53" fill="black"><text id="kity_text_601" text-rendering="inherit" font-size="12" dy=".8em" y="1060.700010575354" x="121.50000632554293">foreach</text></g><g id="kity_g_606" style="cursor: pointer;"><path id="kity_path_607" fill="none" stroke="none" d="M172.00000704079866,1060.0000106021762h12a2,2,0,0,1,2,2v13a2,2,0,0,1,-2,2h-12a2,2,0,0,1,-2,-2v-13a2,2,0,0,1,2,-2z"></path><path id="kity_path_608" fill="black" stroke="none" d="M181.00000707805157,1071.0000105053186H175.00000707805157V1070.0000105053186h6L181.00000707805157,1071.0000105053186L181.00000707805157,1071.0000105053186zM181.00000707805157,1069.0000105053186H175.00000707805157V1068.0000105053186h6V1069.0000105053186zM181.00000707805157,1067.0000105053186H175.00000707805157V1066.0000105053186h6V1067.0000105053186zM180.50000707805157,1073.0000105053186H174.00000707805157V1064.0000105053186h8v7.5M181.00000707805157,1074.0000105053186l2,-2V1063.0000105053186H173.00000707805157v11"></path></g></g><g id="minder_node54"><g id="node_expander53" style="cursor: pointer;" display="none"><path id="kity_path_615" fill="white" stroke="gray" d="M339.5000094845891,1126.000011458993A6,6,0,1,1,327.5000094845891,1126.000011458993A6,6,0,1,1,339.5000094845891,1126.000011458993"></path><path id="kity_path_616" fill="none" stroke="gray"></path></g><path id="node_outline54" fill="none" stroke="none" d="M241.50000818818808,1112.5000114515424h81a5,5,0,0,1,5,5v17a5,5,0,0,1,-5,5h-81a5,5,0,0,1,-5,-5v-17a5,5,0,0,1,5,-5z" stroke-width="3"></path><g id="node_text54" fill="black"><text id="kity_text_612" text-rendering="inherit" font-size="12" dy=".8em" y="1117.7000114247203" x="246.50000818818808">分页插件</text></g><g id="kity_g_617" style="cursor: pointer;"><path id="kity_path_618" fill="none" stroke="none" d="M304.00000900775194,1117.0000114515424h12a2,2,0,0,1,2,2v13a2,2,0,0,1,-2,2h-12a2,2,0,0,1,-2,-2v-13a2,2,0,0,1,2,-2z"></path><path id="kity_path_619" fill="black" stroke="none" d="M313.00000904500484,1128.0000113546848H307.00000904500484V1127.0000113546848h6L313.00000904500484,1128.0000113546848L313.00000904500484,1128.0000113546848zM313.00000904500484,1126.0000113546848H307.00000904500484V1125.0000113546848h6V1126.0000113546848zM313.00000904500484,1124.0000113546848H307.00000904500484V1123.0000113546848h6V1124.0000113546848zM312.50000904500484,1130.0000113546848H306.00000904500484V1121.0000113546848h8v7.5M313.00000904500484,1131.0000113546848l2,-2V1120.0000113546848H305.00000904500484v11"></path></g></g></g></g></svg>